<svg xmlns="http://www.w3.org/2000/svg" viewBox="0 0 160.79 109.5"><title>Tiki logo</title><path d="M447.28,510.89h-9.65c-4.26,0-6-3.36-6-6.64s2.21-6.65,6-6.65H470.2c3.8,0,6,3.27,6,6.65s-1.77,6.64-6,6.64h-9.64v48.36c0,4.81-2.83,7.5-6.65,7.5s-6.64-2.69-6.64-7.5Z" transform="translate(-431.6 -457.25)" style="fill:#1aa7ff"/><path d="M485,505.09c0-4.78,3.05-7.44,7.16-7.44s7.16,2.67,7.16,7.44v54.22c0,4.77-3.05,7.44-7.16,7.44s-7.16-2.67-7.16-7.44Z" transform="translate(-431.6 -457.25)" style="fill:#1aa7ff"/><path d="M507.51,504.7a6.89,6.89,0,0,1,7.16-7.05c4.1,0,7.15,2.66,7.15,7.05v20.63l23.47-25a7.5,7.5,0,0,1,5.53-2.66,6.94,6.94,0,0,1,7.06,6.87c0,2.48-1.53,4.49-4.67,7.63l-18,17.76,22.07,23c2.29,2.29,4,4.39,4,7.24,0,4.49-3.54,6.59-7.44,6.59-2.76,0-4.58-1.61-7.25-4.48l-24.69-26.73v24.35a6.84,6.84,0,0,1-7.15,6.86c-4.11,0-7.16-2.66-7.16-6.86Z" transform="translate(-431.6 -457.25)" style="fill:#1aa7ff"/><path d="M568.83,505.1c0-4.77,3.06-7.44,7.16-7.44s7.16,2.66,7.16,7.44V559.3c0,4.76-3.06,7.43-7.16,7.43s-7.16-2.67-7.16-7.43Z" transform="translate(-431.6 -457.25)" style="fill:#1aa7ff"/><path d="M491.5,488.38a13,13,0,0,1-13-13,13.2,13.2,0,0,1,.5-3.57H504a13,13,0,0,1-12.53,16.61Zm0-31.13a17,17,0,1,0,6.52,1.3A17,17,0,0,0,491.49,457.25Z" transform="translate(-431.6 -457.25)" style="fill:#1aa7ff"/><path d="M575.36,488.38a13,13,0,0,1-13-13,13.2,13.2,0,0,1,.49-3.57h25.05a12.81,12.81,0,0,1,.53,3.57,13,13,0,0,1-13,13Zm0-31.13a17,17,0,1,0,12,5A17,17,0,0,0,575.37,457.25Z" transform="translate(-431.6 -457.25)" style="fill:#1aa7ff"/></svg>