<svg version="1.1" id="Layer_1" xmlns:x="ns_extend;" xmlns:i="ns_ai;" xmlns:graph="ns_graphs;" xmlns="http://www.w3.org/2000/svg" xmlns:xlink="http://www.w3.org/1999/xlink" x="0px" y="0px" viewBox="0 0 71 71" style="enable-background:new 0 0 71 71;" xml:space="preserve">

 <metadata>
  <sfw xmlns="ns_sfw;">
   <slices>
   </slices>
   <sliceSourceBounds bottomLeftOrigin="true" height="71" width="71" x="164.8" y="-235.7">
   </sliceSourceBounds>
  </sfw>
 </metadata>
 <g>
  <path fill="#33e0a1" d="M71,35.5C71,55.1,55.1,71,35.5,71C15.9,71,0,55.1,0,35.5S15.9,0,35.5,0C55.1,0,71,15.9,71,35.5">
  </path>
  <path d="M57.4,28.5l4.3-4.7h-9.5c-4.7-3.2-10.5-5.1-16.7-5.1c-6.2,0-11.9,1.9-16.6,5.1H9.4l4.3,4.7c-2.6,2.4-4.3,5.8-4.3,9.7
		c0,7.2,5.8,13.1,13.1,13.1c3.4,0,6.5-1.3,8.9-3.5l4.2,4.6l4.2-4.6c2.3,2.2,5.4,3.5,8.9,3.5c7.2,0,13.1-5.8,13.1-13.1
		C61.6,34.3,60,30.9,57.4,28.5 M22.4,47c-4.9,0-8.8-4-8.8-8.8c0-4.9,4-8.8,8.8-8.8c4.9,0,8.8,4,8.8,8.8C31.3,43,27.3,47,22.4,47
		 M35.5,37.9c0-5.8-4.2-10.8-9.8-12.9c3-1.3,6.3-2,9.8-2c3.5,0,6.8,0.7,9.8,2C39.7,27.1,35.5,32.1,35.5,37.9 M48.6,47
		c-4.9,0-8.8-4-8.8-8.8c0-4.9,4-8.8,8.8-8.8c4.9,0,8.8,4,8.8,8.8C57.4,43,53.4,47,48.6,47 M48.6,33.5c-2.6,0-4.6,2.1-4.6,4.6
		s2.1,4.6,4.6,4.6c2.6,0,4.6-2.1,4.6-4.6S51.1,33.5,48.6,33.5 M27.1,38.1c0,2.6-2.1,4.6-4.6,4.6c-2.6,0-4.6-2.1-4.6-4.6
		s2.1-4.6,4.6-4.6C25,33.5,27.1,35.6,27.1,38.1">
  </path>
 </g>
</svg>