<svg id="Layer_1" style="enable-background:new 0 0 786.9 160.7;" version="1.1" viewBox="0 0 786.9 160.7" x="0px" xml:space="preserve" xmlns="http://www.w3.org/2000/svg" xmlns:xlink="http://www.w3.org/1999/xlink" y="0px">
 <path d="M63.6,159.3c-24,0-41.8-12.3-41.8-41.8V70.3H0V44.7C24,38.5,34,17.9,35.1,0H60v40.6h29v29.7H60v41.1
	c0,12.3,6.2,16.6,16.1,16.6h14.1v31.3H63.6z M152.7,160.7c13.6,0,29.3-5.9,37.8-16.4v15h44.8v-25.5h-11.4V40.6h-54.1v25.9h15.4v44.9
	c0,3.6-3,18.7-23.3,18.7c-13,0-15.4-7.8-15.4-17.7V40.6h-39.9v73.4C106.6,132.3,114.9,160.7,152.7,160.7z M249.6,159.3h65.6v-25.5
	h-13.4V89.5c0-6.5,5.5-19.7,22.4-19.7c13.6,0,16.4,8.3,16.4,18.1v46h-13.2v25.5h65.1v-25.5h-13.6V89.5c0-6.5,5-19.7,21.9-19.7
	c13.7,0,17.1,8.3,17.1,18.1v46h-13v25.5h64.8v-25.5h-13.3V92.4c0-24.4-9.2-53.2-45.6-53.2c-18,0-32.7,8.5-38.9,19
	c-7.8-11.9-19.7-19-37.4-19c-14.1,0-29.5,6-37.8,17.4v-16h-49.2v25.9H263v67.4h-13.5V159.3z M552.6,160.7c33.2,0,51-24.9,51-62.2
	c0-35.8-16.6-59.3-50.3-59.3c-11.9,0-23.7,4.5-30.9,10V0h-54.8v25.7h15.9v133.6H520v-10.5C529.3,156.7,540.5,160.7,552.6,160.7z
	 M544.3,131.8c-11.6,0-23-7.4-23-30.6c0-28,13.5-33,22.8-33c10.8,0,20.4,8.8,20.4,30.5C564.4,130.1,550.4,131.1,544.3,131.8z
	 M610.7,159.3h66v-25.5h-14.1V0h-54.4v25.7h15.9v108.2h-13.5V159.3z M691.2,159.3H756v-25.5h-13.2v-33.2c0-22.6,15.9-27.5,28-27.5
	h16.1v-34h-13c-14.7,0-28.3,7.1-34.4,18.5V40.6H690v25.9h14.3v67.4h-13.1V159.3z">
 </path>
</svg>