<?xml version="1.0" encoding="utf-8"?>

<!-- Uploaded to: SVG Repo, www.svgrepo.com, Generator: SVG Repo Mixer Tools -->
<svg version="1.1" id="Icons" xmlns="http://www.w3.org/2000/svg" xmlns:xlink="http://www.w3.org/1999/xlink" 
	 viewBox="0 0 32 32" xml:space="preserve">

<path fill="#7B519C" d="M16,0C8.1,0,0,1.7,0,14c0,6.6,2.3,10.7,7,12.6v3.7c0,0.7,0.4,1.3,1,1.6C8.2,32,8.5,32,8.7,32
	c0.4,0,0.9-0.2,1.2-0.5l3.6-3.6c0.8,0,1.6,0.1,2.5,0.1c7.9,0,16-1.7,16-14S23.9,0,16,0z"/>
<g>
	<g>
		<path fill="#FFFFFF" d="M15.5,9.1c2.4,0,4.4,2,4.4,4.4c0,0.6,0.4,1,1,1s1-0.4,1-1c0-3.5-2.9-6.4-6.4-6.4c-0.6,0-1,0.4-1,1
			S14.9,9.1,15.5,9.1z"/>
		<path class="st0" fill="#FFFFFF" d="M15.5,12.2c0.7,0,1.3,0.6,1.3,1.3c0,0.6,0.4,1,1,1s1-0.4,1-1c0-1.8-1.5-3.3-3.3-3.3c-0.6,0-1,0.4-1,1
			S14.9,12.2,15.5,12.2z"/>
		<path fill="#FFFFFF" d="M15.5,4c-0.6,0-1,0.4-1,1s0.4,1,1,1c4.1,0,7.5,3.4,7.5,7.5c0,0.6,0.4,1,1,1s1-0.4,1-1C25,8.3,20.7,4,15.5,4z"
			/>
		<path  fill="#FFFFFF" d="M21.9,17.1L21.7,17c0,0-2.2-1.1-2.6-1.2c-0.8-0.3-1.6-0.1-2.1,0.6l-0.1,0.2c-0.2,0.3-0.5,0.7-0.7,0.9l0,0
			c-0.5-0.2-1.4-0.6-2.6-1.6c-0.8-0.7-1.4-1.6-1.7-2.1c0.1-0.1,0.1-0.1,0.2-0.2c0.1-0.1,0.2-0.2,0.3-0.3c0.2-0.2,0.3-0.4,0.5-0.7
			c0.2-0.5,0.2-1,0-1.6c-0.1-0.2-0.5-1.1-0.8-1.8l-0.4-0.8c-0.4-1-1-1.2-1.7-1.2C9.9,7,9.8,7,9.6,7c-0.8,0-1.5,0.3-2,0.8
			C7.1,8.3,6,9.4,6,11.6c0,1.8,1.1,3.5,1.7,4.4l0.1,0.1c1.9,2.8,4.3,4.8,6.7,5.8c2.1,0.9,3.3,1.1,4.1,1.1c0.4,0,0.7,0,0.9-0.1
			c1.3-0.3,2.8-1.2,3.2-2.4c0.2-0.7,0.5-1.9,0.1-2.6C22.6,17.5,22.2,17.3,21.9,17.1z"/>
	</g>
</g>
</svg>