<svg xmlns:dc="http://purl.org/dc/elements/1.1/" xmlns:cc="http://creativecommons.org/ns#" xmlns:rdf="http://www.w3.org/1999/02/22-rdf-syntax-ns#" xmlns:svg="http://www.w3.org/2000/svg" xmlns="http://www.w3.org/2000/svg" xmlns:sodipodi="http://sodipodi.sourceforge.net/DTD/sodipodi-0.dtd" xmlns:inkscape="http://www.inkscape.org/namespaces/inkscape" width="320px" height="179px" viewBox="0 0 320 179" version="1.1" id="SVGRoot" inkscape:version="0.92.5 (2060ec1f9f, 2020-04-08)" sodipodi:docname="VTC.svg" class="mdl-js">
  <defs id="defs1366"/>
  <sodipodi:namedview id="base" pagecolor="#ffffff" bordercolor="#666666" borderopacity="1.0" inkscape:pageopacity="0.0" inkscape:pageshadow="2" inkscape:zoom="1.1922524" inkscape:cx="271.08354" inkscape:cy="166.77991" inkscape:document-units="px" inkscape:current-layer="layer1" showgrid="false" inkscape:window-width="1920" inkscape:window-height="1001" inkscape:window-x="-9" inkscape:window-y="-9" inkscape:window-maximized="1" showguides="true" inkscape:guide-bbox="true"/>
  <metadata id="metadata1369">
    <rdf:RDF>
      <cc:Work rdf:about="">
        <dc:format>image/svg+xml</dc:format>
        <dc:type rdf:resource="http://purl.org/dc/dcmitype/StillImage"/>
        <dc:title/>
      </cc:Work>
    </rdf:RDF>
  </metadata>
  <g inkscape:label="Layer 1" inkscape:groupmode="layer" id="layer1">
    <path style="fill:#2952a2;fill-opacity:1;stroke:none;stroke-width:0.10600284;stroke-miterlimit:4;stroke-dasharray:none;stroke-opacity:1" d="m 287.9555,0.57232752 c -2.3072,2.8756e-4 -4.65314,0.0715395 -5.46993,0.21273756 -4.02672,0.69589742 -7.40189,1.48400382 -8.92309,2.08483422 -0.18697,0.073805 -0.79889,0.285872 -1.35981,0.4714313 -2.9882,0.9884791 -7.82116,3.1921167 -9.94933,4.5355764 -0.36765,0.232082 -0.70699,0.4220679 -0.75395,0.4220679 -0.13289,0 -3.77107,2.3006121 -5.19081,3.2829741 -11.98412,8.292187 -22.79283,20.339077 -31.87665,35.523842 -0.60416,1.009932 -1.09944,1.87099 -1.09944,1.914645 0,0.04366 -0.17723,0.364376 -0.39485,0.713098 -0.91959,1.473574 -4.2179,7.900226 -5.38652,10.493952 -1.37335,3.048097 -1.6698,3.727516 -2.23801,5.156762 -0.28451,0.715617 -0.64832,1.607069 -0.81012,1.981021 -0.16176,0.373957 -0.39305,0.949223 -0.51226,1.276433 -0.11919,0.327209 -0.31369,0.824067 -0.43229,1.104526 -0.11855,0.280472 -0.42184,1.120782 -0.67395,1.868692 -0.2521,0.747909 -0.52257,1.51323 -0.60247,1.700208 -0.21081,0.493129 -1.4025,4.16662 -1.92996,5.949854 -0.24888,0.8414 -0.52421,1.758417 -0.61099,2.038887 -0.25418,0.821211 -1.38557,5.172308 -1.65765,6.375329 -0.13742,0.607671 -0.31048,1.371291 -0.38463,1.698503 -0.0741,0.327209 -0.30029,1.437679 -0.50376,2.466059 -0.20348,1.028372 -0.44002,2.137143 -0.5242,2.464355 -0.0841,0.327209 -0.27346,1.397632 -0.42206,2.379262 -0.14862,0.981629 -0.34052,2.167111 -0.42548,2.63455 -0.1336,0.735243 -0.48466,3.536573 -0.75735,6.034953 -0.70078,6.4209 -0.74678,17.62736 -0.0919,22.60639 0.74077,5.6321 0.7435,5.64783 1.36153,8.75461 0.31211,1.56904 0.7771,3.4905 1.42618,5.89028 0.99323,3.67219 2.5999,7.79217 4.59516,11.78739 6.24062,12.49602 16.30838,20.7838 27.88909,22.957 0.8414,0.15788 1.98853,0.38492 2.54946,0.50545 1.23312,0.26504 8.96785,0.31705 10.11441,0.0682 0.4207,-0.0914 1.22266,-0.23767 1.7836,-0.32507 3.16058,-0.49239 8.18886,-1.78545 9.30432,-2.39286 0.16234,-0.0884 0.38104,-0.15999 0.48504,-0.15999 0.10394,0 0.4496,-0.115 0.76755,-0.25528 0.75818,-0.33439 1.54262,-0.66021 2.27715,-0.94457 0.97638,-0.37802 5.61491,-2.71624 6.714,-3.38508 0.56149,-0.34165 1.13452,-0.67348 1.27474,-0.73692 0.32307,-0.1462 0.475,-0.24456 3.05321,-1.9657 4.93698,-3.29584 9.06862,-6.70555 13.61865,-11.2394 3.90823,-3.89429 5.97713,-6.1914 9.24303,-10.26756 1.10468,-1.37877 4.35282,-5.75506 4.54919,-6.12856 0.10079,-0.19159 0.23138,-0.38559 0.28933,-0.43229 0.20363,-0.16422 3.0325,-4.52998 4.46068,-6.88421 1.43808,-2.37047 1.93599,-3.22174 2.73497,-4.67513 0.23127,-0.4207 0.6512,-1.18602 0.93434,-1.7002 0.80726,-1.46605 2.99656,-5.8614 3.85141,-7.73346 0.42691,-0.93488 0.89435,-1.92202 1.03986,-2.19376 0.14551,-0.27171 0.20521,-0.54492 0.13104,-0.60757 -0.074,-0.0626 -1.05316,-0.48347 -2.17503,-0.93435 -1.98784,-0.79888 -2.87707,-1.16128 -3.57059,-1.45853 -1.42492,-0.61074 -2.44795,-0.95362 -2.58007,-0.86287 -0.0861,0.0591 -0.29533,0.41404 -0.46464,0.78799 -0.53485,1.18143 -3.31572,6.75517 -3.90076,7.81854 -2.2377,4.0674 -4.76203,8.08284 -7.61772,12.11417 -2.82611,3.98956 -6.38357,8.16443 -10.33226,12.12606 -6.40016,6.42116 -12.4431,10.87897 -18.95922,13.98796 -2.35773,1.12494 -3.09621,1.45054 -4.13733,1.82272 -0.52886,0.18909 -1.11498,0.41245 -1.30195,0.49697 -0.29985,0.13551 -3.01748,0.92262 -4.67343,1.35301 -3.66324,0.95212 -9.12194,1.24435 -13.17444,0.70459 -3.92828,-0.52323 -8.57181,-2.20019 -11.93716,-4.30752 -4.49519,-2.81484 -8.97292,-7.51443 -11.92864,-12.52091 -0.92721,-1.57053 -2.90515,-5.44268 -2.90515,-5.68775 0,-0.0589 -0.19176,-0.5238 -0.42549,-1.03476 -0.23372,-0.51097 -0.42377,-1.03488 -0.42377,-1.16241 0,-0.12751 -0.0616,-0.30433 -0.13615,-0.39314 -0.0746,-0.0888 -0.27206,-0.58183 -0.43908,-1.09603 -0.16704,-0.51417 -0.36306,-1.08774 -0.434,-1.27473 -0.496,-1.30699 -1.70625,-6.04257 -2.04228,-7.98873 -0.24015,-1.39081 -0.78972,-5.22551 -1.06028,-7.39479 -0.30311,-2.4312 -0.30576,-14.20299 -0.004,-16.65823 0.12097,-0.98162 0.3348,-2.77901 0.47483,-3.99437 0.14002,-1.215349 0.32433,-2.590876 0.41015,-3.058317 0.0859,-0.46744 0.28157,-1.616278 0.4357,-2.551158 0.15412,-0.934889 0.34351,-1.928606 0.42037,-2.209067 0.0769,-0.28047 0.19311,-0.854034 0.25699,-1.274725 0.0639,-0.4207 0.25495,-1.337727 0.42547,-2.038887 0.17052,-0.70117 0.47082,-1.963338 0.66715,-2.804738 0.19635,-0.841402 0.42124,-1.721761 0.50035,-1.95549 0.0792,-0.23372 0.22826,-0.730587 0.33018,-1.104537 0.7752,-2.844647 2.28141,-7.479161 3.37148,-10.369702 0.74174,-1.966964 0.94531,-2.473503 1.49597,-3.722061 0.14021,-0.317965 0.25527,-0.623207 0.25527,-0.679062 0,-0.391579 4.20313,-9.118905 5.45972,-11.33639 0.35975,-0.634856 0.81704,-1.446168 1.01604,-1.802308 4.84536,-8.67214 12.02068,-17.920227 18.87071,-24.321922 7.91304,-7.395125 16.01994,-12.358598 24.28787,-14.869535 3.16799,-0.962112 5.47804,-1.396736 8.89076,-1.674678 4.2256,-0.344142 8.52084,0.168236 12.45453,1.485764 0.66145,0.221537 1.32133,0.40335 1.46703,0.40335 0.16451,0 0.41069,-0.371719 0.65013,-0.978596 0.2121,-0.537553 0.56513,-1.380206 0.78458,-1.873797 0.21946,-0.493581 0.39996,-0.940693 0.39996,-0.993908 0,-0.05324 0.10508,-0.338511 0.23486,-0.633107 0.12975,-0.294594 0.55799,-1.338066 0.95136,-2.3196951 0.39337,-0.9816301 0.78284,-1.9387049 0.86456,-2.1256845 0.0817,-0.1869707 0.38448,-0.9522907 0.67225,-1.7002006 0.28778,-0.7479099 0.63352,-1.5996266 0.76926,-1.894221 0.13575,-0.2945945 0.24678,-0.6114961 0.24678,-0.7028858 0,-0.3656116 -3.88221,-1.5703572 -6.62892,-2.0575954 -0.60768,-0.1077977 -1.52638,-0.28553203 -2.04058,-0.39484599 -0.66311,-0.14097979 -2.93127,-0.21131715 -5.23846,-0.21103836 z M 283.21909,23.306369 c -0.71291,-0.0092 -1.4424,0.03092 -2.51712,0.115724 -2.29309,0.180862 -5.94036,0.79539 -7.05439,1.187927 -0.23373,0.08234 -0.88399,0.28182 -1.44491,0.444201 -0.56092,0.162372 -1.09231,0.360262 -1.18112,0.439086 -0.0888,0.07886 -0.26917,0.142958 -0.39995,0.142958 -0.13077,0 -0.51643,0.122546 -0.85777,0.272305 -0.34133,0.149772 -0.77458,0.331593 -0.96157,0.405059 -0.81148,0.318834 -4.35742,2.071492 -5.52438,2.729851 -3.4383,1.939769 -8.20284,5.46976 -11.22916,8.320603 -2.65288,2.499025 -4.31153,4.203835 -6.23748,6.411081 -1.22649,1.405597 -4.13958,5.037845 -4.67342,5.827319 -0.15806,0.233721 -0.56237,0.807277 -0.89861,1.274727 -0.33626,0.467441 -1.26511,1.844675 -2.06442,3.060025 -0.79931,1.215359 -1.59748,2.416985 -1.77338,2.670293 -0.17591,0.253308 -0.31995,0.500832 -0.31995,0.549716 0,0.04889 -0.31732,0.606285 -0.7046,1.238982 -2.03235,3.320313 -4.76667,8.838147 -6.50808,13.133598 -0.43584,1.075119 -0.87519,2.147244 -0.9769,2.380963 -0.10161,0.23373 -0.24155,0.577174 -0.31145,0.764153 -1.25449,3.354967 -2.83038,8.246091 -3.3136,10.284612 -0.12186,0.514189 -0.3335,1.354501 -0.46973,1.868692 -0.13622,0.51418 -0.37472,1.509604 -0.531,2.210774 -0.15623,0.701161 -0.3556,1.579829 -0.44248,1.953788 -0.29016,1.248497 -0.81775,4.437495 -1.36323,8.244017 -0.43537,3.038057 -0.59147,5.929817 -0.58885,10.878577 0.004,6.68902 0.4078,10.55115 1.68487,16.14767 0.65762,2.88182 1.92565,6.78177 2.93068,9.00989 3.80684,8.43966 8.99626,14.20083 15.60816,17.32709 3.02584,1.43068 4.80885,1.95134 8.66951,2.53243 1.4394,0.21665 5.1467,0.23047 6.59658,0.0237 6.20863,-0.88474 10.35552,-2.27915 15.84133,-5.32696 9.03298,-5.01853 17.84503,-13.57305 25.13031,-24.39509 0.71602,-1.06362 1.30026,-1.99088 1.30026,-2.06103 0,-0.0701 0.10839,-0.21752 0.23997,-0.32676 0.13162,-0.10924 0.36255,-0.44249 0.51398,-0.74202 0.15143,-0.29953 0.36905,-0.69689 0.48334,-0.88159 0.91622,-1.48087 1.37949,-2.28555 2.2482,-3.91267 1.63776,-3.06754 3.4838,-6.81897 3.4838,-7.07823 0,-0.0717 -0.24757,-0.24095 -0.55141,-0.37612 -0.65904,-0.29318 -4.89086,-2.00527 -5.73712,-2.32139 -0.32721,-0.12223 -0.66683,-0.28739 -0.75564,-0.36592 -0.0888,-0.0785 -0.35727,-0.14046 -0.59568,-0.13785 -0.36426,0.003 -0.51169,0.17266 -0.92412,1.06199 -0.6349,1.36896 -2.72539,5.22447 -3.44977,6.36172 -0.30975,0.48632 -0.56333,0.95817 -0.56333,1.04837 0,0.0902 -0.0612,0.19005 -0.13445,0.22124 -0.0732,0.0312 -0.4683,0.59138 -0.87817,1.2458 -1.52717,2.43829 -4.76539,6.73184 -6.79741,9.0099 -1.43412,1.60773 -4.85647,4.93667 -6.38384,6.21023 -1.44373,1.20383 -4.57907,3.5621 -4.73471,3.5621 -0.0393,0 -0.51888,0.30001 -1.06708,0.66544 -2.07941,1.38612 -6.8228,3.60013 -8.80226,4.1084 -0.28785,0.0739 -1.09775,0.28026 -1.79891,0.4595 -2.37451,0.60708 -4.01231,0.76257 -7.05439,0.66886 -2.93094,-0.0903 -4.44949,-0.32785 -6.45873,-1.00924 -5.92263,-2.00853 -11.04408,-6.8959 -14.25685,-13.60671 -0.52656,-1.09985 -0.95647,-2.07483 -0.95647,-2.16823 0,-0.0934 -0.0755,-0.304 -0.16848,-0.46633 -0.093,-0.16234 -0.4062,-1.02176 -0.6944,-1.90953 -1.27734,-3.93474 -1.62716,-5.74985 -2.38096,-12.32349 -0.21961,-1.91521 -0.12962,-7.86227 0.16679,-10.96367 0.18784,-1.965317 0.51551,-4.264327 0.94287,-6.628925 0.12668,-0.701161 0.31747,-1.760847 0.42377,-2.353732 0.10636,-0.592892 0.31218,-1.5099 0.45782,-2.038878 0.14563,-0.528967 0.33396,-1.306739 0.41866,-1.72743 0.0848,-0.4207 0.22251,-0.95591 0.30635,-1.189639 0.0838,-0.233719 0.28436,-0.883984 0.44589,-1.444914 0.72169,-2.506352 2.30485,-7.036893 2.96641,-8.489099 0.18938,-0.415743 0.34549,-0.794999 0.34549,-0.844145 0,-0.276427 3.15006,-6.764189 4.09308,-8.429534 2.64318,-4.667791 5.63127,-8.987875 8.9333,-12.917454 0.81838,-0.973911 6.04607,-6.201768 6.94547,-6.945477 1.53086,-1.265847 4.52961,-3.4498 6.04007,-4.399425 3.25179,-2.044437 7.9871,-4.075141 10.8258,-4.641092 0.54049,-0.107754 1.2871,-0.264017 1.66106,-0.348889 0.37396,-0.08487 1.84321,-0.203492 3.26424,-0.263791 2.82694,-0.11989 4.9184,0.07503 6.93528,0.650125 2.05896,0.587089 2.26303,0.59019 2.46605,0.03067 0.097,-0.267147 0.24858,-0.638447 0.33697,-0.825426 0.0884,-0.186973 0.78065,-1.907659 1.54024,-3.824179 0.75956,-1.916511 1.52852,-3.809092 1.70701,-4.205403 0.17848,-0.39631 0.32335,-0.766715 0.32335,-0.823719 0,-0.05699 0.11068,-0.345327 0.24507,-0.639921 0.2665,-0.584152 0.77607,-1.827744 0.77607,-1.894213 0,-0.05132 -1.71546,-0.648494 -2.63454,-0.917331 -1.17687,-0.344227 -2.30741,-0.535348 -4.76022,-0.808401 -1.00309,-0.11167 -1.69871,-0.171173 -2.41161,-0.180401 z m -141.97625,7.428812 -0.42889,0.939447 c -0.23648,0.516961 -0.43058,0.98495 -0.43058,1.038165 0,0.05324 -0.10763,0.336813 -0.23827,0.631407 -0.1306,0.294595 -0.47941,1.148011 -0.77608,1.89592 -0.29668,0.747902 -0.64159,1.589929 -0.76584,1.87039 -0.12428,0.280468 -0.81083,2.001156 -1.52661,3.824176 -0.7158,1.823029 -1.4504,3.638915 -1.63213,4.035216 -0.18175,0.396311 -0.33018,0.766731 -0.33018,0.823721 0,0.05699 -0.10687,0.345325 -0.23656,0.639919 -0.12975,0.294595 -0.55799,1.338066 -0.95136,2.319697 -0.39337,0.981629 -0.78113,1.936996 -0.86286,2.123976 -0.0817,0.18697 -0.38437,0.952291 -0.67227,1.7002 -0.28789,0.74791 -0.67198,1.685127 -0.85436,2.081429 -0.18237,0.396309 -0.33186,0.766739 -0.33186,0.823726 0,0.05699 -0.1089,0.345327 -0.24166,0.63992 -0.13281,0.294595 -0.52455,1.261361 -0.86968,2.149499 -0.34514,0.888132 -0.72953,1.845216 -0.85435,2.125687 -0.12493,0.280459 -1.03416,2.536353 -2.02016,5.013804 -0.986,2.47744 -1.86829,4.637039 -1.9623,4.799375 -0.094,0.162338 -0.17189,0.377472 -0.17189,0.478229 0,0.100739 -0.19176,0.602085 -0.42548,1.113049 -0.23372,0.510968 -0.42377,0.971304 -0.42377,1.024546 0,0.05324 -0.10749,0.338512 -0.23827,0.633107 -0.28927,0.65157 -2.00569,4.893145 -2.31459,5.720107 -0.12224,0.327209 -0.2857,0.666829 -0.36421,0.755639 -0.0785,0.08882 -0.14296,0.265612 -0.14296,0.393137 0,0.127535 -0.19175,0.651441 -0.42547,1.162405 -0.23372,0.510966 -0.42378,0.971305 -0.42378,1.024546 0,0.05324 -0.10843,0.338513 -0.23997,0.633106 -0.13154,0.294595 -0.55548,1.338066 -0.94285,2.319697 -0.38738,0.981641 -0.77516,1.938706 -0.86117,2.125686 -0.0861,0.186979 -0.58065,1.410799 -1.09942,2.71964 -0.51878,1.308839 -1.01296,2.532659 -1.09774,2.719639 -0.0847,0.18697 -0.74246,1.83096 -1.46193,3.653989 -0.71946,1.823021 -1.40247,3.543713 -1.5181,3.824173 -0.11562,0.28047 -0.30587,0.74068 -0.42206,1.02116 -0.11622,0.28045 -0.93235,2.30626 -1.81424,4.50322 -0.8819,2.197 -1.67372,4.14779 -1.75807,4.33476 -0.0844,0.18698 -0.43423,1.06734 -0.77777,1.95549 -0.34353,0.88814 -0.72628,1.8435 -0.85095,2.12398 -0.12466,0.28045 -0.62031,1.50429 -1.10284,2.71964 -0.48252,1.21535 -0.97833,2.43919 -1.10113,2.71964 -0.12278,0.28048 -0.50581,1.23754 -0.85095,2.12568 -0.34513,0.88814 -0.7308,1.8435 -0.85606,2.12398 -0.12527,0.28045 -0.46275,1.12247 -0.75053,1.87039 -0.28777,0.74791 -0.59306,1.51152 -0.67906,1.6985 -0.086,0.18699 -0.58361,1.41082 -1.10624,2.71965 -0.52263,1.30885 -1.03465,2.57102 -1.136874,2.80475 -0.327908,0.74972 -0.460104,1.07951 -0.990511,2.46604 -0.286097,0.74791 -0.587943,1.51151 -0.670548,1.6985 -0.08261,0.18698 -0.388982,0.9523 -0.682462,1.70021 -0.610955,1.55695 -0.739807,1.87479 -0.993916,2.46435 -0.83991,1.94876 -1.56235,3.84759 -1.56235,4.10671 0,0.30328 1.267895,0.31314 40.427031,0.31314 h 40.42534 l 0.18381,-0.38293 c 0.1011,-0.21035 0.4247,-0.99314 0.71821,-1.74104 0.29347,-0.7479 0.60097,-1.51323 0.68245,-1.70022 0.0815,-0.18696 0.46346,-1.14404 0.84925,-2.12567 0.3858,-0.98162 0.7715,-1.93699 0.85776,-2.12398 0.0864,-0.18697 1.26951,-3.13149 2.62944,-6.54381 1.35994,-3.41234 2.548,-6.37603 2.63966,-6.58638 0.32174,-0.73844 0.49216,-1.16051 1.02115,-2.50861 0.29348,-0.74791 0.59998,-1.51151 0.68076,-1.69849 0.0808,-0.18697 0.5751,-1.41081 1.09773,-2.71966 1.0891,-2.72751 1.16156,-2.90837 1.42108,-3.48549 0.10509,-0.23372 0.38942,-0.96068 0.63141,-1.6151 0.24199,-0.65442 0.54405,-1.41804 0.67055,-1.6985 0.40015,-0.88723 1.6134,-3.9294 1.6134,-4.04544 0,-0.0611 0.18543,-0.51415 0.41185,-1.00752 0.22645,-0.49338 0.69321,-1.62386 1.03817,-2.51202 0.34499,-0.88813 0.72574,-1.8435 0.84585,-2.12397 0.12009,-0.28046 0.4589,-1.12248 0.75394,-1.870395 0.29506,-0.74791 0.60756,-1.513222 0.69268,-1.7002 0.085,-0.18698 0.65496,-1.600846 1.26792,-3.143415 0.61296,-1.542561 1.18766,-2.958153 1.27643,-3.145124 0.0888,-0.18698 0.39637,-0.952292 0.68246,-1.700201 0.49386,-1.291012 0.62413,-1.612723 1.01774,-2.506903 0.0926,-0.210349 0.3656,-0.918141 0.60759,-1.572563 0.24198,-0.654419 0.54398,-1.419741 0.67053,-1.7002 0.12657,-0.28047 0.65858,-1.580998 1.18283,-2.889837 0.52426,-1.30884 1.02241,-2.532661 1.10624,-2.71964 0.0838,-0.186971 0.43424,-1.065648 0.77777,-1.953788 0.34354,-0.88815 0.72569,-1.845207 0.85096,-2.125676 0.12528,-0.28047 0.46446,-1.120779 0.75223,-1.86869 0.28778,-0.747909 0.59689,-1.532399 0.68758,-1.74275 0.34052,-0.790015 0.50052,-1.182892 1.02284,-2.506911 0.29503,-0.74791 0.64376,-1.601326 0.77437,-1.89592 0.13059,-0.294593 0.23656,-0.582922 0.23656,-0.639912 0,-0.05699 0.1495,-0.42741 0.33187,-0.823719 0.18238,-0.396301 0.56817,-1.331818 0.85607,-2.079728 0.28789,-0.74791 0.59135,-1.51323 0.67395,-1.7002 0.0826,-0.186989 0.39075,-0.95231 0.68588,-1.70021 0.29511,-0.74791 0.63897,-1.588221 0.76414,-1.86869 0.12517,-0.280461 0.47343,-1.160838 0.77436,-1.955487 0.30096,-0.794669 0.72964,-1.848248 0.95138,-2.34183 0.22174,-0.493582 0.40335,-0.940666 0.40335,-0.993908 0,-0.05324 0.10598,-0.338519 0.23655,-0.633114 0.1306,-0.294594 0.47933,-1.14802 0.77438,-1.895921 0.52231,-1.324019 0.68231,-1.716887 1.02285,-2.506903 0.0908,-0.210348 0.39976,-0.994838 0.68586,-1.742748 0.52599,-1.374978 0.65439,-1.695784 0.98881,-2.464362 0.10162,-0.23372 0.53568,-1.304135 0.96498,-2.379255 0.42929,-1.07512 0.84487,-2.107202 0.92242,-2.294174 1.18829,-2.865072 2.90174,-7.230084 2.90174,-7.389659 0,-0.119384 -12.83855,-0.175296 -40.44915,-0.175296 z m -24.63338,0.117426 c -7.35304,-0.007 -17.464499,-0.0051 -28.561355,0.007 l -40.352147,0.04252 -0.663744,1.61511 c -0.364503,0.888141 -0.706162,1.730159 -0.759054,1.870389 -0.05288,0.140239 -0.508718,1.260679 -1.012625,2.491584 -0.503915,1.230913 -0.915632,2.284527 -0.915632,2.34012 0,0.05559 -0.144432,0.425711 -0.321659,0.822022 -0.177229,0.396301 -0.56432,1.331818 -0.859464,2.079727 -0.295152,0.74791 -0.602686,1.513221 -0.68416,1.700202 -0.08148,0.186979 -0.46345,1.142346 -0.849251,2.123976 -0.385802,0.98163 -0.770269,1.938705 -0.854357,2.125675 -0.08409,0.18698 -0.581912,1.410809 -1.104537,2.719649 -0.522625,1.308839 -1.017217,2.53266 -1.101131,2.71964 -0.08391,0.186979 -0.43424,1.065638 -0.777772,1.953789 -0.34353,0.888139 -0.722334,1.845214 -0.842436,2.125675 -0.120107,0.280468 -0.4606,1.120779 -0.755648,1.868688 -0.295039,0.747902 -0.618843,1.551581 -0.719904,1.7853 -0.33161,0.766898 -0.457411,1.078222 -1.410878,3.483801 -0.518764,1.30884 -1.017427,2.532669 -1.106245,2.719641 -0.08882,0.186979 -0.394655,0.952299 -0.680763,1.7002 -0.538264,1.407096 -0.674269,1.744154 -0.992208,2.464361 -0.103166,0.233721 -0.421885,1.03739 -0.707991,1.785299 -0.286109,0.747911 -0.589652,1.513222 -0.675655,1.700201 -0.08601,0.186979 -0.585312,1.4108 -1.107937,2.71964 -0.522625,1.308841 -1.019013,2.532668 -1.102839,2.71965 -0.08391,0.18697 -0.432533,1.065638 -0.776064,1.953779 -0.343529,0.88814 -0.727397,1.845213 -0.852657,2.125683 -0.125267,0.280461 -0.46277,1.12248 -0.750542,1.870391 -0.287779,0.74791 -0.594756,1.511531 -0.680761,1.698501 -0.08601,0.186981 -0.583613,1.4108 -1.106237,2.71964 -1.061378,2.658087 -1.151435,2.882396 -1.417683,3.485501 -0.103165,0.233719 -0.421886,1.03569 -0.707993,1.783601 -0.286107,0.747908 -0.589084,1.513221 -0.673957,1.700199 -0.08478,0.18698 -0.435939,1.067347 -0.77947,1.955487 -0.34353,0.888142 -0.726639,1.843512 -0.85095,2.123972 -0.124313,0.28047 -0.655144,1.581 -1.179424,2.88984 -0.524279,1.30884 -1.018655,2.53266 -1.099431,2.71964 -0.08078,0.18697 -0.387272,0.95229 -0.680761,1.7002 -0.517623,1.31911 -0.675263,1.70448 -1.021139,2.50691 -0.09068,0.21035 -0.398062,0.99484 -0.684168,1.74275 -0.286099,0.74791 -0.595201,1.53241 -0.685869,1.74275 -0.09066,0.21034 -0.237806,0.5538 -0.328464,0.76416 -0.09065,0.21035 -0.897787,2.21866 -1.792104,4.46238 -0.894319,2.24373 -1.6962801,4.23287 -1.7836004,4.41986 -0.087323,0.18696 -0.3946811,0.95059 -0.6824617,1.6985 -0.2877715,0.74791 -0.625281,1.58992 -0.7505408,1.8704 -0.1252661,0.28045 -0.511079,1.23582 -0.8560564,2.12397 -0.3449775,0.88813 -0.8117203,2.01863 -1.038165,2.51201 -0.2264359,0.49335 -0.4118547,0.99406 -0.4118547,1.11305 0,0.11893 -0.063002,0.28901 -0.1395603,0.37782 -0.076598,0.0888 -0.353246,0.73524 -0.6160876,1.43641 -0.4355659,1.16194 -0.7179181,1.86279 -1.126662,2.80474 -0.081123,0.18697 -0.3826641,0.95227 -0.67055,1.70019 -0.2878935,0.74791 -0.6719857,1.68512 -0.8543561,2.08142 -0.1823705,0.39631 -0.3318728,0.76676 -0.3318728,0.82375 0,0.12785 -0.4462919,1.17727 -0.7760629,1.82612 -0.1345144,0.26468 -0.2450746,0.5506 -0.2450746,0.63652 h 0.00178 c 0,0.0946 16.0024013,0.15657 40.5206363,0.15657 h 40.520608 l 0.258684,-0.55311 c 0.142392,-0.30383 0.504057,-1.20168 0.805003,-1.99634 0.300938,-0.79465 0.729629,-1.84824 0.951368,-2.34182 0.221746,-0.49359 0.40335,-0.94068 0.40335,-0.9939 0,-0.0533 0.105113,-0.33852 0.234861,-0.63311 0.129757,-0.2946 0.558003,-1.33808 0.951367,-2.31971 0.393375,-0.98162 0.782828,-1.9387 0.864562,-2.12566 0.08172,-0.187 0.382777,-0.95232 0.670557,-1.70022 0.287772,-0.7479 0.626982,-1.58821 0.752242,-1.86868 0.125266,-0.28048 0.509108,-1.23755 0.854349,-2.12567 0.345255,-0.88816 0.775348,-1.93872 0.954772,-2.33503 0.179436,-0.39632 0.325068,-0.76643 0.325068,-0.82202 0,-0.0556 0.428812,-1.14586 0.951358,-2.42352 0.522547,-1.27764 1.104337,-2.70489 1.293452,-3.17234 0.189114,-0.46743 0.477959,-1.15605 0.641619,-1.53001 0.163654,-0.37395 0.510138,-1.25431 0.769258,-1.95549 0.259122,-0.70115 0.536837,-1.34759 0.617788,-1.43642 0.08087,-0.0888 0.146365,-0.26559 0.146365,-0.39313 0,-0.12752 0.191756,-0.64974 0.425475,-1.16069 0.233728,-0.51099 0.425475,-0.97302 0.425475,-1.02626 0,-0.0533 0.103931,-0.33681 0.231463,-0.6314 0.127534,-0.2946 0.367234,-0.87956 0.532698,-1.30026 0.165466,-0.4207 0.469244,-1.14766 0.675655,-1.6151 0.20642,-0.46744 0.589886,-1.42452 0.850951,-2.12568 0.261071,-0.70116 0.54033,-1.34759 0.621195,-1.43642 0.08087,-0.0888 0.146364,-0.26559 0.146364,-0.39313 0,-0.12751 0.191755,-0.64974 0.425474,-1.16071 0.233722,-0.51096 0.425476,-0.973 0.425476,-1.02623 0,-0.0533 0.106727,-0.33682 0.238268,-0.63142 0.131535,-0.29459 0.55717,-1.33976 0.94455,-2.32139 0.38738,-0.981629 0.77355,-1.936996 0.85946,-2.123976 0.0859,-0.186978 0.39125,-0.952291 0.67736,-1.700199 0.28611,-0.747911 0.59221,-1.513231 0.68077,-1.700212 0.0886,-0.186978 0.78051,-1.907656 1.53681,-3.824176 0.75631,-1.916519 1.52292,-3.809095 1.70362,-4.205403 0.18069,-0.39631 0.32846,-0.766732 0.32846,-0.823721 0,-0.05699 0.10265,-0.345327 0.22975,-0.639921 0.39112,-0.906596 0.60299,-1.424166 2.25674,-5.549909 0.88062,-2.19698 1.67088,-4.146063 1.75636,-4.333043 0.0855,-0.18698 0.43687,-1.067338 0.78116,-1.955488 0.3443,-0.888141 0.75969,-1.920222 0.92244,-2.294173 0.16276,-0.373959 0.51079,-1.254327 0.77436,-1.955487 0.2636,-0.701162 0.5412,-1.347591 0.61779,-1.436409 0.0766,-0.08882 0.13956,-0.258843 0.13956,-0.37782 0,-0.118976 0.18543,-0.61967 0.41187,-1.113042 0.22644,-0.493373 0.69489,-1.623868 1.03985,-2.512009 0.34499,-0.888149 0.72911,-1.843525 0.85436,-2.123976 0.12526,-0.280478 0.46276,-1.122498 0.75054,-1.870397 0.28777,-0.747911 0.59053,-1.513223 0.67226,-1.700202 0.0817,-0.186972 0.46934,-1.142346 0.86117,-2.123977 0.39182,-0.981629 0.77868,-1.938695 0.85946,-2.125675 0.0807,-0.18698 0.5734,-1.410809 1.09602,-2.719648 0.52262,-1.308841 1.01818,-2.532661 1.10114,-2.719641 0.0829,-0.18697 0.43253,-1.065646 0.77606,-1.953787 0.34352,-0.88814 0.72739,-1.845207 0.85265,-2.125675 0.12527,-0.280462 0.46277,-1.120781 0.75054,-1.868691 0.28778,-0.747909 0.59307,-1.513239 0.67907,-1.700209 0.0861,-0.18698 0.58531,-1.410791 1.10793,-2.719639 0.52263,-1.308841 1.01683,-2.532662 1.09944,-2.719642 0.0826,-0.186978 0.46525,-1.144045 0.84925,-2.125674 0.38398,-0.98163 0.77358,-1.919109 0.86626,-2.084835 0.12047,-0.215413 0.107,-0.325867 -0.0476,-0.384633 -0.0595,-0.02257 -4.6539,-0.03721 -12.00694,-0.04427 z m 160.55766,19.451061 c -0.91061,-0.02091 -1.84051,0.02866 -2.78602,0.15147 -6.45051,0.837896 -13.38956,5.031162 -19.14303,11.564453 -5.91588,6.717751 -10.17579,14.59086 -12.7932,23.647958 -0.60652,2.098752 -0.7295,2.597998 -1.18964,4.816387 -0.58574,2.824083 -0.96981,5.945678 -1.18111,9.603854 -0.11386,1.97137 0.25133,7.35963 0.60929,9.00136 0.0925,0.42404 0.24789,1.15448 0.34547,1.62191 0.32187,1.54168 0.97812,3.70896 1.44833,4.78407 0.12885,0.29459 0.23316,0.59184 0.23316,0.66033 0,0.27355 1.45476,2.96884 2.32991,4.31602 1.07775,1.65909 3.4102,4.05121 4.93041,5.05807 1.94214,1.28631 3.39492,1.89347 5.99921,2.50862 1.09893,0.25955 5.21339,0.33444 6.09963,0.11066 0.33804,-0.0855 1.03454,-0.24756 1.54874,-0.3608 2.57606,-0.56729 5.82459,-1.94188 8.26954,-3.49912 5.30319,-3.37771 10.67883,-9.03484 14.5581,-15.31883 0.53322,-0.86377 0.97009,-1.61634 0.97009,-1.67299 0,-0.0567 0.14404,-0.30665 0.31995,-0.5548 0.52674,-0.74313 2.30213,-4.37882 3.29149,-6.73955 3.59913,-8.587985 5.31682,-18.009458 4.7381,-25.986382 -0.39167,-5.398482 -1.49357,-9.702568 -3.45999,-13.508012 -3.3266,-6.437744 -8.76403,-10.058342 -15.13843,-10.204628 z m -105.34619,3.931399 c 16.86959,-0.0237 30.72738,0.01473 30.79596,0.08513 0.10408,0.106688 -0.64068,2.296527 -1.19983,3.52635 -0.0849,0.18698 -0.47027,1.144054 -0.85606,2.125684 -0.38582,0.981629 -0.77183,1.936998 -0.85777,2.123976 -0.0859,0.186972 -0.39298,0.952291 -0.68075,1.700201 -0.28778,0.747909 -0.63765,1.609099 -0.77777,1.912938 l -0.25359,0.551415 h -12.29285 -12.29286 l -0.7148,1.827849 c -0.39396,1.005001 -0.82678,2.067651 -0.95988,2.362245 -0.13308,0.294595 -0.24167,0.582923 -0.24167,0.639912 0,0.05699 -0.14442,0.427419 -0.32165,0.823728 -0.17723,0.396301 -0.56432,1.333518 -0.85946,2.081428 -0.29516,0.74791 -0.60318,1.511521 -0.68588,1.6985 -0.0827,0.186981 -0.43253,1.067349 -0.77607,1.955489 -0.34352,0.888139 -0.72232,1.843516 -0.84243,2.123977 -0.12008,0.280468 -0.46061,1.122477 -0.75563,1.870387 -0.6315,1.600795 -0.75075,1.898021 -0.99563,2.464362 -0.10101,0.233729 -0.42472,1.037382 -0.71821,1.785294 -0.29347,0.747909 -0.59984,1.513229 -0.68245,1.700208 -0.0826,0.18698 -0.38447,0.950584 -0.67057,1.698493 -0.53827,1.407088 -0.67425,1.745853 -0.9922,2.466061 -0.10316,0.23372 -0.42189,1.03569 -0.70799,1.7836 -0.28609,0.747911 -0.59144,1.51322 -0.67736,1.700201 -0.086,0.186979 -0.47196,1.144045 -0.85777,2.125676 -0.38579,0.981629 -0.76907,1.937005 -0.85264,2.123976 -0.0837,0.186979 -0.38788,0.952303 -0.67566,1.700203 -0.28777,0.74791 -0.62527,1.58823 -0.75055,1.8687 -0.12528,0.28046 -0.50921,1.23753 -0.85435,2.12568 -0.34513,0.88815 -0.73686,1.85491 -0.86968,2.1495 -0.13278,0.2946 -0.24166,0.58293 -0.24166,0.63991 0,0.057 -0.14951,0.42741 -0.33187,0.82373 -0.18237,0.39631 -0.56647,1.33352 -0.85436,2.08143 -0.28788,0.74791 -0.59322,1.51152 -0.67905,1.6985 -0.0859,0.18697 -0.58575,1.44916 -1.10964,2.80473 -0.52392,1.35559 -1.0545,2.69447 -1.17943,2.97494 -0.12491,0.28047 -0.50741,1.23753 -0.85094,2.12568 -0.34354,0.88813 -0.71005,1.78599 -0.81352,1.99633 l -0.1872,0.38293 h -6.17622 c -3.89365,0 -6.17621,-0.0607 -6.17621,-0.16509 0,-0.14769 0.79467,-2.27003 1.17941,-3.15022 0.0817,-0.18697 0.46935,-1.14234 0.86118,-2.12398 0.39183,-0.98163 0.77794,-1.9387 0.85775,-2.12568 0.46466,-1.08842 1.5215,-3.7794 1.5215,-3.87353 0,-0.0611 0.18216,-0.51414 0.40336,-1.00753 0.22118,-0.49337 0.53742,-1.24206 0.70288,-1.66276 0.16547,-0.4207 0.39366,-0.99426 0.50718,-1.27472 0.11347,-0.28048 0.30637,-0.77733 0.42887,-1.10454 0.1225,-0.32722 0.28739,-0.66682 0.36592,-0.75564 0.0785,-0.0888 0.14124,-0.26918 0.14124,-0.39996 0,-0.13078 0.1225,-0.51641 0.27232,-0.85776 0.41952,-0.95615 0.52007,-1.20181 1.09602,-2.66177 0.29503,-0.74791 0.63554,-1.58823 0.75566,-1.868699 0.12007,-0.280459 0.5007,-1.237543 0.84584,-2.125683 0.56876,-1.463641 0.84556,-2.141161 1.28151,-3.143415 0.0812,-0.186981 0.42915,-1.067349 0.77268,-1.955488 0.34352,-0.888141 0.72399,-1.843507 0.84584,-2.123978 0.12187,-0.28046 0.65445,-1.619344 1.18454,-2.974925 0.53006,-1.35559 1.11105,-2.789665 1.29004,-3.185967 0.17897,-0.39631 0.32506,-0.766731 0.32506,-0.823718 0,-0.05699 0.1089,-0.345328 0.24167,-0.639921 0.13279,-0.294594 0.52454,-1.261368 0.86967,-2.149508 0.34513,-0.888131 0.72912,-1.845207 0.85436,-2.125677 0.1253,-0.280459 0.46276,-1.12078 0.75053,-1.868689 0.28779,-0.747911 0.59249,-1.513221 0.67736,-1.700201 0.0848,-0.18698 0.43594,-1.067347 0.77948,-1.955488 0.34354,-0.88814 0.72233,-1.843515 0.84245,-2.123975 0.12009,-0.280469 0.46059,-1.122488 0.75564,-1.870398 0.29504,-0.747902 0.60316,-1.513222 0.68586,-1.700202 0.0827,-0.18697 0.1998,-0.511253 0.25869,-0.721602 l 0.10726,-0.382935 h -12.25031 c -6.73749,0 -12.25031,-0.0333 -12.25031,-0.07486 0,-0.0724 2.04089,-5.208636 2.38435,-6.000915 0.0913,-0.210351 0.23952,-0.555511 0.33018,-0.765861 0.0906,-0.21035 0.39806,-0.993141 0.68416,-1.74105 0.59598,-1.557914 0.77065,-1.976357 1.16411,-2.804747 l 0.28251,-0.595663 z m -68.09318,0.04252 c 6.6036,-0.0027 7.44353,0.02623 7.35563,0.255289 -0.0545,0.142216 -1.4537,2.073836 -3.10938,4.292209 -4.49267,6.019483 -11.086405,14.853702 -11.448707,15.337559 -0.175006,0.233729 -1.621654,2.18282 -3.214902,4.333053 -1.593258,2.150238 -3.112866,4.177728 -3.376577,4.504937 -0.263724,0.327211 -1.124215,1.474341 -1.91294,2.549452 -0.788724,1.075121 -1.528356,2.070536 -1.642332,2.210775 -0.113996,0.140231 -0.970529,1.287353 -1.904435,2.549452 -0.933904,1.262101 -1.812537,2.44757 -1.952088,2.634549 -0.13955,0.186971 -3.021989,4.050203 -6.404266,8.584398 -3.382276,4.5342 -6.387972,8.56127 -6.67997,8.95032 -0.291996,0.38906 -0.684395,0.91632 -0.871375,1.17091 -0.186979,0.25459 -0.976228,1.31288 -1.75466,2.35204 -0.778435,1.03914 -1.887216,2.53158 -2.464363,3.317 -0.577156,0.78544 -1.278471,1.7161 -1.558942,2.06781 -0.280461,0.35173 -0.993411,1.29574 -1.582774,2.09846 l -1.070493,1.46023 h -6.026447 -6.024738 l 0.04252,-34.293369 0.04252,-34.293381 h 5.949853 5.949862 l 0.04252,23.840287 c 0.02806,15.514955 0.10203,23.838563 0.211038,23.838563 0.09213,0 0.544112,-0.51604 1.00413,-1.14708 1.042756,-1.430437 7.466044,-10.054478 8.261034,-11.091301 0.322575,-0.4207 2.037354,-2.714953 3.810567,-5.098914 1.773205,-2.383952 3.291662,-4.413924 3.374878,-4.510045 0.08321,-0.09611 0.680736,-0.899572 1.327489,-1.786999 0.646743,-0.887425 1.498424,-2.033763 1.892514,-2.546044 0.394095,-0.512272 2.022418,-2.689986 3.619951,-4.840218 1.597537,-2.150239 3.049525,-4.10103 3.225108,-4.334751 2.218564,-2.953238 2.871354,-3.83148 3.231912,-4.344962 0.233729,-0.332865 0.50179,-0.695427 0.595672,-0.806703 0.0939,-0.111275 1.311106,-1.733156 2.706028,-3.602936 1.394924,-1.869768 2.619144,-3.454277 2.71964,-3.52295 0.100503,-0.06867 3.53631,-0.125901 7.636453,-0.12764 z m 170.34361,7.828773 c 2.06354,-0.0078 2.72886,0.05038 3.48549,0.30804 3.84249,1.308632 6.89507,4.527675 8.40742,8.861813 0.1631,0.467441 0.36219,1.002657 0.4408,1.189637 0.14104,0.335645 0.4435,1.670889 0.86796,3.824177 0.27454,1.392919 0.28636,7.518459 0.0171,8.92308 -0.1075,0.560932 -0.32465,1.748111 -0.48164,2.636251 -0.49193,2.782893 -1.5811,6.518349 -2.46435,8.453366 -0.18091,0.39631 -0.32848,0.771053 -0.32848,0.832224 0,0.32437 -2.50982,5.033292 -3.4906,6.548932 -3.37845,5.22086 -7.89598,9.45878 -12.17542,11.42148 -1.65876,0.76077 -2.65854,1.07576 -4.39092,1.38025 -1.59777,0.28085 -2.71266,0.29432 -3.99435,0.051 -1.29195,-0.24523 -3.00653,-0.81892 -3.51105,-1.17432 -0.24815,-0.17481 -0.50452,-0.31655 -0.57013,-0.31655 -0.11119,0 -0.98866,-0.65494 -1.93508,-1.44491 -0.87357,-0.72921 -2.44176,-2.91166 -3.15873,-4.39432 -0.98543,-2.03787 -1.41055,-3.37105 -1.98951,-6.23067 -0.30869,-1.52443 -0.30243,-8.422065 0.0104,-10.453092 0.53504,-3.475602 1.81065,-8.000462 3.06684,-10.878578 3.70729,-8.494008 9.32935,-15.040525 15.39543,-17.927861 3.05729,-1.455223 3.66323,-1.598669 6.79911,-1.609997 z m -1.36833,7.760683 c -0.70236,-0.01864 -1.43586,0.04809 -2.20057,0.199119 -1.36603,0.269716 -1.45821,0.30072 -3.06002,1.038165 -5.68497,2.617227 -11.14779,10.658449 -12.82045,18.869007 -0.87829,4.311242 -0.68663,8.702711 0.5327,12.153296 1.1401,3.22631 3.23604,5.34778 6.33959,6.41788 0.28046,0.0966 1.1938,0.18408 2.03038,0.19402 3.10336,0.0369 6.39265,-1.49548 9.54428,-4.44368 2.24772,-2.10264 5.07694,-6.284536 6.18131,-9.137515 0.19904,-0.51418 0.47765,-1.185618 0.61949,-1.492568 0.80551,-1.743091 1.47579,-4.621023 1.8704,-8.026176 0.2234,-1.927961 0.23422,-2.621009 0.063,-4.334751 -0.1906,-1.907125 -0.51483,-3.628013 -0.83053,-4.41815 -0.77451,-1.938452 -1.72168,-3.499965 -2.76219,-4.552594 -1.57145,-1.589754 -3.40025,-2.410205 -5.50736,-2.466053 z" id="path1945" inkscape:connector-curvature="0"/>
  </g>
</svg>