<svg xmlns:dc="http://purl.org/dc/elements/1.1/" xmlns:cc="http://creativecommons.org/ns#" xmlns:rdf="http://www.w3.org/1999/02/22-rdf-syntax-ns#" xmlns:svg="http://www.w3.org/2000/svg" xmlns="http://www.w3.org/2000/svg" xmlns:sodipodi="http://sodipodi.sourceforge.net/DTD/sodipodi-0.dtd" xmlns:inkscape="http://www.inkscape.org/namespaces/inkscape" width="407px" height="160px" viewBox="0 0 407 160" version="1.1" id="SVGRoot" inkscape:version="1.0.1 (3bc2e813f5, 2020-09-07)" xmlns:xlink="http://www.w3.org/1999/xlink">
 <defs id="defs963">
 </defs>
 <sodipodi:namedview id="base" pagecolor="#ffffff" bordercolor="#666666" borderopacity="1.0" inkscape:pageopacity="0.0" inkscape:pageshadow="2" inkscape:zoom="1.6236922" inkscape:cx="219.25337" inkscape:cy="18.472322" inkscape:document-units="px" inkscape:current-layer="layer1" inkscape:document-rotation="0" showgrid="false" inkscape:window-width="1920" inkscape:window-height="1001" inkscape:window-x="-9" inkscape:window-y="-9" inkscape:window-maximized="1">
 </sodipodi:namedview>
 <metadata id="metadata966">
  <rdf:RDF>
   <cc:Work rdf:about="">
    <dc:format>
     image/svg+xml
    </dc:format>
    <dc:type rdf:resource="http://purl.org/dc/dcmitype/StillImage">
    </dc:type>
    <dc:title>
    </dc:title>
   </cc:Work>
  </rdf:RDF>
 </metadata>
 <g inkscape:label="Lớp 1" inkscape:groupmode="layer" id="layer1">
  <path id="path871" style="fill:#1f419b;fill-opacity:1;stroke:none;stroke-width:0.518317;stroke-linecap:butt;stroke-linejoin:miter;stroke-miterlimit:4;stroke-dasharray:none;stroke-opacity:1" d="M 222.35717,0.14387241 C 178.61164,0.14302452 143.14839,35.897782 143.14822,80.003925 c 1.7e-4,44.106155 35.46344,79.860925 79.20895,79.860035 21.55429,-7.8e-4 41.0855,-8.69207 55.36634,-22.77535 1.49215,-1.46588 1.16043,-4.17942 0,-5.35286 l -16.27283,-16.45413 c -1.57483,-1.59243 -4.13644,-1.23009 -4.96135,-0.41207 -8.27298,8.2033 -19.45991,13.23647 -31.77097,13.23583 -25.47938,-8.5e-4 -46.13345,-21.56474 -46.13173,-48.163269 7e-5,-26.493137 20.49825,-48.011326 45.87625,-48.159144 0.0851,-2.49e-4 0.17018,-2.49e-4 0.25548,0 11.97345,-5.25e-4 22.88266,4.760301 31.08279,12.568267 0.94854,0.903182 3.31795,0.778362 4.70999,-0.630473 l 16.0833,-16.276938 c 0.76426,-0.773507 2.21117,-3.357788 0.57276,-5.060279 C 262.93691,8.6187769 243.63449,0.14456684 222.35717,0.14387241 Z M 59.97922,4.0544685 C 58.81256,4.1562865 56.306067,4.8569634 54.906575,8.8221743 53.040602,14.109118 2.1445636,150.22555 2.1445636,150.22555 c 0,0 -2.59181994,5.37756 1.3474814,5.37756 h 29.438606 c 0,0 3.194563,-0.16906 4.977848,-5.69075 l 9.341733,-28.92351 h 54.179558 l 9.56011,29.96193 c 0,0 1.14314,4.65233 5.4971,4.65233 h 30.99624 c 0,0 3.31779,-0.19755 1.24447,-4.86247 C 146.65438,146.07567 96.476667,8.1999388 96.476667,8.1999388 c 0,0 -0.826299,-4.1454703 -6.424256,-4.1454703 H 60.609692 c 0,0 -0.241585,-0.034035 -0.630472,0 z m 232.93748,0 c 0,0 -3.65924,-0.1163249 -3.65924,3.7869583 V 151.85325 c 0,0 0.004,3.74986 3.58096,3.74986 h 60.41423 c 0,0 27.15949,0.0702 41.47117,-14.24128 14.31168,-14.31169 10.40904,-35.61562 10.40904,-35.61562 0,0 -3.4141,-24.39588 -30.41114,-30.575925 0,0 24.23387,-6.829324 22.68884,-35.290056 C 395.12959,14.964381 372.63947,4.0544685 349.27201,4.0544685 Z m 29.68173,26.4757855 h 22.19846 c 0,0 18.70323,-7.88e-4 18.94719,17.319484 0.24379,17.320437 -19.59825,16.915668 -19.59825,16.915668 h -21.5474 z M 74.500719,36.604253 92.895735,94.245222 H 55.887327 Z M 322.59843,89.728878 h 25.12828 c 0,0 22.84762,0.159784 23.01025,19.919692 0.16275,19.75986 -21.9553,19.76309 -21.9553,19.76309 h -26.18323 z">
  </path>
  <path style="fill:#00aeef;fill-opacity:1;stroke:none;stroke-width:0.470472;stroke-miterlimit:4;stroke-dasharray:none;stroke-opacity:1" d="M 253.16767,79.911789 A 27.225711,27.225708 0 0 1 225.94195,107.1375 27.225711,27.225708 0 0 1 198.71624,79.911789 27.225711,27.225708 0 0 1 225.94195,52.68608 27.225711,27.225708 0 0 1 253.16767,79.911789 Z" id="path926">
  </path>
 </g>
</svg>