<svg xmlns:dc="http://purl.org/dc/elements/1.1/" xmlns:cc="http://creativecommons.org/ns#" xmlns:rdf="http://www.w3.org/1999/02/22-rdf-syntax-ns#" xmlns:svg="http://www.w3.org/2000/svg" xmlns="http://www.w3.org/2000/svg" xmlns:sodipodi="http://sodipodi.sourceforge.net/DTD/sodipodi-0.dtd" xmlns:inkscape="http://www.inkscape.org/namespaces/inkscape" width="50mm" height="9mm" viewBox="0 0 50 9" version="1.1" id="svg8" inkscape:version="0.92.3 (2405546, 2018-03-11)" sodipodi:docname="Argibank logo.svg" class="mdl-js">
    <defs id="defs2"/>
    <sodipodi:namedview id="base" pagecolor="#ffffff" bordercolor="#666666" borderopacity="1.0" inkscape:pageopacity="0.0" inkscape:pageshadow="2" inkscape:zoom="2.8" inkscape:cx="135.5166" inkscape:cy="3.9286367" inkscape:document-units="mm" inkscape:current-layer="g576" showgrid="false" inkscape:window-width="1280" inkscape:window-height="948" inkscape:window-x="-4" inkscape:window-y="-4" inkscape:window-maximized="1"/>
    <metadata id="metadata5">
      <rdf:RDF>
        <cc:Work rdf:about="">
          <dc:format>image/svg+xml</dc:format>
          <dc:type rdf:resource="http://purl.org/dc/dcmitype/StillImage"/>
          <dc:title/>
        </cc:Work>
      </rdf:RDF>
    </metadata>
    <g inkscape:label="Layer 1" inkscape:groupmode="layer" id="layer1" transform="translate(0,-288)">
      <g id="g576" transform="matrix(0.26458333,0,0,0.26458333,-14.267143,62.50232)">
        <g id="g602" transform="matrix(0.53089632,0,0,0.53089632,1.0727341,436.80974)">
          <g transform="translate(-138.80932,640.2547)" id="Layer1003">
            <path d="m 457.7455,177.5133 c 2.4335,0.4664 4.253,1.2116 5.4602,2.2353 1.6692,1.4263 2.5064,3.1742 2.5064,5.2365 0,1.5668 -0.5508,3.0706 -1.6545,4.5059 -1.1049,1.4331 -2.6153,2.4816 -4.5362,3.1414 -1.9253,0.6598 -4.8567,0.9902 -8.8083,0.9902 H 434.165 v -0.8621 h 1.3197 c 1.4646,0 2.5166,-0.4202 3.1538,-1.2553 0.3966,-0.5451 0.5945,-1.7029 0.5945,-3.4708 v -20.393 c 0,-1.9533 -0.2495,-3.1898 -0.7487,-3.6989 -0.6742,-0.6866 -1.6711,-1.0262 -2.9996,-1.0262 h -1.3197 v -0.8609 h 15.1533 c 2.8244,0 5.0937,0.1845 6.8021,0.5598 2.5838,0.5585 4.5588,1.5443 5.9186,2.9694 1.3633,1.4184 2.04,3.0505 2.04,4.8959 0,1.5837 -0.5318,3.0034 -1.5994,4.2476 -1.0676,1.2508 -2.6479,2.1792 -4.7341,2.7852 z m -13.5468,-1.2579 c 0.6381,0.1103 1.3655,0.1921 2.1837,0.2428 0.8204,0.0573 1.7175,0.0822 2.7055,0.0822 2.5109,0 4.4056,-0.245 5.6768,-0.7318 1.2645,-0.4891 2.2312,-1.2387 2.9034,-2.2468 0.6755,-1.0071 1.0103,-2.1098 1.0103,-3.3045 0,-1.8498 -0.8385,-3.4234 -2.5096,-4.7226 -1.6691,-1.3072 -4.1093,-1.9591 -7.3182,-1.9591 -1.7218,0 -3.2752,0.1685 -4.6519,0.5114 z m 0,15.0845 c 1.9951,0.4205 3.9752,0.6305 5.9199,0.6305 3.1223,0 5.5003,-0.635 7.1369,-1.9017 1.6386,-1.262 2.4571,-2.8244 2.4571,-4.6879 0,-1.2295 -0.3712,-2.4029 -1.1116,-3.5359 -0.743,-1.1342 -1.9492,-2.0288 -3.6215,-2.6797 -1.6701,-0.6541 -3.7417,-0.9787 -6.2019,-0.9787 -1.0724,0 -1.9839,0.0178 -2.7435,0.0493 -0.7576,0.0294 -1.3703,0.0845 -1.8354,0.1641 z" style="fill:#af0b35;fill-rule:evenodd;stroke:#9d1d26;stroke-width:0.1001;stroke-linecap:butt;stroke-linejoin:miter;stroke-dasharray:none" id="path335" inkscape:connector-curvature="0"/>
            <path d="m 492.8371,183.0528 h -13.5784 l -2.3726,4.9813 c -0.5878,1.225 -0.8835,2.1435 -0.8835,2.7457 0,0.4833 0.2565,0.9048 0.7608,1.269 0.5126,0.3663 1.6153,0.6037 3.2991,0.7082 v 0.8666 h -11.0407 v -0.8666 c 1.4633,-0.2281 2.413,-0.5327 2.8425,-0.9048 0.8822,-0.743 1.8555,-2.2579 2.9235,-4.5385 l 12.3352,-25.979 h 0.9071 l 12.2039,26.2587 c 0.9823,2.1085 1.8756,3.4788 2.6759,4.1094 0.8004,0.6282 1.9177,0.9787 3.3482,1.0542 v 0.8666 h -13.8368 v -0.8666 c 1.4006,-0.0609 2.3401,-0.2654 2.8359,-0.6251 0.4887,-0.354 0.7328,-0.7924 0.7328,-1.3015 0,-0.6856 -0.3441,-1.7622 -1.0329,-3.237 z m -0.7248,-1.7221 -5.9448,-12.7577 -6.105,12.7577 z" style="fill:#af0b35;fill-rule:evenodd;stroke:#9d1d26;stroke-width:0.1001;stroke-linecap:butt;stroke-linejoin:miter;stroke-dasharray:none" id="path337" inkscape:connector-curvature="0"/>
            <path d="m 506.1526,162.0551 h 9.5166 l 21.4383,23.6749 v -18.2036 c 0,-1.9377 -0.2428,-3.1493 -0.7251,-3.6336 -0.6372,-0.6509 -1.6453,-0.9759 -3.0245,-0.9759 h -1.2196 v -0.8618 h 12.2062 v 0.8618 h -1.2387 c -1.4825,0 -2.5323,0.4024 -3.157,1.2107 -0.3776,0.4957 -0.5656,1.6264 -0.5656,3.3988 v 26.6073 h -0.9306 l -23.1182,-25.4215 v 19.441 c 0,1.9365 0.2348,3.1481 0.7012,3.6324 0.6506,0.6474 1.6612,0.9746 3.02,0.9746 h 1.2442 v 0.8631 h -12.205 v -0.8631 h 1.2184 c 1.4983,0 2.558,-0.4046 3.1764,-1.2072 0.3775,-0.5024 0.5732,-1.6319 0.5732,-3.3998 v -21.9531 c -1.0183,-1.0734 -1.7928,-1.7791 -2.321,-2.1197 -0.5225,-0.3428 -1.2936,-0.662 -2.3108,-0.9542 -0.5025,-0.1373 -1.2588,-0.2093 -2.2784,-0.2093 z" style="fill:#af0b35;fill-rule:evenodd;stroke:#9d1d26;stroke-width:0.1001;stroke-linecap:butt;stroke-linejoin:miter;stroke-dasharray:none" id="path339" inkscape:connector-curvature="0"/>
            <path d="m 560.9254,176.1165 12.9278,11.5677 c 2.1196,1.9107 3.9293,3.2144 5.4264,3.901 1.5051,0.6878 3.0022,1.0804 4.5002,1.1759 v 0.8619 h -16.6749 v -0.8619 c 0.996,0 1.7163,-0.1519 2.1535,-0.4565 0.4441,-0.2989 0.6665,-0.6417 0.6665,-1.0093 0,-0.3731 -0.0841,-0.7048 -0.2495,-1.0014 -0.1618,-0.2957 -0.7012,-0.8462 -1.6127,-1.6523 l -12.1075,-10.7798 v 10.1729 c 0,1.5971 0.1138,2.6527 0.3374,3.1663 0.1752,0.389 0.5359,0.7216 1.0868,1.0013 0.7417,0.3709 1.5286,0.5588 2.3547,0.5588 h 1.1913 v 0.8619 h -14.9497 v -0.8619 h 1.2397 c 1.449,0 2.501,-0.3823 3.1573,-1.1409 0.4113,-0.4944 0.6194,-1.6905 0.6194,-3.5855 v -20.3929 c 0,-1.6017 -0.1115,-2.6639 -0.3317,-3.1899 -0.1743,-0.3718 -0.5295,-0.6955 -1.0667,-0.9755 -0.755,-0.3741 -1.5464,-0.5598 -2.3783,-0.5598 h -1.2397 v -0.8618 h 14.9497 v 0.8618 h -1.1913 c -0.8114,0 -1.5939,0.1787 -2.3547,0.534 -0.5362,0.2507 -0.9036,0.6203 -1.1116,1.1173 -0.2033,0.4967 -0.3126,1.5216 -0.3126,3.0739 v 9.6602 c 0.3486,-0.2931 1.5309,-1.2788 3.5438,-2.9559 5.1231,-4.2215 8.2138,-7.037 9.2862,-8.4496 0.463,-0.6216 0.699,-1.1636 0.699,-1.6287 0,-0.3588 -0.1809,-0.6732 -0.546,-0.9408 -0.361,-0.2753 -0.9711,-0.4104 -1.8333,-0.4104 h -0.8057 v -0.8618 h 12.8781 v 0.8618 c -0.7531,0.0146 -1.4464,0.1102 -2.0671,0.2778 -0.6215,0.1708 -1.3801,0.5047 -2.2735,0.9912 -0.8972,0.4868 -2.0017,1.2779 -3.309,2.3637 -0.381,0.3068 -2.1288,1.8985 -5.2511,4.7701 z" style="fill:#af0b35;fill-rule:evenodd;stroke:#9d1d26;stroke-width:0.1001;stroke-linecap:butt;stroke-linejoin:miter;stroke-dasharray:none" id="path341" inkscape:connector-curvature="0"/>
            <path d="m 337.0191,193.6331 h -14.2302 v -1.5722 c 1.2508,-0.0765 2.2885,-0.2227 3.1156,-0.4451 0.8306,-0.2227 1.2419,-0.4935 1.2419,-0.8207 0,-0.1335 -0.0191,-0.2932 -0.0449,-0.4878 -0.037,-0.1899 -0.0832,-0.3642 -0.1463,-0.5101 l -2.8435,-7.0506 h -11.9701 c -0.4483,1.0351 -0.8137,1.9364 -1.0934,2.702 -0.281,0.7675 -0.534,1.478 -0.7586,2.1299 -0.2116,0.6372 -0.3565,1.1543 -0.4362,1.5487 -0.0777,0.4046 -0.1169,0.7305 -0.1169,0.979 0,0.5923 0.5011,1.053 1.514,1.3723 1.0125,0.3294 2.1524,0.5237 3.4224,0.5824 v 1.5722 h -12.8603 v -1.5722 c 0.417,-0.0329 0.9386,-0.1125 1.5634,-0.2587 0.6273,-0.1393 1.1396,-0.3304 1.5433,-0.5621 0.6416,-0.3988 1.1396,-0.8159 1.4948,-1.2543 0.353,-0.4381 0.6946,-1.0396 1.0361,-1.8061 1.7163,-3.9484 3.6069,-8.3869 5.6794,-13.3086 2.0715,-4.9252 3.9159,-9.3041 5.5366,-13.1515 h 1.9288 l 11.3944,27.1457 c 0.2361,0.5767 0.5104,1.0418 0.8172,1.3961 0.3059,0.3552 0.7274,0.7047 1.2757,1.0418 0.3699,0.2081 0.851,0.3855 1.4499,0.5248 0.5914,0.1382 1.0846,0.2169 1.4869,0.2329 z m -13.7727,-12.8612 -5.1827,-12.1982 -5.0778,12.1982 z" style="fill:#af0b35;fill-rule:evenodd;stroke:#9d1d26;stroke-width:0.1001;stroke-linecap:butt;stroke-linejoin:miter;stroke-dasharray:none" id="path343" inkscape:connector-curvature="0"/>
            <path d="m 371.2326,181.0574 c -0.3842,0.0493 -0.9026,0.1169 -1.55,0.2125 -0.654,0.0965 -1.181,0.2357 -1.5812,0.41 -0.4811,0.2214 -0.8251,0.5384 -1.0239,0.9408 -0.1989,0.4069 -0.2979,0.8867 -0.2979,1.4353 v 2.438 c 0,1.7733 0.008,2.9715 0.0337,3.5919 0.0227,0.625 0.0507,1.1297 0.0819,1.5299 -2.1343,0.8889 -4.2619,1.5656 -6.3784,2.0422 -2.1241,0.4696 -4.2001,0.7092 -6.2401,0.7092 -2.1836,0 -4.2899,-0.3779 -6.3085,-1.1329 -2.0244,-0.7554 -3.7879,-1.8231 -5.2984,-3.2157 -1.5273,-1.4037 -2.7402,-3.1133 -3.6371,-5.1218 -0.9026,-2.0132 -1.3454,-4.26 -1.3454,-6.7451 0,-2.3949 0.4259,-4.6149 1.2845,-6.6638 0.8577,-2.0445 2.0738,-3.8226 3.6496,-5.3331 1.522,-1.477 3.3405,-2.6278 5.4535,-3.4482 2.1094,-0.8194 4.3709,-1.2307 6.7785,-1.2307 1.9298,0 3.6091,0.2157 5.0352,0.6439 1.4298,0.4272 2.6896,0.943 3.7843,1.5522 l 0.9857,-1.5118 h 1.9276 l 0.2115,11.0048 h -1.9705 c -0.3381,-1.2161 -0.7586,-2.4054 -1.2521,-3.5811 -0.4989,-1.1778 -1.1428,-2.2286 -1.9298,-3.1627 -0.7856,-0.9294 -1.7453,-1.6736 -2.8773,-2.2254 -1.1329,-0.5576 -2.4828,-0.8341 -4.0551,-0.8341 -1.7185,0 -3.2526,0.3214 -4.6038,0.9657 -1.3464,0.6394 -2.5175,1.5993 -3.5144,2.8705 -0.9826,1.2273 -1.7332,2.7569 -2.2605,4.5914 -0.5327,1.8342 -0.7978,3.8821 -0.7978,6.141 0,2.0008 0.2584,3.8812 0.7777,5.6446 0.5283,1.767 1.2859,3.2921 2.2806,4.5812 0.9969,1.3174 2.2388,2.349 3.7292,3.1067 1.4958,0.7496 3.192,1.1284 5.0848,1.1284 1.414,0 2.6995,-0.1965 3.8662,-0.5957 1.1632,-0.4024 1.9894,-0.8204 2.4673,-1.2677 0.129,-0.7656 0.2001,-1.5421 0.2045,-2.33 0.009,-0.7825 0.0134,-1.4455 0.0134,-1.9941 v -1.7274 c 0,-0.6239 -0.0898,-1.1734 -0.2753,-1.6523 -0.1832,-0.4843 -0.5664,-0.8315 -1.1476,-1.0587 -0.5295,-0.2157 -1.2454,-0.3842 -2.1547,-0.4954 -0.9035,-0.1115 -1.6194,-0.1788 -2.1298,-0.2125 v -1.6141 h 14.9799 z" style="fill:#af0b35;fill-rule:evenodd;stroke:#9d1d26;stroke-width:0.1001;stroke-linecap:butt;stroke-linejoin:miter;stroke-dasharray:none" id="path345" inkscape:connector-curvature="0"/>
            <path d="m 409.6819,193.6331 h -9.2031 c -2.0365,-2.9403 -3.8796,-5.4847 -5.5274,-7.626 -1.6433,-2.1432 -3.4335,-4.3597 -5.3569,-6.6345 h -3.4919 v 9.9805 c 0,0.5148 0.0877,0.9746 0.2651,1.3633 0.1743,0.3947 0.5531,0.6948 1.1298,0.8994 0.2899,0.101 0.7977,0.2001 1.5206,0.2854 0.7204,0.0899 1.3273,0.1437 1.8275,0.1597 v 1.5722 h -14.4494 v -1.5722 c 0.3842,-0.0329 0.9395,-0.08 1.6768,-0.1597 0.7296,-0.072 1.2342,-0.164 1.5273,-0.2854 0.4811,-0.189 0.8274,-0.4722 1.0466,-0.8443 0.218,-0.3686 0.3202,-0.8418 0.3202,-1.4184 v -22.7532 c 0,-0.5171 -0.0742,-0.9755 -0.2348,-1.3747 -0.1596,-0.3989 -0.5406,-0.7013 -1.132,-0.9125 -0.402,-0.1303 -0.9258,-0.2517 -1.5643,-0.3584 -0.6452,-0.1147 -1.1938,-0.189 -1.6398,-0.217 v -1.5758 h 15.7735 c 1.4465,0 2.7951,0.1392 4.0708,0.41 1.2725,0.2756 2.4143,0.7163 3.4472,1.3254 0.9934,0.5866 1.7893,1.362 2.3838,2.314 0.5936,0.9565 0.8857,2.1018 0.8857,3.4485 0,1.2149 -0.1956,2.2873 -0.599,3.2166 -0.4036,0.9297 -0.9946,1.7377 -1.7825,2.4176 -0.7239,0.6375 -1.5882,1.1871 -2.602,1.649 -1.0125,0.4697 -2.1289,0.8663 -3.3472,1.1868 1.6882,2.0579 3.0875,3.7888 4.2048,5.1926 1.1139,1.406 2.4851,3.1133 4.1046,5.1218 0.7069,0.8902 1.3464,1.542 1.9141,1.9635 0.5722,0.4193 1.1387,0.7656 1.7017,1.0329 0.417,0.1912 0.9385,0.3419 1.5601,0.4384 0.6315,0.1058 1.1521,0.1663 1.5701,0.1823 z m -12.6682,-23.4645 c 0,-1.9097 -0.5945,-3.417 -1.7848,-4.5318 -1.188,-1.1196 -2.867,-1.6736 -5.0297,-1.6736 h -4.0966 v 13.5032 h 3.1539 c 2.2152,0 4.0583,-0.6522 5.5375,-1.9638 1.4793,-1.3082 2.2197,-3.0863 2.2197,-5.334 z" style="fill:#af0b35;fill-rule:evenodd;stroke:#9d1d26;stroke-width:0.1001;stroke-linecap:butt;stroke-linejoin:miter;stroke-dasharray:none" id="path347" inkscape:connector-curvature="0"/>
            <path d="m 428.4015,193.6331 h -15.388 v -1.4171 c 0.4352,-0.0283 1.0577,-0.0643 1.8772,-0.1191 0.8181,-0.052 1.4002,-0.1329 1.7364,-0.2361 0.5272,-0.1733 0.9115,-0.4148 1.1511,-0.7092 0.2437,-0.3001 0.3651,-0.7159 0.3651,-1.2467 v -23.0711 c 0,-0.47 -0.0841,-1.8119 -0.2699,-2.1254 -0.1695,-0.317 -0.59,-0.5779 -1.2463,-0.7901 -0.4834,-0.1609 -1.0903,-0.3091 -1.8208,-0.4473 -0.7284,-0.1405 -1.3273,-0.225 -1.7928,-0.2508 v -1.4162 h 15.388 v 1.4162 c -0.4979,0.0147 -1.0924,0.0596 -1.7825,0.1507 -0.6923,0.0864 -1.2935,0.1953 -1.8062,0.3282 -0.6091,0.1618 -1.0137,0.4193 -1.2272,0.779 -0.2081,0.3628 -0.3094,0.7573 -0.3094,1.1957 v 24.0097 c 0,0.4384 0.1125,0.8274 0.3451,1.168 0.2351,0.3393 0.6295,0.6091 1.1915,0.8079 0.3349,0.1013 0.8902,0.2192 1.6523,0.3495 0.763,0.1227 1.4073,0.1956 1.9364,0.2071 z" style="fill:#af0b35;fill-rule:evenodd;stroke:#9d1d26;stroke-width:0.1001;stroke-linecap:butt;stroke-linejoin:miter;stroke-dasharray:none" id="path349" inkscape:connector-curvature="0"/>
          </g>
          <g transform="translate(-138.80932,640.2547)" id="Layer1004">
            <path d="m 294.0723,154.1697 c 0,-1.1633 -0.954,-2.1072 -2.1293,-2.1072 h -40.8577 c -1.181,0 -2.1328,0.9439 -2.1328,2.1072 v 40.3677 c 0,1.1712 0.9518,2.1084 2.1328,2.1084 h 40.8577 c 1.1753,0 2.1293,-0.9372 2.1293,-2.1084 z" style="fill:#ffffff;fill-rule:evenodd;stroke:#c4c6c8;stroke-width:0.21600001;stroke-linecap:butt;stroke-linejoin:miter;stroke-dasharray:none" id="path352" inkscape:connector-curvature="0"/>
            <g id="Layer1005">
              <path d="m 264.6827,194.5175 24.2423,0.002 c 1.6338,0 2.9791,-1.3268 2.9791,-2.9417 l 0.006,-23.9652 z" style="fill:#00422b;fill-rule:evenodd" id="path354" inkscape:connector-curvature="0"/>
              <path d="m 291.9135,157.1398 c 0,-1.6495 -1.3491,-2.9452 -2.9828,-2.9452 h -8.9212 l -28.8973,28.5904 v 8.7783 c 0,1.6227 1.3067,2.9517 2.9781,2.9517 l 8.7752,0.002 29.0446,-28.7034 z" style="fill:#af0b35;fill-rule:evenodd" id="path356" inkscape:connector-curvature="0"/>
              <path d="m 254.0982,154.1887 c -1.6705,0 -2.9816,1.2922 -2.9816,2.9435 l -0.004,23.8246 27.082,-26.7615 z" style="fill:#00422b;fill-rule:evenodd" id="path358" inkscape:connector-curvature="0"/>
              <path d="m 265.7132,194.1103 c 0,0 1.5439,-0.6173 2.9794,-0.8621 0.5429,-0.1209 3.6898,-0.8523 3.5276,-4.051 -0.0386,-0.8326 -1.2944,0.2258 -1.2944,0.2258 0,0 -2.4883,0.346 -3.5257,0.9844 -0.5175,0.3003 -1.6746,1.5684 -1.6869,3.7029 z" style="fill:#ffdc00;fill-rule:evenodd;stroke:#9d1d26;stroke-width:0.21600001;stroke-linecap:butt;stroke-linejoin:miter;stroke-dasharray:none" id="path360" inkscape:connector-curvature="0"/>
              <path d="m 276.391,183.8598 c 0,0 0.585,3.6232 -2.3287,4.7759 -1.2391,0.5077 -3.0956,1.0773 -3.3828,1.3667 0,0 -0.6626,-2.5194 1.4908,-4.0325 0.6915,-0.492 2.1091,-0.9643 3.0202,-1.2923 0.8791,-0.3179 1.2005,-0.8178 1.2005,-0.8178 z" style="fill:#ffdc00;fill-rule:evenodd;stroke:#9d1d26;stroke-width:0.21600001;stroke-linecap:butt;stroke-linejoin:miter;stroke-dasharray:none" id="path362" inkscape:connector-curvature="0"/>
              <path d="m 277.8966,179.3802 c 0,0 1.8175,2.1958 -0.2206,4.7118 -0.4379,0.5806 -2.6181,1.9771 -3.1666,2.6278 0,0 -1.0874,-2.3397 0.224,-4.244 0.3591,-0.5419 1.6004,-1.5451 2.1455,-1.9419 0.5467,-0.4022 1.0177,-1.1537 1.0177,-1.1537 z" style="fill:#ffdc00;fill-rule:evenodd;stroke:#9d1d26;stroke-width:0.21600001;stroke-linecap:butt;stroke-linejoin:miter;stroke-dasharray:none" id="path364" inkscape:connector-curvature="0"/>
              <path d="m 275.685,174.5939 c 0,0 -1.7022,0.9818 -0.5718,3.7828 0.1087,0.3248 1.4286,2.6567 1.472,3.303 0,0 2.3586,-1.4453 1.4044,-4.3926 -0.1464,-0.5407 -1.2461,-2.2599 -2.3046,-2.6932 z" style="fill:#ffdc00;fill-rule:evenodd;stroke:#9d1d26;stroke-width:0.21600001;stroke-linecap:butt;stroke-linejoin:miter;stroke-dasharray:none" id="path366" inkscape:connector-curvature="0"/>
              <path d="m 271.3437,170.7725 c 0,0 -0.5841,1.7667 0.8015,3.4281 0.584,0.6773 3.203,1.4719 4.3325,2.2988 0,0 1.3812,-4.461 -5.134,-5.7269 z" style="fill:#ffdc00;fill-rule:evenodd;stroke:#9d1d26;stroke-width:0.21600001;stroke-linecap:butt;stroke-linejoin:miter;stroke-dasharray:none" id="path368" inkscape:connector-curvature="0"/>
              <path d="m 267.7111,167.6125 c 0,0 5.665,0.4024 4.9034,5.5286 0,0 -1.2812,-0.7936 -2.3252,-1.2083 -0.4543,-0.2228 -2.7146,-0.9287 -2.5782,-3.0291 0.0377,-0.5774 0,-1.2912 0,-1.2912 z" style="fill:#ffdc00;fill-rule:evenodd;stroke:#9d1d26;stroke-width:0.21600001;stroke-linecap:butt;stroke-linejoin:miter;stroke-dasharray:none" id="path370" inkscape:connector-curvature="0"/>
              <path d="m 267.816,162.741 c 0,0 -2.11,1.582 -1.0594,4.2418 0.1885,0.5043 1.2803,1.9486 1.86,2.2012 0,0 0.6572,-1.8408 1.0584,-3.1711 0.1474,-0.5419 0.5486,-2.6611 -0.7672,-3.489 -0.6928,-0.3933 -1.0918,0.2171 -1.0918,0.2171 z" style="fill:#ffdc00;fill-rule:evenodd;stroke:#9d1d26;stroke-width:0.21600001;stroke-linecap:butt;stroke-linejoin:miter;stroke-dasharray:none" id="path372" inkscape:connector-curvature="0"/>
              <path d="m 267.3759,164.3164 c 0,0 -1.635,-4.7514 4.2238,-6.0405 0,0 1.3089,1.8342 -0.8348,3.7397 -0.5796,0.5398 -3.018,1.7622 -3.389,2.3008 z" style="fill:#ffdc00;fill-rule:evenodd;stroke:#9d1d26;stroke-width:0.21600001;stroke-linecap:butt;stroke-linejoin:miter;stroke-dasharray:none" id="path374" inkscape:connector-curvature="0"/>
              <path d="m 276.511,154.6653 c 0,0 -6.0781,-0.1395 -5.8221,5.2406 0,0 3.806,-1.1562 4.8312,-2.2713 0.5068,-0.5796 1.0585,-1.6692 0.9909,-2.9693 z" style="fill:#ffdc00;fill-rule:evenodd;stroke:#9d1d26;stroke-width:0.21600001;stroke-linecap:butt;stroke-linejoin:miter;stroke-dasharray:none" id="path376" inkscape:connector-curvature="0"/>
            </g>
          </g>
        </g>
      </g>
    </g>
  </svg>