<svg xmlns="http://www.w3.org/2000/svg" viewBox="0 0 133 72.1"><path fill="#E31837" d="M77.6 69.1c0-1.6 1.3-2.9 3-2.9s3 1.3 3 2.9-1.3 3-3 3-3-1.3-3-3m.6 0c0 1.3 1.1 2.4 2.5 2.4 1.3 0 2.4-1 2.4-2.4 0-1.3-1.1-2.3-2.4-2.3-1.5 0-2.5 1.1-2.5 2.3"/><path fill="#E31837" d="M82.1 70.8h-.6l-1-1.5h-.6v1.5h-.4v-3.3H81c.3 0 .6 0 .8.2.3.1.4.4.4.7 0 .6-.5.9-1.1.9l1 1.5zm-1.6-1.9c.5 0 1.1.1 1.1-.5 0-.4-.4-.5-.8-.5h-.9v1h.6zM66.3 72.1c21-18 50.5-35.5 66.7-41.8-2.5-1.6-6.4-3.9-10.8-6.4-20.9 6.9-45.3 22.2-67.1 39.5 3.7 2.8 7.6 5.7 11.2 8.7z"/><path fill="#012169" d="M56.7 23.2c-3.1-1.5-6.5-2.9-9.1-4.1-7.9 3.9-18.2 9.8-31.2 19.1 2.8 1.5 5.8 3.3 9 5.1 10-7.4 20.1-14.4 31.3-20.1z"/><path fill="#E31837" d="M75.4 14.6c-3.8-2.1-17-7-26.1-9.1-2.7 1-6.5 2.5-9.1 3.6 3.3.9 15.6 4.2 26.1 9.5 2.7-1.3 6.5-2.9 9.1-4z"/><path fill="#012169" d="M30.7 13.3C19 18.7 6.7 26.1 0 30.4c2.4 1.1 4.8 2 8.1 3.6 14.8-10 26.4-16.1 31-18.1-3.3-1.2-6.4-2-8.4-2.6z"/><path fill="#E31837" d="M84.2 11.5c2.7-.9 5.8-1.7 8.5-2.5-7.8-3.3-17.6-6.8-26.4-9-1.4.4-5.6 1.5-8.5 2.4 3 .9 12.9 3.2 26.4 9.1zM34.9 49.1c3.2 1.9 6.6 4.5 9.9 6.7 21.9-17 43.5-30.1 67.2-37.5-3.3-1.7-6.2-3.2-9.9-5-14.2 3.6-38.5 13.3-67.2 35.8z"/></svg>