<svg xmlns="http://www.w3.org/2000/svg" xmlns:xlink="http://www.w3.org/1999/xlink" version="1.1" id="Layer_1" x="0px" y="0px" viewBox="0 0 1208.24 386.95" style="enable-background:new 0 0 1208.24 386.95;" xml:space="preserve" class="mdl-js">

    <path  fill="#FFC72F" d="M978.53,213.72c3.42-14.79,11.66-29.05,20.96-40.9c3.36-4.28,13.03-11.06,12.49-16.96  c-0.6-6.69-10.73-14.66-14.6-19.95c-8.45-11.52-14.67-25.08-18.22-38.9c-1.12-4.35-4.98-14.35-2.5-18.52  c2.37-4,11.95-2.61,15.84-2.34c10.39,0.71,20.91,2.31,30.92,5.19c4.8,1.38,11.92,5.36,16.92,4.34c6.93-1.41,13.44-14.6,18.09-19.59  c11.38-12.22,25.66-22.85,40.81-29.93c-3.51-8.3-10.98-15.16-17.96-20.66c-39.15-30.9-100.91-11.86-114.81,36.62  c-7.07,24.68-0.93,52.29,10.33,74.82c3.27,6.55,7.22,13.08,11.6,18.95c2.03,2.72,6.2,6.32,6.2,9.98c0,4.17-5.38,8.84-7.72,11.97  c-7.06,9.42-12.76,19.91-16.91,30.92c-1.1,2.9-4.5,9.28-2.35,12.23C969.5,213.54,975.66,213.35,978.53,213.72 M981.53,82.04  c0.36,17.21,20.5,12.1,33.92,15.44c8.5,2.12,24.51,13.01,32.71,11.14c5.97-1.36,13.23-18.7,17.25-23.58  c13.28-16.1,29.13-25.59,46.81-35.91c3.4,12.44,8.4,23.89,9.81,36.91c0.86,7.81-1.35,20.69,1.77,27.71  c1.53,3.43,6.21,3.98,9.38,5.07c7.96,2.77,15.63,6.08,22.94,10.26c8.49,4.85,16.65,10.43,23.94,16.98c2.38,2.14,6.14,7.49,9.89,6.47  c4.35-1.18,7.1-8.95,8.76-12.62c6.3-13.99,9.57-29.65,7.42-44.89c-5.56-39.54-41.25-64.47-79.93-61.76  c-25.34,1.78-47.78,19.56-64.84,36.82c-5.02,5.09-12.06,20.19-18.57,22.39c-4.44,1.5-13.81-4.35-18.33-5.55  C1010.04,83.11,996.35,82.04,981.53,82.04 M1098.24,61.09c2.48,16.85,7.39,31.42,6.97,48.88c-0.12,4.66-4.15,15.51-0.39,19.1  c4.32,4.11,16.57,4.42,22.35,6.36c13.31,4.48,25.96,11.47,36.91,20.24c3.65,2.93,13.91,9.92,13.91,15.07  c0,4.16-8.89,8.69-11.91,10.71c-8.68,5.79-18.14,10.67-27.93,14.27c-4.35,1.59-12.07,2.41-15.36,5.77  c-4.02,4.1-1.25,15.83-1.89,21.22c-2.31,19.56-12.34,36.19-15.67,54.87c15.05,4.81,31.34,6.84,46.89,3.09  c53.55-12.9,66.32-76.23,37.56-117.81c-10.26-14.84-28.18-26.82-44.54-34.05c-6.32-2.8-23.36-5.24-26.9-11.06  c-3.62-5.95-0.88-18.89-1.04-25.71c-0.3-12.06-3.66-24.72-7.97-35.91L1098.24,61.09z"/>
    <path fill="#016B69"  d="M180.49,223.69c14.1-6.25,26.47-11.32,36.39-23.94c22.43-28.5,19.28-77.67-8.46-101.45  C170.29,65.6,105.24,77.05,58.79,77.05H23.87c-5.37,0-11.32-0.76-15.91,2.64c-9.05,6.72-5.04,27.25-5.04,37.26v219.46  c0,11.28-4.34,34.19,2.01,43.79c6.56,9.93,33.35,5.09,43.88,5.09h78.81c19.93,0,39.79,0.89,58.86-6.04  c19.34-7.03,35.72-19.56,45.58-37.86C256.9,295.29,231.89,235.47,180.49,223.69z M56.79,119.95h58.86c14.68,0,29.75-0.34,42.89,7.33  c25.67,14.97,21.84,59.84-2.99,73.57c-12.09,6.68-25.61,5.89-38.9,5.89H56.79V119.95z M163.53,336.14  c-14.19,7.1-29.5,6.25-44.89,6.25H56.79v-97.76h60.85c16.06,0,32.44-0.39,46.89,7.86C194.86,269.81,195.39,320.2,163.53,336.14z   M311.52,82.15c-3.99-5.2-10.38-5.1-16.31-5.1H260.3v281.31c0,6.77-1.94,17.11,2.64,22.73c3.83,4.69,9.87,4.2,15.31,4.2h35.91  V105.98C314.16,98.83,316.16,88.18,311.52,82.15z M601.54,189.77c-4.04-24.22-13.06-48.48-28.46-67.83  c-33.59-42.22-81.57-44.89-131.23-44.89h-69.83c-8.32,0-20.6-2.4-26.43,5.09c-4.43,5.71-2.5,16.06-2.5,22.84v280.31h99.76  c22.34,0,44.94,1.54,66.84-3.64C593.74,361.76,613.84,263.48,601.54,189.77z M541.27,286.54c-5.45,17-14.66,32.8-29.59,43.12  c-30.93,21.4-79.11,12.74-114.72,12.74V119.95c35.72,0,83.75-8.33,114.72,13.41C555.25,163.94,555.98,240.58,541.27,286.54z   M901.34,80.19c-1.1-5.71-19.09-3.14-23.56-3.14c-21.79,0-48.94-4.69-62.38,16.96c-14.84,23.91-20.85,57.17-29.73,83.79  c-17.37,52.1-36.66,103.76-51.54,156.62c-5.84-15.45-9.34-32.15-14.63-47.88c-15.32-45.54-30.68-91.08-45.89-136.66  c-5.22-15.66-10.72-31.23-15.96-46.89c-2.58-7.74-4.26-17.26-11.32-22.3c-12.67-9.03-40.86-3.64-55.84-3.64  c3.63,24.22,16.56,49.66,24.6,72.82c18.33,52.8,36.87,105.59,54.54,158.61c5.67,17,11.32,34.09,17.58,50.88  c3.8,10.2,8.05,19.82,19,23.85c13.86,5.09,32.3,2.08,46.89,2.08c4.37,0,12.72,1.59,16.45-1.03c4.32-3.03,5.9-13.14,7.49-17.93  c5.12-15.36,10.84-30.53,15.96-45.89c19.23-57.69,39.03-115.46,59.9-172.58c6.24-17.08,13.43-36.5,27.88-48.42  C885.88,95.25,902.94,88.42,901.34,80.19z"/>
    <path  fill="#FFC72F"  d="M1090.26,254.61c-11.94-7.46-22.62-18.36-30.58-29.93c-3.15-4.58-7.67-17.15-12.71-19.33  c-6.52-2.82-22.69,7.34-29.54,9.21c-19.81,5.42-37.88,3.69-57.86,1.15c2.99-14.48,9.31-28.33,16.96-40.9  c3.14-5.16,11.49-12.76,11.51-18.95c0.03-7.66-11.33-19.14-15.06-25.94c-7.65-13.94-11.4-29.41-14.4-44.89  c-10.44,0.92-20.89,7.84-28.93,14.18c-38.38,30.21-37.43,88.48,2.99,116.78c21.99,15.39,49.92,17.41,75.81,13.25  c8.16-1.31,24.29-9.96,31.82-7.91c4.11,1.12,6.85,8.08,9.11,11.34c6.73,9.76,14.72,18.21,23.91,25.68  c2.54,2.07,7.13,6.95,10.76,6.34C1087.78,264.06,1089.39,257.62,1090.26,254.61z"/>
    <path  fill="#FFC72F"  d="M1086.27,273.57l-33.48-28.93l-14.49-17.03l-27.84,6.63l-48.88,0.42c0,21.77,5.69,42.67,21.24,58.69  c31.93,32.88,84.28,24.64,111.01-9.81c12.65-16.3,18.67-36.63,21.09-56.86c0.81-6.75-2.35-23.54,1.89-28.5  c4.12-4.82,16.44-5.95,22.35-8.11c12.28-4.48,23.36-11.7,33.92-19.26c-1.71-3.62-5.27-8.67-9.98-7.86  c-5.31,0.91-11.28,6.61-15.96,9.28c-8.38,4.76-17.63,8.21-26.93,10.67c-4.12,1.09-14.21,1.21-16.93,4.61  c-2.09,2.6-0.66,7.29-0.32,10.23c0.88,7.42,0.58,15.48,0.25,22.94C1102.33,240.28,1093.61,256.03,1086.27,273.57z"/></svg>