<svg version="1.1" id="Layer_1" xmlns="http://www.w3.org/2000/svg" xmlns:xlink="http://www.w3.org/1999/xlink" x="0px" y="0px" viewBox="-707 341 400 400" style="enable-background:new -707 341 400 400;" xml:space="preserve">
 <style type="text/css">
  .st0{fill:none;}
	.st1{fill:#003B70;}
	.st2{fill:#D9261C;}
 </style>
 <desc>
  Created with Sketch.
 </desc>
 <g>
  <rect x="-707" y="341" fill="none" width="400" height="400">
  </rect>
  <g id="Page-1">
   <g id="FI-logos:-Australia">
    <g id="Citibank-_x28_Australia_x29_">
     <path id="path1274" class="st1" fill="#003B70" d="M-584.5,619.8L-584.5,619.8c-12.5,12.5-25,18.8-38.8,18.8c-28.8,0-50-21.2-50-51.2
					s21.2-51.2,50-51.2c13.8,0,27.5,6.2,38.8,17.5l1.2,1.2l18.8-22.5l0,0c-15-17.5-33.8-27.5-56.2-27.5s-43.8,7.5-58.8,21.3
					c-16.2,15-25,36.2-25,61.2s8.8,46.2,25,61.2c15,13.8,36.2,21.2,58.8,21.2s41.2-8.8,56.2-27.5l0,0L-584.5,619.8L-584.5,619.8z">
     </path>
     <polygon id="path1276" class="st1" fill="#003B70"  points="-548.2,667.2 -515.8,667.2 -515.8,507.2 -548.2,507.2 				">
     </polygon>
     <path id="path1278" class="st1" fill="#003B70"  d="M-388.2,632.2c-8.8,5-16.2,7.5-23.8,7.5c-10,0-15-5-15-17.5v-83.8h32.5v-30h-33.8v-50
					l-32.5,17.5v32.5h-27.5v30h27.5v90c0,25,15,41.2,36.2,41.2c15,0,23.8-3.8,28.8-7.5l0,0l7.5-31.2L-388.2,632.2L-388.2,632.2z">
     </path>
     <polygon id="path1280" class="st1" fill="#003B70"  points="-360.8,667.2 -328.2,667.2 -328.2,507.2 -360.8,507.2 				">
     </polygon>
     <path id="path1284" class="st2" fill="#D9261C" d="M-308.2,479.8c-30-42.5-78.8-67.5-130-67.5c-50,0-100,25-130,67.5l-1.2,2.5h37.5l0,0
					c25-26.2,58.8-40,93.8-40c33.8,0,67.5,13.8,93.8,40l0,0h37.5L-308.2,479.8L-308.2,479.8z">
     </path>
    </g>
   </g>
  </g>
 </g>
</svg>