<svg xmlns="http://www.w3.org/2000/svg" version="1.1" width="446.405" height="185.147" viewBox="0 0 446.405 185.147" class="mdl-js"><path d="m 176.9491,83.907501 c -4.47805,-5.291618 -11.87351,-5.059135 -18.0669,-6.9789 -7.06646,-1.579247 -14.06823,-3.484844 -21.18055,-4.835934 -9.476,-0.907111 -11.74132,13.853375 -2.84445,16.204834 10.43292,4.23606 20.6879,8.99231 31.25291,12.841359 9.53127,2.03644 16.71663,-9.583969 10.83899,-17.231359 z" fill="#e3002f" fill-rule="evenodd"/><path d="m 139.0757,98.410401 c -12.3043,2.760279 -24.64702,5.390229 -36.92614,8.262289 -8.933572,2.55398 -9.896497,16.26644 -1.46825,20.08674 6.90933,3.39182 13.2831,-1.8498 19.62339,-4.10013 8.13826,-3.60039 16.37676,-6.98347 24.45054,-10.72292 6.8834,-4.15869 2.2351,-15.567237 -5.67954,-13.525979 z" fill="#e3002f" fill-rule="evenodd"/><path d="M 96.1543,5.625901 C 90.46864,15.176869 84.463567,24.546552 78.977163,34.208679 75.158001,42.944164 88.541446,49.681465 93.5113,41.921801 100.7674,33.314932 108.44802,25.027969 115.38122,16.178192 120.40742,8.0122869 111.19631,-2.8706086 102.3452,0.53880109 99.728364,1.3636248 97.486715,3.2364511 96.1543,5.625901 Z" fill="#e3002f" fill-rule="evenodd"/><path d="m 108.4561,35.118401 c -5.51202,3.394779 -3.96784,10.33832 -4.9839,15.8281 -0.73685,9.794062 -2.28959,19.574099 -2.4427,29.377462 1.06119,9.192592 14.39365,12.500309 19.57408,4.775414 3.88609,-5.866347 1.17919,-12.902795 1.02302,-19.402776 -0.89056,-8.621992 -1.5242,-17.276372 -2.58436,-25.876175 -1.09915,-4.478079 -6.52856,-6.895426 -10.58614,-4.702025 z" fill="#e3002f" fill-rule="evenodd"/><path d="M 2.7641,53.009501 C 10.144029,61.424892 17.258624,70.089257 24.79755,78.358378 31.931741,84.679594 42.446618,74.061381 36.635,66.922501 30.681103,57.367889 25.183426,47.49055 18.89992,38.165082 12.688893,30.852135 -0.51169781,36.262022 0,45.733601 c -0.02037648,2.663746 1.0126052,5.281665 2.7641,7.2759 z" fill="#e3002f" fill-rule="evenodd"/><path d="m 39.1561,56.269401 c 11.594307,4.973141 23.107792,10.130356 34.74137,15.0064 8.728612,3.185195 17.561876,-7.343262 12.997425,-15.389872 -3.60068,-6.79956 -11.841206,-6.302 -18.291595,-8.213428 C 59.900681,45.812394 51.247125,43.685354 42.5112,41.985726 34.489328,41.306158 31.572029,53.249584 39.1561,56.269401 Z" fill="#e3002f" fill-rule="evenodd"/><path d="m 48.0317,128.7365 c -5.418227,-0.9232 -10.674664,1.66066 -16.003,2.5362 -7.329848,1.86205 -14.811455,3.21843 -22.0290703,5.44525 -8.8723626,3.64735 -7.8091331,17.8747 1.3579703,20.31255 6.727295,1.63692 12.581025,-2.87564 18.7101,-4.9767 6.645624,-2.87168 13.430934,-5.4413 19.976489,-8.53162 5.777425,-3.5131 4.468313,-12.94587 -2.012489,-14.78568 z" fill="#e3002f" fill-rule="evenodd"/><path d="M 56.2558,97.264001 C 62.300456,92.408702 61.659966,81.842063 54.349546,78.539812 47.992013,75.114844 41.06437,79.547145 38.4548,85.511001 32.643224,95.504127 26.594086,105.3653 20.93275,115.43965 c -3.501985,8.15348 9.07289,14.10058 13.44815,6.56945 7.297281,-8.24286 14.586948,-16.49435 21.8749,-24.745099 z" fill="#e3002f" fill-rule="evenodd"/><path d="m 122.7495,173.0979 c -1.01519,-11.14279 -1.67774,-22.32972 -2.92292,-33.44592 -2.06131,-9.32536 -16.8484,-6.88515 -16.29718,2.32802 -0.79755,11.21893 -2.15513,22.42691 -2.55251,33.65398 0.72227,9.57558 14.5879,12.95188 19.74611,4.99102 1.56983,-2.15066 2.2956,-4.88173 2.0265,-7.5271 z" fill="#e3002f" fill-rule="evenodd"/><path d="m 95.1112,148.886 c -6.412195,-10.77343 -12.661572,-21.64224 -19.163908,-32.36311 -5.190221,-7.70995 -18.523267,-4.38141 -19.559889,4.81119 -1.080668,7.64751 5.917676,12.09371 10.022697,17.45812 5.929633,6.59857 11.659398,13.38793 17.708737,19.87265 6.315108,5.2635 15.541535,-2.76517 10.992363,-9.77885 z" fill="#e3002f" fill-rule="evenodd"/><path d="m 393.1421,55.686901 c -2.514,0 -9.1,-0.091 -13.015,0.627 v 22.697 l 0.991,0.095 c 0.053,0.008 5.421,0.5261 11.628,0.5261 10.0548,0 15.8919,-0.8343 19.421,-3.941 3.5609,-3.1332 4.4669,-8.2891 2.2629,-12.71 -3.4801,-6.9792 -14.358,-7.2941 -21.2879,-7.2941 z M 380.158,127.4808 c 5.8182,0.3501 12.104,0.612 18.421,0.392 4.9039,-0.1709 11.3921,-0.5598 15.995,-5.2699 4.1131,-4.2072 4.8589,-10.527 1.7862,-15.7252 -2.844,-4.824 -8.5292,-7.252699 -22.3232,-7.085699 -6.9721,0 -13.6919,0.806999 -13.9359,0.837899 z m 11.4421,23.9261 c -14.5262,0 -28.148,-0.3271 -38.7652,-0.9712 V 34.710801 c 3.702,-0.2509 15.1393,-0.495 31.3172,-0.8949 10.1429,-0.258 19.8558,0.1341 27.449,1.345 17.187,2.7139 23.5828,10.9349 26.2871,15.4389 2.6007,4.356 4.3239,9.1942 3.9129,15.4811 -0.487,7.3868 -3.0192,13.4329 -10.5571,19.3919 l -1.3371,1.051 1.5231,0.7611 c 5.22,2.638 8.5632,6.8159 10.847,10.912 2.738,4.953799 4.1281,10.585999 4.1281,16.768099 0,12.477 -4.4892,21.78 -13.6012,28.0958 -8.0679,5.616 -21.9268,8.3461 -41.2038,8.3461 z" fill="#004a99" fill-rule="evenodd"/><path d="m 326.397,34.710801 h -26.8741 c -2.395,4.9541 -19.1359,39.526 -26.813,59.252 l -0.517,1.3518 h -0.913 l -0.5259,-1.3518 c -7.668,-19.726 -24.4099,-54.2979 -26.816,-59.252 h -26.8662 c -5.8099,41.8031 -8.693,106.457899 -9.0808,115.724899 h 26.7599 c 0.243,-7.7598 1.8581,-56.532999 2.9619,-67.491999 l 0.2702,-2.772 h 0.663 l 1.065,2.4531 c 8.9288,20.353899 20.431,48.331799 22.32,52.959099 h 19.4108 c 1.8921,-4.6273 13.3943,-32.6052 22.3191,-52.959099 l 1.067,-2.4531 h 0.654 l 0.2741,2.772 c 1.123,10.959 2.719,59.732199 2.9659,67.491999 h 26.7559 c -0.3929,-9.267 -3.2749,-73.921799 -9.0808,-115.724899 z" fill="#004a99" fill-rule="evenodd"/></svg>