<svg version="1.1" id="Layer_1" xmlns:x="ns_extend;" xmlns:i="ns_ai;" xmlns:graph="ns_graphs;" xmlns="http://www.w3.org/2000/svg" xmlns:xlink="http://www.w3.org/1999/xlink" x="0px" y="0px" viewBox="0 0 432.4 127" style="enable-background:new 0 0 432.4 127;" xml:space="preserve">
 <style type="text/css">
  .st0{fill:#FFFFFF;}
	.st1{fill:#F58025;}
	.st2{fill:#0069AA;}
 </style>
 <metadata>
  <sfw xmlns="ns_sfw;">
   <slices>
   </slices>
   <sliceSourceBounds bottomLeftOrigin="true" height="126.9" width="432.5" x="0" y="0.1">
   </sliceSourceBounds>
  </sfw>
 </metadata>
 <g>
  <g>
   <path fill="#FFFFFF" d="M63.3,2.7C30,2.7,2.7,30,2.7,63.3s26.9,60.5,60.5,60.5c33.2,0,60.5-26.9,60.5-60.5
			C123.8,30,96.5,2.7,63.3,2.7">
   </path>
  </g>
  <path class="st1" fill="#F58025" d="M116.5,115.2h0.9c0.9,0,1.4,0.5,1.4,1.4c0,0.5-0.5,1.4-1.4,1.4h-0.9V115.2 M116.5,119.3h0.5
		c1.8,0,1.4,0.9,1.4,2.3c0,0.5,0,1.4,0.5,1.8h2.3c0-0.5-0.5-2.3-0.5-2.7c0-1.8-1.4-1.8-1.8-1.8l0,0c1.4,0,1.8-1.4,1.8-2.3
		c0-1.8-0.9-2.7-2.7-2.7h-4.1v10h2.3v-4.6C116.2,119.3,116.5,119.3,116.5,119.3z M117.4,109.7c-4.6,0-8.6,3.6-8.6,8.6
		c0,4.6,3.6,8.6,8.6,8.6c4.6,0,8.6-3.6,8.6-8.6C126.1,113.3,122,109.7,117.4,109.7 M117.4,125.2c-3.6,0-6.8-3.2-6.8-6.8
		c0-3.6,3.2-6.8,6.8-6.8c3.6,0,6.8,3.2,6.8,6.8C124.3,122,121.1,125.2,117.4,125.2">
  </path>
  <path class="st1" fill="#F58025" d="M94.7,72.4H81.5c0.5-1.8,0.5-3.6-0.9-5.9L59.2,29.1c-3.2-5.5-6.4-9.6-9.1-12.7l0,0
		c8.6,4.6,25.5,14.1,58.3,33.2l1.8,0.9c5.9,3.6,9.6,9.1,8.6,12.7C117.4,69.2,108.8,72.4,94.7,72.4 M51.9,108.8l-1.8,1.4
		c-5.9,3.6-12.7,3.6-15.5,0.9c-3.6-3.6-1.8-12.7,5-25L46,74.7c1.4,1.4,3.2,2.3,5.5,2.3h42.8c6.4,0,11.4-0.5,15.9-1.8l0,0
		C102,80.6,85.1,90.1,51.9,108.8 M29.1,30.5v-2.3c0-6.8,2.7-12.7,6.8-13.7c5-1.4,12.3,5,19.1,16.8l6.4,11.4
		c-1.8,0.5-3.6,1.8-4.6,3.6l-21.3,37c-3.2,5.5-5.5,10-6.4,14.6l0,0C29.1,88.3,29.1,68.7,29.1,30.5 M63.3,0C28.2,0,0,28.2,0,63.3
		s28.2,63.3,63.3,63.3s63.3-28.2,63.3-63.3S98.3,0,63.3,0">
  </path>
  <path class="st2" fill="#0069AA" d="M192.1,17.3h-41.4h-0.9v4.1h0.9c14.6,1.8,16.4,3.6,16.4,11.4v78.3h16.8v-41h6.8c15.9,0,49.2,0,49.2-26.4
		C239.9,17.3,208.9,17.3,192.1,17.3 M190.3,63.3h-6.4V32.8c0-7.3,0-8.2,13.7-8.2c15.5,0,23.7,6.8,23.7,19.6
		C221.2,61,205.3,63.3,190.3,63.3">
  </path>
  <path class="st2" fill="#0069AA" d="M334.6,17.3h-10v73.3c-2.3-3.6-52.3-73.3-52.3-73.3h-35.5v4.1h0.9c14.6,1.8,16.4,2.7,16.4,12.7V111H265V32.3
		c2.7,3.6,56.9,78.7,56.9,78.7h14.6V17.3H334.6z">
  </path>
  <path class="st2" fill="#0069AA" d="M348.7,61c0,25.5,15.5,51.4,50.5,51.4c16.4,0,24.6-1.8,32.3-3.6h0.9v-7.7l-1.4,0.5c-8.2,2.3-15.9,3.2-22.3,3.2
		c-27.8,0-41.4-15.5-41.4-46.9c0-20.9,10-33.7,26.9-33.7c11.4,0,17.8,4.6,19.6,13.2v0.9h18.7v-1.8c-0.5-5-5-20.9-37.3-20.9
		C364.2,15.5,348.7,31,348.7,61">
  </path>
 </g>
</svg>