<svg width="200" height="30" viewBox="0 0 200 30" fill="none" xmlns="http://www.w3.org/2000/svg">
<path fill-rule="evenodd" clip-rule="evenodd" d="M16.0483 0.0170898C19.1941 0.0170898 21.6517 0.692314 23.5015 2.04351C25.3225 3.4293 26.2166 5.61814 26.2166 8.53634V9.02283H17.6907V8.86418C17.6907 7.31748 16.5444 6.5618 14.339 6.5618C12.5948 6.5618 11.5844 7.0904 11.3747 8.08293L11.3383 8.42656C11.3383 8.91004 11.554 9.3251 11.987 9.69129C12.4474 10.0567 13.2306 10.3815 14.339 10.7214L17.2281 11.5064C19.7274 12.1253 21.6874 13.0245 23.0807 14.1419C24.4709 15.2811 25.1462 16.7608 25.1462 18.573L25.0429 20.237C24.4033 23.665 22.7145 26.1455 20.0131 27.6509C17.3344 29.2247 14.1909 29.9833 10.6606 29.9833C7.2732 29.9833 4.59988 29.0998 2.64141 27.3223C0.878952 25.8019 0 23.8883 0 21.5024C0 20.9513 0.0387438 20.6189 0.103317 20.4295H8.70368C8.70368 21.434 9.10023 22.2115 9.88271 22.7251C10.6318 23.2078 11.4818 23.4687 12.4474 23.4687C14.6558 23.4687 15.9442 22.8003 16.264 21.5024V21.019C16.264 20.4678 15.9442 20.0227 15.3342 19.6038C14.4803 19.2519 13.2033 18.7955 11.4492 18.2865C8.63151 17.5767 6.41931 16.6856 4.84525 15.6096C3.28183 14.5412 2.49328 12.9103 2.49328 10.7214L2.64141 9.56271L2.70219 8.64086C3.02429 6.98814 3.74219 5.50535 4.84525 4.24438C5.98478 2.97589 7.53073 1.94125 9.49299 1.12241C10.4889 0.759986 11.4818 0.454707 12.5256 0.269735C13.0589 0.20131 13.5922 0.159955 14.1909 0.0847626C14.7644 0.0471666 15.3706 0.0170898 16.0483 0.0170898ZM78.2558 13.0691C80.4034 13.0691 82.2152 13.5375 83.7923 14.5413C85.3618 15.5226 86.1496 17.0557 86.1496 19.1995L86.0098 20.7356C85.7204 22.5778 85.0025 24.114 83.9367 25.39C83.4034 25.9938 82.8283 26.5262 82.1826 26.96C81.609 27.3262 80.9321 27.6698 80.1056 28.0315C79.7501 28.1684 79.3915 28.2924 79.0405 28.4015C78.6857 28.5037 78.1851 28.636 77.5705 28.7421C77.3586 28.803 77.1124 28.8398 76.8253 28.8812C76.434 28.915 75.9615 28.9421 75.4624 28.9421C73.1841 28.9421 71.2743 28.4015 69.7777 27.3646C68.2743 26.3337 67.5298 24.7937 67.5298 22.7778L67.64 21.8718L67.7106 21.1093C68.2401 18.4032 69.4944 16.3798 71.4604 15.0436C73.036 13.9751 74.819 13.3413 76.8253 13.1375C77.2894 13.0691 77.7855 13.0691 78.2558 13.0691ZM38.2575 13.0688C40.7614 13.0688 42.5125 13.3719 43.5122 14.0132C44.5203 14.6396 45.0149 15.6096 45.0149 16.9194C45.0149 17.4209 44.9374 18.0255 44.8326 18.7609L43.4393 26.0688L43.2684 27.059C43.3337 27.4508 43.5487 27.8283 43.9422 28.2057L43.8685 28.4704H37.3315V26.832C36.6515 27.326 35.9716 27.7222 35.253 28.0659C33.9744 28.6358 32.5728 28.9426 31.0793 28.9426H30.7549C29.4004 28.9426 28.2191 28.5381 27.1099 27.7982C26.3191 27.2621 25.9256 26.4583 25.9256 25.3898V24.7597C25.9932 24.5446 26.0373 24.3822 26.0373 24.3138C26.3191 23.0122 26.9367 22.0189 27.8248 21.3054C28.5693 20.7354 29.5128 20.3015 30.6068 19.9925L32.2188 19.6978L34.5822 19.3692C34.8321 19.3353 35.0418 19.2977 35.253 19.2677C36.5429 19.0864 37.3641 18.9278 37.6878 18.7955C38.3715 18.527 38.6883 18.1541 38.6883 17.6901C38.6883 16.9954 38.0744 16.6179 36.8308 16.6179C36.1828 16.6179 35.689 16.754 35.253 16.9954C34.8321 17.2179 34.5077 17.5841 34.3292 18.0977H28.1864C28.7243 15.2547 31.0793 13.605 35.253 13.1756C36.0362 13.0997 36.865 13.0688 37.7911 13.0688H38.2575ZM128.573 3.85902L126.534 15.0205C126.963 14.6393 127.427 14.3077 127.934 14.0129C128.247 13.8054 128.575 13.6392 128.895 13.4806C129.651 13.1971 130.541 13.0693 131.579 13.0693C133.105 13.0693 134.431 13.5716 135.506 14.6393C136.609 15.6852 137.148 17.1537 137.148 19.029C137.148 21.6457 136.318 23.9556 134.685 25.9256C133.039 27.934 130.901 28.9423 128.247 28.9423H127.934C125.82 28.84 124.459 27.9866 123.816 26.3557L123.348 28.4701H117.637L122.165 3.85902H128.573ZM150.378 13.0688C152.837 13.0688 154.589 13.3719 155.589 14.0132C156.625 14.6396 157.127 15.6096 157.127 16.9194C157.127 17.4209 157.048 18.0255 156.949 18.7609L155.551 26.0688L155.372 27.059C155.444 27.4508 155.656 27.8283 156.052 28.2057L155.978 28.4704H149.412V26.832C148.775 27.326 148.084 27.7222 147.368 28.0659C146.048 28.6358 144.651 28.9426 143.146 28.9426H142.86C141.509 28.9426 140.288 28.5381 139.223 27.7982C138.442 27.2621 138.039 26.4583 138.039 25.3898V24.7597C138.083 24.5446 138.144 24.3822 138.144 24.3138C138.442 23.0122 139.044 22.0189 139.943 21.3054C140.69 20.7354 141.62 20.3015 142.687 19.9925L144.331 19.6978L146.657 19.3692C146.916 19.3353 147.16 19.2977 147.368 19.2677C148.661 19.0864 149.451 18.9278 149.801 18.7955C150.445 18.527 150.805 18.1541 150.805 17.6901C150.805 16.9954 150.163 16.6179 148.948 16.6179C148.307 16.6179 147.764 16.754 147.368 16.9954C146.941 17.2179 146.621 17.5841 146.438 18.0977H140.288C140.793 15.2547 143.146 13.605 147.368 13.1756C148.117 13.0997 148.982 13.0688 149.871 13.0688H150.378ZM57.952 13.0688C60.4233 13.0688 62.343 13.5711 63.7765 14.6396C64.9274 15.5833 65.4972 16.8209 65.4972 18.3503L65.4607 19.1992H59.0323L59.0589 18.8218C59.0589 18.3503 58.9176 17.9232 58.5978 17.5841C58.2757 17.2179 57.8107 17.0096 57.1627 17.0096C55.91 17.0096 54.9855 17.5157 54.4461 18.5616C53.9797 19.5316 53.6272 20.7993 53.4099 22.4498C53.4099 24.0837 54.2038 24.8958 55.7338 24.8958C57.0275 24.8958 57.952 24.1514 58.556 22.6723H64.8849C64.3174 24.7176 63.1012 26.2658 61.3152 27.2846C59.5276 28.3343 57.3861 28.8809 54.9148 28.8809C52.3388 28.8809 50.3727 28.2922 49.0121 27.126C47.6963 25.9259 47.0149 24.4845 47.0149 22.7099L47.1623 21.9092L47.2352 21.2114C47.6652 18.9278 48.7705 16.9954 50.552 15.4133C52.3752 13.8358 54.8404 13.0688 57.952 13.0688ZM100.872 13.0689C103.417 13.0689 104.943 13.975 105.52 15.8134C107.274 13.975 109.312 13.0689 111.631 13.0689C113.276 13.0689 114.562 13.3712 115.381 14.0434C116.242 14.7186 116.673 15.8134 116.673 17.3496C116.673 17.9534 116.631 18.694 116.494 19.5016L114.813 28.4705H108.45L109.881 20.7994C109.989 20.2031 110.056 19.6978 110.056 19.3354C110.056 18.7609 109.921 18.3504 109.671 18.1278C109.382 17.8669 108.957 17.7646 108.313 17.7646C107.697 17.7646 107.169 17.9233 106.655 18.2594C106.167 18.6294 105.765 19.4632 105.52 20.7994L104.091 28.4705H97.7311L99.198 20.6708L99.3089 19.3692C99.3089 18.2932 98.7657 17.7646 97.6589 17.7646C96.9805 17.7646 96.3689 17.988 95.8676 18.4715C95.4414 18.8978 95.0843 19.679 94.801 20.7994L93.372 28.4705H87.0423L89.8296 13.4389H95.6541L95.2651 15.6856C95.8676 14.9795 96.7328 14.3788 97.7728 13.8359C98.8432 13.3148 99.8422 13.0689 100.73 13.0689H100.872ZM190.165 3.88158L187.631 17.4214L192.577 12.8655H200L193.015 18.6523L197.877 28.4701H190.268L187.898 22.5435L186.514 23.6984L185.588 28.4701H179.231L183.802 3.88158H190.165ZM172.563 13.0688C174.169 13.0688 175.426 13.4019 176.352 14.1109C177.28 14.8132 177.747 15.9757 177.747 17.6216C177.747 18.1953 177.713 18.7954 177.567 19.4375L175.853 28.4703H169.533L171.019 20.4977L171.067 20.0375V19.5315C171.067 18.3239 170.459 17.7645 169.279 17.7645C168.428 17.7645 167.773 17.9532 167.352 18.3502C166.881 18.7615 166.528 19.5653 166.234 20.8L164.812 28.4703H158.417L161.242 13.4387H167.063L166.597 15.8396C168.384 13.9748 170.392 13.0688 172.563 13.0688ZM150.014 21.834C149.515 22.046 148.775 22.2415 147.764 22.4498C147.625 22.4498 147.484 22.4761 147.368 22.4761C147.016 22.5438 146.724 22.6122 146.476 22.7099L145.548 23.0844C145.122 23.2761 144.83 23.6837 144.725 24.2875V24.4161C144.725 25.186 145.298 25.5597 146.438 25.5597C146.756 25.5597 147.048 25.5259 147.368 25.4319C147.514 25.3898 147.696 25.3296 147.839 25.2537C148.307 25.0198 148.661 24.7597 148.948 24.4161C149.483 23.7859 149.839 22.91 150.014 21.834ZM37.8989 21.834C37.4006 22.046 36.6515 22.2415 35.689 22.4498L35.253 22.4761C34.9043 22.5438 34.6171 22.6122 34.3961 22.7099L33.4373 23.0844C32.999 23.2761 32.7536 23.6837 32.6123 24.2875V24.4161C32.6123 25.186 33.1821 25.5597 34.3292 25.5597C34.649 25.5597 34.9689 25.5259 35.253 25.4319C35.4414 25.3898 35.588 25.3296 35.7521 25.2537C36.1828 25.0198 36.5429 24.7597 36.8308 24.4161C37.3641 23.7859 37.7204 22.91 37.8989 21.834ZM77.7225 17.0099C77.3943 17.0099 77.1124 17.0557 76.8253 17.1196C76.0345 17.3197 75.4267 17.7874 75.0059 18.5611C74.5318 19.6032 74.1824 20.8755 73.962 22.3816C73.962 24.0456 74.6777 24.8953 76.1066 24.8953C76.3619 24.8953 76.6095 24.8953 76.8253 24.8163C77.6822 24.6576 78.3659 24.1516 78.8232 23.2764C79.3915 22.2417 79.7151 21.0447 79.7151 19.7431C79.7151 17.9235 79.0405 17.0099 77.7225 17.0099ZM128.646 17.6214C128.4 17.6214 128.146 17.659 127.934 17.6898C127.178 17.8139 126.604 18.1951 126.251 18.7959C125.784 19.6035 125.424 20.6712 125.136 22.0457C125.136 23.7518 125.856 24.612 127.28 24.612C127.502 24.612 127.713 24.5819 127.934 24.5443C128.678 24.3819 129.29 23.9217 129.784 23.1743C130.405 22.242 130.718 21.2118 130.718 20.1321C130.718 18.4711 130.038 17.6214 128.646 17.6214Z" fill="#0058A0"/>
</svg>
