<svg xmlns="http://www.w3.org/2000/svg" viewBox="0 0 400.4 100"><path fill="#D62A43" d="M0 0v77.7L65.9 100l65.7-22.3V0H0z"/><path fill="#FFF" d="M65.7 75.2H45.6v-7h-.2c-3.9 5.6-9.5 8.3-17.8 8.3C17.8 76.5 9 70.6 9 58V20.5h20.8v28.7c0 6.3.7 10.8 6.8 10.8 3.6 0 8.3-1.8 8.3-10.6V20.5h20.8v54.7zm39-38.8c-.2-1.8-1.1-3.2-2.5-4.1-1.3-1.1-2.9-1.6-4.7-1.6-2.9 0-6.3.7-6.3 4.1 0 1.6 1.3 2.3 2.5 2.9 3.4 1.4 11.3 2 18.3 4.1 7 2.2 13.1 6.3 13.1 15.3 0 15.3-14.5 19.2-27.8 19.2-12.9 0-26.9-5.2-27.3-19.2h19.9c.2 2 .9 3.4 2.5 4.8 1.1.9 3.1 1.6 5.6 1.6 2.7 0 7-1.1 7-4.1 0-3.2-1.8-4.1-11.5-5.7C77.6 51 71.3 46 71.3 36.4 71.3 22.6 86.2 19 97.1 19c11.8 0 26 3.2 26.6 17.2h-19v.2z"/><path fill="#1B3281" d="M139.1 0H160v26.6h.2c3.2-4.7 8.8-7.4 14.9-7.4 18.3 0 23.3 15.6 23.3 28.4 0 13.6-7.5 28.9-23 28.9-10.2 0-13.5-3.9-16-7.4h-.2V75h-20.1V0zm29.3 34.3c-7.5 0-9.2 7-9.2 13.5s1.6 13.6 9.2 13.6 9.2-7 9.2-13.6c0-6.3-1.8-13.5-9.2-13.5zM256.6 63c0 4.1.2 8.8 2.5 12.2h-21.4c-.5-1.4-.9-3.8-.7-5.2h-.2c-4.5 5-10.8 6.5-17.6 6.5-10.6 0-19.2-5-19.2-16.5 0-17.2 20.3-16.7 30.9-18.7 2.9-.5 5.7-1.4 5.7-4.8 0-3.8-3.4-5-6.8-5-6.5 0-7.7 3.2-7.7 5.6h-19.4c.7-15.4 15.3-18 28.2-18 26.2 0 25.9 10.8 25.9 21.4V63h-.2zm-20-12.4c-2.5 1.3-5.4 2-8.3 2.7-4.7 1.1-7 2.2-7 5.9 0 2.5 2.7 5 6.5 5 4.7 0 8.4-2.9 8.8-8.6v-5zm27.5-30.1h20.1v7h.2c3.9-5.6 9.5-8.3 17.8-8.3 9.9 0 18.9 5.9 18.9 18.5v37.5h-21V46.5c0-6.3-.7-10.8-6.8-10.8-3.6 0-8.3 1.8-8.3 10.6v28.9h-20.8V20.5zM328.4 0h20.8v36.3l13.3-15.8H386l-19.6 20.6L389 75.2h-25.1l-11.1-19.7-3.8 3.9v15.8h-20.8V0h.2zm70 67.7c.7.7 1.3 1.8 1.3 2.9s-.4 2.2-1.3 2.9c-.7.7-1.8 1.3-2.9 1.3s-2.2-.4-2.9-1.3c-.7-.7-1.3-1.8-1.3-2.9s.4-2.2 1.3-2.9c.7-.7 1.8-1.3 2.9-1.3 1.1.2 2.2.6 2.9 1.3zm.5-.4c-.9-.9-2-1.4-3.4-1.4-1.3 0-2.3.5-3.4 1.4-.9.9-1.4 2-1.4 3.4 0 1.3.5 2.5 1.4 3.4.9.9 2 1.4 3.4 1.4 1.3 0 2.3-.5 3.4-1.4.9-.9 1.4-2 1.4-3.4-.1-1.4-.5-2.5-1.4-3.4zm-2.7 3.1c-.2 0-.5.2-.9.2h-.9v-1.8h.7c.5 0 .9 0 1.1.2.2.2.4.4.4.7.2.3 0 .5-.4.7zm-2.7 2.8h.9v-2h.7c.5 0 .9 0 1.1.2.4.2.5.5.5 1.3v.5h.9v-1.1c0-.2-.2-.5-.4-.7-.2-.4-.5-.4-.9-.5.4 0 .5-.2.7-.2.4-.2.5-.5.5-1.1 0-.7-.2-1.1-.7-1.3-.4-.2-.7-.2-1.4-.2h-1.8v5h-.1z"/></svg>