<?xml version="1.0" encoding="utf-8"?>
<svg id="master-artboard" viewBox="0 0 1400 980" version="1.1" xmlns="http://www.w3.org/2000/svg" x="0px" y="0px" style="enable-background:new 0 0 1400 980;" width="1400px" height="980px"><defs><style id="ee-google-fonts">@import url(https://fonts.googleapis.com/css?family=Fjalla+One:400|Roboto:100,100italic,300,300italic,400,400italic,500,500italic,700,700italic,900,900italic);</style></defs>











































<g transform="matrix(0.9999999999999999, 0, 0, 0.9999999999999999, 1.8189894035458565e-12, 4.547473508864641e-13)">
		<path class="st13" d="M448.4,599.9" style="fill: rgb(223, 243, 251);"/>
	</g>





















































<g transform="matrix(17.5, 0, 0, 17.5, 139.27359624212136, 55.287228348505195)"><g>
        <path xmlns="http://www.w3.org/2000/svg" style="fill: #0066b3" d="M23.4,16.4h-2.6c-0.8,0-1.1,0.3-1.4,1.5c-1,4.1-2.1,10.5-4.4,13.9c0,0-0.5,0.9-1.2,0.9s-1.3-0.9-1.3-0.9 c-2.3-3.4-3.9-9.8-4.8-13.9c-0.3-1.2-0.5-1.5-1.4-1.5H3.7c-0.9,0-1.1,0.7-1,1.4c1,4.2,2.4,10.6,5.6,16.1c1.5,2.6,3,4,5.5,4.1 c2.6,0,4-1.4,5.5-4.1c3.2-5.5,4.2-11.9,5-16.1C24.5,17.2,24.3,16.4,23.4,16.4 M31.4,16.4h-2.9c-0.5,0-0.9,0.4-0.9,0.9v19.3 c0,0.5,0.4,0.9,0.9,0.9h2.9c0.5,0,0.9-0.4,0.9-0.9V17.4C32.3,16.9,31.9,16.4,31.4,16.4 M46.5,33.9h-5.3v-5.7h5.3 c2.2,0,3.7,0.9,3.7,2.9C50.2,33.3,48.3,33.9,46.5,33.9 M41.2,20h4.7c1.9,0,3,0.8,3,2.3c0,1.6-1.2,2.4-2.8,2.4h-4.9V20z M50.7,26.1 c0.2-0.1,0.2-0.1,0.3-0.2c1.5-0.8,2.7-2.4,2.7-4.3c0-3.7-2.9-5.1-7.1-5.1c0,0-8.4,0-9,0c-0.7,0-1.1,0.4-1.1,1.1v18.8 c0,0.9,0.4,1.2,1,1.2s10.1,0,10.1,0c4.3,0,7.4-1.9,7.4-6.2C55.1,28.7,53.4,26.7,50.7,26.1"/>

    </g><g xmlns="http://www.w3.org/2000/svg" transform="matrix(0.473109632730484, 0, 0, 0.473109632730484, 50.05274581909178, 6.549342564628157)">
        <path fill="#FCB813" d="M28.9,4.8c-2.7,0-3.8,0.7-5.4,2.2l-3.4,3.7L16.8,7c-1.5-1.5-2.6-2.2-5.4-2.2h-4c0,0,6.2,7.7,7,8.6 c1.4,1.5,2.2,2.2,4.1,2.2h3.3c1.8,0,2.7-0.7,4.1-2.2c0.8-0.8,7-8.6,7-8.6S28.9,4.8,28.9,4.8z"/>
        <path fill="#F37920" d="M26.7,14.9c-1.9,0.4-3,0.8-4,2.5l-0.8,1.4L21,20.1c-1,1.6-0.7,2.7-0.1,4.7c0.4,1.1,4,10.3,4,10.3l1.9-3.4 c1.4-2.3,1.4-3.7,0.8-5.8l-1.5-4.7l4.9-1.1c2.1-0.5,3.2-1.2,4.5-3.6l1.9-3.4C37.6,13.1,27.8,14.6,26.7,14.9"/>
        <path fill="#F6921E" d="M19.1,20.1l-0.8-1.4l-0.8-1.4c-1-1.6-2.1-2.1-4-2.5c-1.1-0.3-11-1.8-11-1.8l1.9,3.4c1.4,2.3,2.5,3,4.5,3.6 l5.1,1.1L12.5,26C12,28,12,29.4,13.3,31.7l1.9,3.4c0,0,3.6-9.2,4-10.3C19.9,22.8,20.1,21.7,19.1,20.1"/></g></g></svg>