<svg xmlns="http://www.w3.org/2000/svg" width="230" height="57.553" viewBox="0 0 230 57.553"><defs><style>.a{fill:#005993}</style></defs><path class="a" d="M65.995 41.791V37.2h-3.18v-4.91h-5.793v4.91h-2.9v4.591h2.9v8.458a6.853 6.853 0 007 6.663l1.964-.062.008-5.124a5.865 5.865 0 01-.379.025 2.8 2.8 0 01-2.8-2.81v-7.15zm-12.948 7.061H38.199a4.686 4.686 0 004.7 4.322 4.783 4.783 0 004.111-2.445h5.52a10.794 10.794 0 01-3.667 4.87 9.819 9.819 0 01-5.9 1.9 9.951 9.951 0 01-7.323-3.049 10.626 10.626 0 01-.069-14.714 10.151 10.151 0 0114.714 0 10.409 10.409 0 012.912 7.563 11.729 11.729 0 01-.152 1.551m-5.556-3.946a4.668 4.668 0 00-9.192 0zm-22.853-2.493a5.2 5.2 0 015.215-5.221h.57v19.723h-5.77zm43.699 0a5.2 5.2 0 015.215-5.221h.57v19.723h-5.768zm21.072 14.497v-11.92a3.147 3.147 0 00-3.157-3.169 3.184 3.184 0 00-3.3 3.264v11.825h-5.883V37.23h5.486v2.094h.087a7.055 7.055 0 0112.651 4.3v13.284zm47.19-19.695v2.093h-.068a5.206 5.206 0 00-2.459-2.11 7.764 7.764 0 00-3.209-.657 9.083 9.083 0 00-7.067 3.1 10.687 10.687 0 00-2.68 7.4 10.848 10.848 0 002.629 7.454 9.092 9.092 0 007.119 3.061 8 8 0 003.227-.64 4.758 4.758 0 002.441-2.162h.068v2.127h5.8V37.213zm-1.411 13.4a4.693 4.693 0 01-6.773-.017 4.908 4.908 0 01-1.352-3.493 5.134 5.134 0 011.3-3.581 4.352 4.352 0 013.386-1.487 4.524 4.524 0 013.42 1.418 4.984 4.984 0 011.351 3.581 5.055 5.055 0 01-1.335 3.58"/><path d="M200.271 16.259h13.471v11.865a44.152 44.152 0 0114.068 4.66 22.983 22.983 0 10-41.609-.014 44.22 44.22 0 0114.069-4.653z" fill-rule="evenodd" fill="#005993"/><path d="M207.008 45.94a22.979 22.979 0 0019.227-10.382 41.256 41.256 0 00-38.454-.013 22.954 22.954 0 0019.227 10.395" fill="#d71249" fill-rule="evenodd"/><path class="a" d="M157.675 56.908v-11.92a3.147 3.147 0 00-3.157-3.169 3.184 3.184 0 00-3.3 3.264v11.825h-5.884V37.23h5.486v2.094h.087a7.055 7.055 0 0112.651 4.3v13.284zM12.98 56.9a4.817 4.817 0 004.487-3.269c2.446-6.32 9.9-25.23 9.9-25.23h-5.962l-7.1 18.087-7.092-18.087H0l11.186 28.5zm101.863-15.281c3.8-2.07 3.564-5.6 3.175-7.543-.487-2.434-3.073-5.677-8.9-5.643H98.243v28.475h11.066c7.146 0 10.411-4.149 10.32-8.634a6.526 6.526 0 00-4.789-6.655m-9.963-7.92h4.279a3 3 0 013.115 2.953 3.048 3.048 0 01-3.115 2.952h-4.279zm5.425 17.943h-5.459v-6.771h5.347a3.386 3.386 0 11.106 6.771m67.58-5.686l8.324-8.75h-7.376l-6.322 7.017.015-10.667a5.2 5.2 0 00-5.215-5.221h-.811v28.542h6.011v-8.854l5.957 8.854h7.74z"/></svg>