<?xml version="1.0" encoding="utf-8"?>
<!-- Generator: Adobe Illustrator 18.0.0, SVG Export Plug-In . SVG Version: 6.00 Build 0)  -->
<svg version="1.1" id="Layer_1" xmlns="http://www.w3.org/2000/svg"
	xmlns:xlink="http://www.w3.org/1999/xlink" x="0px" y="0px"
	viewBox="0 0 150 37" enable-background="new 0 0 150 37" xml:space="preserve">
<g>
	<g>
		<g>
			<path fill="#E10600" d="M39.5,13.5h-4.6c-2.7,0-5.2,1.2-6.9,3.2l-7.3,8.4v9.6c2.3-0.3,3.6-1.9,3.6-1.9L40,14.6
				C40.4,14.2,40.1,13.5,39.5,13.5z"/>
			<path fill="#E10600" d="M0.6,13.5h4.6c2.7,0,5.2,1.2,6.9,3.2l7.3,8.4v9.6c-2.3-0.3-3.6-1.9-3.6-1.9L0.2,14.6
				C-0.2,14.2,0.1,13.5,0.6,13.5z"/>
			<path fill="#E10600" d="M29.4,1.7v9.4c0,1.3-0.5,2.6-1.3,3.6l-7.3,8.5V10l7.6-8.8C28.6,0.8,29.4,1.1,29.4,1.7z"/>
			<path fill="#E10600" d="M10.8,1.7v9.4c0,1.3,0.5,2.6,1.3,3.6l7.3,8.5V10l-7.6-8.8C11.5,0.8,10.8,1.1,10.8,1.7z"/>
		</g>
	</g>
	<g>
		<path fill="#00B74F" d="M149.4,14.2c0.4,0.4,0.6,0.9,0.6,1.4c0,0.5-0.2,1-0.6,1.4c-0.4,0.4-0.9,0.6-1.4,0.6c-0.5,0-1-0.2-1.4-0.6
			s-0.6-0.9-0.6-1.4c0-0.5,0.2-1,0.6-1.4c0.4-0.4,0.9-0.6,1.4-0.6C148.6,13.6,149,13.8,149.4,14.2 M149.6,15.6
			c0-0.4-0.2-0.8-0.5-1.1c-0.3-0.3-0.7-0.5-1.1-0.5c-0.4,0-0.8,0.2-1.1,0.5c-0.3,0.3-0.5,0.7-0.5,1.1c0,0.4,0.2,0.8,0.5,1.1
			c0.3,0.3,0.7,0.5,1.1,0.5c0.4,0,0.8-0.2,1.1-0.5C149.5,16.4,149.6,16,149.6,15.6 M147.2,16.7v-2.3h0.8c0.3,0,0.5,0,0.6,0.1
			c0.2,0.1,0.3,0.3,0.3,0.6c0,0.3-0.2,0.6-0.5,0.7c0.1,0.1,0.3,0.4,0.6,0.9h-0.6l-0.5-0.8h-0.2v0.8H147.2z M147.8,14.9v0.5h0.3
			c0.3,0,0.4-0.1,0.4-0.3c0-0.2-0.1-0.3-0.4-0.3H147.8z"/>
		<g>
			<path fill="#E10600" d="M146.5,19.6h-2.4c-1.4,0-2.7,0.6-3.6,1.6l-3.8,4.4v5c1.2-0.2,1.9-1,1.9-1l8.1-9.5
				C146.9,19.9,146.7,19.6,146.5,19.6z"/>
			<path fill="#00B74F" d="M140.8,27.4l-1.1,1.2c-0.7,0.7-0.7,1.9,0,2.6c1.1,1.4,2.8,3.5,2.8,3.5h4.3L140.8,27.4z"/>
			<path fill="#00B74F" d="M51.8,34.8l-7.1-21.3h4.6l5.2,16.3l5.2-16.3h4.6L57,34.8H51.8z"/>
			<path fill="#00B74F" d="M74,13.5c2,0,3.8,0.7,5.2,2.1c1.4,1.4,2.1,3.1,2.1,5.1s-0.7,3.7-2.1,5.1c-1.4,1.4-3.1,2.1-5.2,2.1h-3.7v7
				h-4.2V13.5H74z M74,23.9c1.8,0,3.1-1.4,3.1-3.2c0-1.9-1.3-3.2-3.1-3.2h-3.7v6.4H74z"/>
			<path fill="#00B74F" d="M98.9,28.6c0,1.8-0.6,3.3-1.9,4.4c-1.3,1.2-2.9,1.7-4.7,1.7h-9V13.5h8.4c1.8,0,3.3,0.6,4.6,1.7
				c1.2,1.1,1.9,2.6,1.9,4.3c0,1.8-0.7,3.2-2,4.3C97.9,24.8,98.9,26.5,98.9,28.6z M87.4,17.4v4.7h4.2c1.3,0,2.3-1,2.3-2.3
				c0-1.3-0.9-2.3-2.3-2.3H87.4z M92.3,30.9c1.4,0,2.5-1.1,2.5-2.5c0-1.4-1-2.5-2.5-2.5h-4.8v5H92.3z"/>
			<path fill="#00B74F" d="M129.9,20.8c1.1,1.1,1.6,2.6,1.6,4.6v9.3h-3.9V26c0-2-1.2-3.1-3-3.1c-2,0-3.3,1.2-3.3,3.8v8.2h-3.9V19.6
				h3.9v1.7c0.9-1.4,2.5-2.1,4.5-2.1C127.4,19.2,128.8,19.7,129.9,20.8z"/>
			<path fill="#00B74F" d="M136.7,26.3v8.5h-3.9V13.5h3.9V26.3"/>
			<path fill="#00B74F" d="M112.1,19.6v1.8c-1.2-1.5-2.8-2.2-5-2.2c-2,0-3.8,0.8-5.2,2.3c-1.4,1.5-2.2,3.4-2.2,5.7
				c0,2.2,0.7,4.2,2.2,5.7c1.5,1.5,3.2,2.3,5.2,2.3c2.1,0,3.8-0.7,5-2.2v1.8h3.9V19.6H112.1z M107.9,31.6c-2.4,0-4.4-2-4.4-4.4
				c0-2.4,2-4.4,4.4-4.4c2.4,0,4.4,2,4.4,4.4C112.3,29.6,110.3,31.6,107.9,31.6z"/>
		</g>
	</g>
</g>
</svg>