<?xml version="1.0" encoding="utf-8"?>
<!-- Generator: Adobe Illustrator 18.0.0, SVG Export Plug-In . SVG Version: 6.00 Build 0)  -->
<!DOCTYPE svg PUBLIC "-//W3C//DTD SVG 1.1//EN" "http://www.w3.org/Graphics/SVG/1.1/DTD/svg11.dtd">
<svg version="1.1" id="Layer_1" xmlns="http://www.w3.org/2000/svg" xmlns:xlink="http://www.w3.org/1999/xlink" x="0px" y="0px"
	 viewBox="0 0 428 56.7" enable-background="new 0 0 428 56.7" xml:space="preserve">
<g>
	<g>
		<g id="XMLID_9_">
			<path id="XMLID_10_" fill="#0E62AF" d="M42.5,14.3L23.8,42.5h-5.6V14.3h4.7v21.2l14-21.2C36.9,14.3,42.5,14.3,42.5,14.3z
				 M31.6,49.6L48.7,7.1H18L0.9,49.6H31.6z M75.8,19h-8.8l-9.5,23.6h-5.1L61.9,19h-8.8l1.9-4.7h22.7L75.8,19z M67.4,49.6L84.5,7.2
				H53.9L36.7,49.7h30.7V49.6z M111.3,32.7L111.3,32.7c-3.7,9.1-11.8,14.4-18,12l0,0C87.1,42.3,85.2,33,89,24.1l0,0
				c3.7-9.1,11.8-14.4,18-12l0,0l0,0l1.5-3.8c-0.2-0.1-0.3-0.1-0.5-0.2c-0.1,0-0.1-0.1-0.2-0.1c-7.5-2.3-16.9,4.2-21.4,15l0,0l0,0
				l0,0l0,0c-4.6,11.1-2.2,22.6,5.3,25.5c0.2,0.1,0.5,0.2,0.7,0.2c0.1,0,0.1,0,0.2,0.1c0.2,0,0.3,0.1,0.5,0.1c0.2,0,0.4,0.1,0.5,0.1
				c0.1,0,0.1,0,0.2,0c7.3,1.1,15.7-5.2,20-15.3l0,0l0,0v-0.1l-2.6-1C111.3,32.7,111.3,32.7,111.3,32.7 M104.2,29.8
				c1.2-3.1,0.6-6.4-1.5-7.3c0,0-0.1,0-0.1-0.1l0,0c-2.2-0.9-5.1,1.1-6.6,4.3c-1.4,3.2-0.7,6.7,1.6,7.5l0,0c2.2,0.9,5.1-1.1,6.6-4.3
				C104.2,29.9,104.2,29.9,104.2,29.8 M106,30.5c0,0.1,0,0.1-0.1,0.2l0,0c-1.9,4.7-6.2,7.5-9.4,6.3l0,0c-0.1,0-0.1,0-0.2-0.1
				c0,0-0.1,0-0.1-0.1l0,0c-2.9-1.4-3.8-6.2-1.9-10.7l0,0c1.9-4.7,6.2-7.5,9.4-6.3l0,0h0.1h0.1c0,0,0.1,0,0.1,0.1c0,0,0,0,0.1,0
				C106.9,21.4,107.8,26.1,106,30.5 M105.1,16.4L105.1,16.4c-0.7-0.3-1.4-0.4-2.2-0.4c-4.1-0.1-8.7,3.6-11,9.2l0,0
				c-1.1,2.7-1.5,5.4-1.4,7.9v0.1c0,0.1,0,0.3,0,0.4c0,0.1,0,0.3,0.1,0.4V34c0.5,3,2,5.3,4.4,6.4c1,0.4,2,0.5,3.1,0.4
				c3.8-0.4,7.9-4,10.1-9.2l0,0l0,0c0,0,0-0.1,0.1-0.1c1.1-2.6,1.5-5.3,1.3-7.7c0-0.1,0-0.2,0-0.3s0-0.2,0-0.3
				C109.2,20,107.7,17.4,105.1,16.4C105.2,16.4,105.1,16.4,105.1,16.4 M118.8,35.7l-3-1.2c0,0,0,0,0,0.1l0,0l0,0
				c-5.2,12.6-16.5,20.2-25.2,16.7s-11.4-16.3-6.1-29.1l0,0C89.8,9.6,101,2.1,109.6,5.4l1.8-4.4c-0.9-0.4-1.9-0.6-2.8-0.8
				c0,0,0,0-0.1,0c-0.1,0-0.3,0-0.4-0.1c-0.1,0-0.2,0-0.3,0s-0.1,0-0.2,0c-9.7-0.7-20.7,7.9-26.1,21.1l0,0l0,0l0,0
				c-6.3,15.1-3,30.6,7.3,34.6l0,0l0,0c1,0.4,1.9,0.6,2.9,0.8c0,0,0,0,0.1,0c0.1,0,0.3,0,0.4,0.1c0.1,0,0.2,0,0.3,0s0.1,0,0.2,0
				C102.3,57.4,113.3,49,118.8,35.7L118.8,35.7L118.8,35.7"/>
		</g>
		<g id="XMLID_1_">
			<g id="XMLID_3_">
				<path id="XMLID_8_" fill="#0E62AF" d="M204.9,7.2l-10,10l-10-10H177l0,0h-5.8c3.8,0,7.4,1.5,9.9,4l0,0l9.9,9.9l-10,10
					c-2.5,2.4-6,3.9-9.8,3.9h5.8h5.2h2.9l27.8-27.8C213.1,7.2,204.9,7.2,204.9,7.2z"/>
				<path id="XMLID_7_" fill="#0E62AF" d="M176.8,12.9c0-3.1-2.5-5.5-5.5-5.5h-11.1c-3.1,0-5.5,2.5-5.5,5.5h16.6v16.7h-16.7V18.5
					l-5.5,5.5v5.5c0,3.1,2.5,5.5,5.5,5.5l0,0h16.7l0,0c3.1,0,5.5-2.5,5.5-5.5l0,0V12.9L176.8,12.9z"/>
				<path id="XMLID_4_" fill="#0E62AF" d="M149,12.9c0-3.1-2.5-5.5-5.5-5.5h-16.7c-3.1,0-5.5,2.5-5.5,5.5v22.3h5.5V24h16.7l0,0h5.5
					v-5.5V12.9L149,12.9z M143.4,13.3v5h-9.8h-7v-5.4h16.7V13.3z"/>
			</g>
			
				<linearGradient id="XMLID_6_" gradientUnits="userSpaceOnUse" x1="126.3048" y1="36.1307" x2="165.3562" y2="36.1307" gradientTransform="matrix(0.9998 0 0 -0.9998 22.7088 57.2999)">
				<stop  offset="0" style="stop-color:#0E62AF"/>
				<stop  offset="1" style="stop-color:#2BACE2"/>
			</linearGradient>
			<polygon id="XMLID_2_" fill="url(#XMLID_6_)" points="179.9,13.1 179.7,12.9 179.7,18.4 154.5,18.4 149,24 179.7,24 179.7,29.5 
				179.7,29.5 188,21.1 			"/>
		</g>
	</g>
	<g>
		<path fill="#0E62AF" d="M263.8,3.5L263.8,3.5c0,0.1,0,0.1,0,0.1l-3.9,15.1c-0.4,1.6-1.5,2.4-3.3,2.4c-1.8,0-2.9-0.8-3.3-2.4
			l-3.9-15.1V3.5l0,0c0-0.1,0-0.2,0.1-0.3c0.1-0.1,0.2-0.1,0.3-0.1h2.5c0.1,0,0.2,0,0.3,0.1c0.1,0.1,0.1,0.2,0.2,0.3l3.5,14.4
			c0,0.2,0.1,0.3,0.1,0.3c0,0.1,0.1,0.1,0.2,0.1c0.1,0,0.2,0,0.2-0.1s0.1-0.2,0.1-0.3l3.5-14.4c0-0.1,0.1-0.2,0.2-0.3
			c0.1-0.1,0.2-0.1,0.3-0.1h2.5c0.1,0,0.2,0,0.3,0.1C263.8,3.3,263.8,3.4,263.8,3.5z"/>
		<path fill="#0E62AF" d="M271.4,2.4c0,0.1,0,0.1-0.1,0.2l-2.8,3c-0.1,0.1-0.2,0.2-0.3,0.2c-0.1,0.1-0.2,0.1-0.3,0.1h-2.1
			c-0.1,0-0.2-0.1-0.2-0.2c0-0.1,0-0.2,0.1-0.2l2.3-2.9c0.1-0.1,0.2-0.2,0.3-0.3c0.1,0,0.2-0.1,0.3-0.1h2.5
			C271.3,2.2,271.4,2.3,271.4,2.4z M268.9,20.4c0,0.1,0,0.3-0.1,0.4c-0.1,0.1-0.2,0.1-0.3,0.1h-2.2c-0.1,0-0.3-0.1-0.3-0.2
			c-0.1-0.1-0.1-0.2-0.1-0.3V7.8c0-0.1,0-0.2,0.1-0.3c0.1-0.1,0.2-0.1,0.3-0.1h2.2c0.1,0,0.3,0,0.4,0.1c0.1,0.1,0.1,0.2,0.1,0.3
			v12.6H268.9z"/>
		<path fill="#0E62AF" d="M288.7,19.8c0,0.2,0,0.3-0.1,0.4c-0.1,0.1-0.3,0.2-0.5,0.2c-0.7,0.2-1.5,0.3-2.4,0.5
			c-0.8,0.1-1.6,0.2-2.4,0.2c-1,0-1.8-0.1-2.5-0.4c-0.7-0.3-1.3-0.7-1.8-1.2c-0.5-0.5-0.8-1.1-1.1-1.9c-0.2-0.7-0.4-1.6-0.4-2.5
			v-1.8c0-0.9,0.1-1.8,0.4-2.5c0.2-0.7,0.6-1.4,1.1-1.9c0.5-0.5,1.1-0.9,1.8-1.2c0.7-0.3,1.6-0.4,2.5-0.4c0.3,0,0.6,0,1,0
			c0.4,0,0.8,0.1,1.3,0.1V5.9H282c-0.1,0-0.2,0-0.3-0.1c-0.1-0.1-0.1-0.2-0.1-0.3V4.1c0-0.1,0-0.2,0.1-0.3c0.1-0.1,0.2-0.1,0.3-0.1
			h3.6V3.1c0-0.1,0-0.2,0.1-0.3c0.1-0.1,0.2-0.1,0.3-0.1h2.2c0.1,0,0.2,0,0.3,0.1c0.1,0.1,0.1,0.2,0.1,0.3v0.5h1.1
			c0.1,0,0.2,0,0.3,0.1c0.1,0.1,0.1,0.2,0.1,0.3v1.3c0,0.1,0,0.2-0.1,0.3c-0.1,0.1-0.2,0.1-0.3,0.1h-1.1v14.1H288.7z M285.5,9.9
			c-0.2,0-0.3,0-0.6-0.1c-0.2,0-0.4,0-0.6-0.1c-0.2,0-0.4,0-0.6,0c-0.2,0-0.4,0-0.5,0c-0.5,0-0.9,0.1-1.3,0.3
			c-0.3,0.2-0.6,0.4-0.8,0.7c-0.2,0.3-0.3,0.7-0.4,1.1c-0.1,0.4-0.1,0.9-0.1,1.4v1.8c0,0.5,0,0.9,0.1,1.4c0.1,0.4,0.2,0.8,0.4,1.1
			c0.2,0.3,0.5,0.5,0.8,0.7c0.3,0.2,0.8,0.3,1.3,0.3c0.2,0,0.4,0,0.6,0c0.2,0,0.4,0,0.6,0c0.2,0,0.4,0,0.6-0.1c0.2,0,0.3,0,0.4-0.1
			V9.9H285.5z"/>
		<path fill="#0E62AF" d="M294.9,5.1c0,0.1,0,0.3-0.1,0.3c-0.1,0-0.2,0.1-0.3,0.1h-2.3c-0.1,0-0.2,0-0.3-0.1
			c-0.1-0.1-0.2-0.2-0.2-0.3V3c0-0.1,0.1-0.2,0.2-0.3c0.1-0.1,0.2-0.1,0.3-0.1h2.3c0.1,0,0.2,0,0.3,0.1c0.1,0.1,0.1,0.2,0.1,0.3V5.1
			z M294.9,20.4c0,0.1,0,0.3-0.1,0.4c-0.1,0.1-0.2,0.1-0.3,0.1h-2.2c-0.1,0-0.3-0.1-0.3-0.2c-0.1-0.1-0.1-0.2-0.1-0.3V7.8
			c0-0.1,0-0.2,0.1-0.3c0.1-0.1,0.2-0.1,0.3-0.1h2.2c0.1,0,0.3,0,0.3,0.1c0.1,0.1,0.1,0.2,0.1,0.3V20.4z"/>
		<path fill="#0E62AF" d="M303.4,21.1c-1,0-2-0.2-2.9-0.6c-0.9-0.4-1.7-1-2.3-1.9c-0.6-0.9-0.9-2.1-0.9-3.5v-1.8
			c0-1.2,0.2-2.3,0.7-3.2c0.4-0.9,1.1-1.6,2-2.1c0.9-0.5,1.9-0.7,3.1-0.7s2.2,0.3,3.1,0.8c0.9,0.5,1.5,1.2,1.9,2.1
			c0.4,0.9,0.7,2,0.7,3.2v1.3c0,0.4-0.2,0.6-0.5,0.6h-7.9v0.1c0,0.9,0.2,1.6,0.7,2.2s1.3,0.8,2.5,0.8c0.7,0,1.4-0.1,2.2-0.2
			c0.8-0.1,1.4-0.3,1.9-0.4c0.3-0.1,0.5,0,0.5,0.4v1.4c0,0.2,0,0.3-0.1,0.4s-0.2,0.2-0.4,0.3c-0.5,0.3-1.1,0.5-1.9,0.7
			C305.1,21,304.3,21.1,303.4,21.1z M307.5,5.7c0,0.1-0.1,0.2-0.2,0.2h-2c-0.1,0-0.2,0-0.2,0c-0.1,0-0.1-0.1-0.2-0.1
			c-0.1-0.1-0.1-0.1-0.2-0.2l-1.7-1.9l-1.7,1.9c-0.1,0.1-0.2,0.2-0.3,0.3c-0.1,0-0.2,0.1-0.3,0.1h-2c-0.1,0-0.2-0.1-0.2-0.2
			s0-0.2,0.1-0.2l2.2-2.9c0.1-0.2,0.2-0.3,0.3-0.3c0.1,0,0.2-0.1,0.3-0.1h3.1c0.1,0,0.3,0,0.3,0.1c0.1,0,0.2,0.1,0.3,0.3l2.2,2.9
			C307.5,5.5,307.5,5.6,307.5,5.7z M305.6,13L305.6,13c0-1.1-0.2-1.8-0.7-2.3s-1.1-0.7-1.8-0.7c-0.5,0-0.9,0.1-1.3,0.3
			c-0.4,0.2-0.7,0.5-0.9,1c-0.2,0.4-0.3,1-0.3,1.6V13C300.5,13,305.6,13,305.6,13z M304.2,25.5c0,0.1-0.1,0.3-0.2,0.3
			c-0.1,0.1-0.2,0.1-0.3,0.1h-1.7c-0.1,0-0.2,0-0.3-0.1c-0.1-0.1-0.2-0.2-0.2-0.3v-2.1c0-0.1,0.1-0.2,0.2-0.3
			c0.1-0.1,0.2-0.1,0.3-0.1h1.7c0.1,0,0.2,0,0.3,0.1c0.1,0.1,0.2,0.2,0.2,0.3V25.5z"/>
		<path fill="#0E62AF" d="M322.2,20.4c0,0.1,0,0.2-0.1,0.3s-0.2,0.2-0.3,0.2h-2.2c-0.1,0-0.2-0.1-0.3-0.2c-0.1-0.1-0.1-0.2-0.1-0.3
			v-8c0-0.6-0.1-1.1-0.2-1.5c-0.1-0.4-0.4-0.6-0.7-0.8c-0.3-0.2-0.8-0.3-1.4-0.3c-0.7,0-1.5,0.1-2.3,0.3v10.3c0,0.1,0,0.3-0.1,0.4
			c-0.1,0.1-0.2,0.1-0.3,0.1h-2.2c-0.1,0-0.3-0.1-0.3-0.2c-0.1-0.1-0.1-0.2-0.1-0.3v-12c0-0.2,0.2-0.4,0.5-0.5
			c0.8-0.2,1.6-0.4,2.6-0.5c0.9-0.1,1.8-0.2,2.5-0.2c1.9,0,3.2,0.4,4.1,1.2c0.9,0.8,1.3,2.2,1.3,4v8H322.2z"/>
		<path fill="#0E62AF" d="M338.8,20.5c0,0.2-0.2,0.4-0.5,0.4c-0.7,0.1-1.3,0.2-1.9,0.2c-0.9,0-1.7-0.1-2.2-0.3
			c-0.5-0.2-0.9-0.6-1.2-1.1s-0.4-1.3-0.4-2.4V9.7l-2-0.3c-0.3-0.1-0.5-0.2-0.5-0.5V7.8c0-0.1,0-0.2,0.1-0.3
			c0.1-0.1,0.2-0.1,0.3-0.1h2v-2c0-0.3,0.2-0.4,0.5-0.5l2.2-0.4h0.1c0.2,0,0.4,0.1,0.4,0.4v2.5h2.4c0.1,0,0.3,0,0.3,0.1
			c0.1,0.1,0.1,0.2,0.1,0.3v1.4c0,0.1,0,0.2-0.1,0.3c-0.1,0.1-0.2,0.1-0.3,0.1h-2.3v7.6c0,0.6,0.1,1,0.2,1.1
			c0.1,0.1,0.4,0.2,0.8,0.2h1.5c0.3,0,0.5,0.1,0.5,0.4V20.5z"/>
		<path fill="#0E62AF" d="M351.7,12v7.9c0,0.2-0.2,0.4-0.5,0.5c-0.9,0.2-1.7,0.4-2.6,0.5c-0.9,0.1-1.7,0.2-2.5,0.2
			c-1,0-1.8-0.1-2.4-0.3c-0.7-0.2-1.2-0.5-1.7-0.9c-0.5-0.4-0.8-1-1-1.6c-0.2-0.7-0.3-1.4-0.3-2.4v-8c0-0.1,0-0.2,0.1-0.3
			c0.1-0.1,0.2-0.2,0.3-0.2h2.2c0.1,0,0.3,0,0.3,0.1c0.1,0.1,0.1,0.2,0.1,0.4v8c0,0.5,0,0.9,0.1,1.2c0.1,0.3,0.2,0.6,0.4,0.8
			c0.2,0.2,0.4,0.4,0.7,0.5c0.3,0.1,0.7,0.1,1.2,0.1c0.8,0,1.6-0.1,2.3-0.3V7.9c0-0.1,0-0.2,0.1-0.3c0.1-0.1,0.2-0.2,0.3-0.2h2.2
			c0.1,0,0.2,0.1,0.3,0.2c0.1,0.1,0.1,0.2,0.1,0.3v2c0.3-0.3,0.5-0.6,0.5-1V7.6c0-0.2,0.1-0.3,0.4-0.3h1.5c0.2,0,0.3,0.1,0.3,0.2
			C354.7,10.2,353.7,11.7,351.7,12z M346.1,1.9c-0.2,0-0.6,0.1-1.1,0.3c-0.2,0.1-0.4,0.1-0.5,0s-0.2-0.2-0.2-0.3V1.1
			c0-0.1,0-0.1,0.1-0.2c0.1-0.1,0.2-0.2,0.5-0.3c0.3-0.1,0.6-0.2,0.9-0.3c0.3-0.1,0.7-0.1,1.2,0c0.5,0,0.9,0.2,1.3,0.5
			s0.6,0.8,0.6,1.4v0.1c0,0.3,0,0.5-0.1,0.8c-0.1,0.2-0.3,0.6-0.6,0.9l-0.8,0.7c0,0-0.1,0.1-0.2,0.2c-0.1,0.1-0.1,0.2-0.2,0.2
			c0,0.1-0.1,0.1-0.1,0.2c0,0.1,0,0.2,0,0.2V6c0,0.1,0,0.1-0.1,0.2c-0.1,0.1-0.2,0.1-0.4,0.1h-0.9c-0.2,0-0.3,0-0.4-0.1
			C345,6.1,345,6.1,345,6V5.6c0-0.3,0-0.6,0.1-0.8c0.1-0.2,0.3-0.5,0.5-0.8l0.7-0.8c0.1-0.1,0.2-0.3,0.3-0.5
			c0.1-0.2,0.1-0.4,0.1-0.5s-0.1-0.2-0.2-0.3C346.5,1.9,346.3,1.9,346.1,1.9z"/>
		<path fill="#0E62AF" d="M256.4,51.7c-0.8,0-1.5-0.1-2.3-0.3c-0.8-0.2-1.5-0.6-2.1-1.2c-0.7-0.5-1.2-1.3-1.6-2.3
			c-0.4-1-0.6-2.1-0.6-3.5v-3.5c0-1.9,0.3-3.4,1-4.5c0.6-1.1,1.5-1.8,2.4-2.2c1-0.4,2-0.6,3.2-0.6c0.6,0,1.2,0.1,1.7,0.2
			c0.6,0.1,1,0.3,1.4,0.4c0.4,0.2,0.7,0.3,0.8,0.3c0.4,0.2,0.5,0.4,0.5,0.6v1.6c0,0.4-0.2,0.5-0.6,0.4c-0.3-0.1-0.6-0.2-1.1-0.3
			c-0.4-0.1-0.9-0.2-1.3-0.3s-0.8-0.1-1.2-0.1c-0.8,0-1.4,0.1-1.9,0.4c-0.5,0.3-0.9,0.7-1.1,1.4c-0.3,0.7-0.4,1.5-0.4,2.6v3.5
			c0,1.1,0.1,1.9,0.4,2.6c0.3,0.7,0.6,1.1,1.1,1.4c0.5,0.3,1.2,0.4,1.9,0.4c0.6,0,1.3-0.1,1.9-0.2c0.7-0.1,1.2-0.3,1.7-0.5
			c0.4-0.1,0.6,0,0.6,0.4V50c0,0.2-0.2,0.5-0.5,0.7c-0.3,0.2-0.9,0.4-1.6,0.6C258.1,51.6,257.2,51.7,256.4,51.7z"/>
		<path fill="#0E62AF" d="M274.4,45.6c0,1.1-0.2,2.2-0.7,3.1c-0.4,0.9-1.1,1.6-1.9,2.1c-0.9,0.5-1.9,0.8-3.1,0.8s-2.2-0.3-3.1-0.8
			c-0.9-0.5-1.5-1.2-1.9-2.1c-0.4-0.9-0.7-1.9-0.7-3.1v-1.9c0-1.1,0.2-2.2,0.7-3.1c0.4-0.9,1.1-1.6,1.9-2.1c0.9-0.5,1.9-0.8,3.1-0.8
			s2.3,0.3,3.1,0.8c0.9,0.5,1.5,1.2,1.9,2.1c0.4,0.9,0.7,1.9,0.7,3.1V45.6z M273.1,36.3c0,0.1-0.1,0.2-0.2,0.2h-2
			c-0.1,0-0.2,0-0.2,0c-0.1,0-0.1-0.1-0.2-0.1c-0.1-0.1-0.1-0.1-0.2-0.2l-1.7-1.9l-1.7,1.9c-0.1,0.1-0.2,0.2-0.3,0.3
			c-0.1,0-0.2,0.1-0.3,0.1h-2c-0.1,0-0.2-0.1-0.2-0.2c0-0.1,0-0.2,0.1-0.2l2.2-2.9c0.1-0.2,0.2-0.3,0.3-0.3c0.1,0,0.2-0.1,0.3-0.1
			h3.1c0.1,0,0.3,0,0.3,0.1c0.1,0,0.2,0.1,0.3,0.3l2.2,2.9C273.1,36.1,273.1,36.2,273.1,36.3z M271.2,45.6v-1.9c0-1-0.2-1.8-0.7-2.4
			c-0.4-0.6-1.1-0.9-1.9-0.9c-0.8,0-1.5,0.3-1.9,0.9c-0.4,0.6-0.7,1.4-0.7,2.4v1.9c0,1,0.2,1.8,0.7,2.4c0.4,0.6,1.1,0.9,1.9,0.9
			c0.8,0,1.5-0.3,1.9-0.9C271,47.5,271.2,46.7,271.2,45.6z M272.9,29.4c-0.2,0-0.6,0.1-1.1,0.3c-0.2,0.1-0.4,0.1-0.5,0
			s-0.2-0.2-0.2-0.3v-0.7c0-0.1,0-0.1,0.1-0.2c0.1-0.1,0.2-0.2,0.5-0.3c0.3-0.1,0.6-0.2,0.9-0.3c0.3-0.1,0.7-0.1,1.2,0
			c0.5,0,0.9,0.2,1.3,0.5s0.6,0.8,0.6,1.4v0.1c0,0.3,0,0.5-0.1,0.8c-0.1,0.2-0.3,0.6-0.6,0.9l-0.7,0.8c0,0-0.1,0.1-0.2,0.2
			c-0.1,0.1-0.1,0.2-0.2,0.2c0,0.1-0.1,0.1-0.1,0.2c0,0.1,0,0.2,0,0.2v0.4c0,0.1,0,0.1-0.1,0.2c-0.1,0.1-0.2,0.1-0.4,0.1h-0.9
			c-0.2,0-0.3,0-0.4-0.1c-0.1-0.1-0.1-0.1-0.1-0.2v-0.4c0-0.3,0-0.6,0.1-0.8s0.3-0.5,0.5-0.8l0.7-0.8c0.1-0.1,0.2-0.3,0.3-0.5
			c0.1-0.2,0.1-0.4,0.1-0.5s-0.1-0.2-0.2-0.3C273.2,29.4,273.1,29.3,272.9,29.4z"/>
		<path fill="#0E62AF" d="M287.8,51c0,0.1,0,0.2-0.1,0.3c-0.1,0.1-0.2,0.2-0.3,0.2h-2.2c-0.1,0-0.2-0.1-0.3-0.2
			c-0.1-0.1-0.1-0.2-0.1-0.3v-8c0-0.6-0.1-1.1-0.2-1.5s-0.4-0.6-0.7-0.8c-0.3-0.2-0.8-0.3-1.4-0.3c-0.7,0-1.5,0.1-2.3,0.3V51
			c0,0.1,0,0.3-0.1,0.4c-0.1,0.1-0.2,0.1-0.3,0.1h-2.5c-0.1,0-0.3-0.1-0.3-0.2c-0.1-0.1-0.1-0.2-0.1-0.3V39c0-0.2,0.2-0.4,0.5-0.5
			c0.8-0.2,1.6-0.4,2.6-0.5c0.9-0.1,1.8-0.2,2.5-0.2c1.9,0,3.2,0.4,4.1,1.2c0.9,0.8,1.3,2.2,1.3,4v8H287.8z"/>
		<path fill="#0E62AF" d="M295.9,53.7c0.6,0,1.1-0.1,1.4-0.2c0.3-0.1,0.5-0.3,0.7-0.6c0.1-0.3,0.2-0.7,0.2-1.3v-0.2
			c-0.2,0-0.6,0.1-1.1,0.2c-0.6,0.1-1,0.1-1.2,0.1c-1.3,0-2.3-0.2-3.2-0.7c-0.8-0.5-1.5-1.2-1.9-2.1c-0.4-0.9-0.6-2-0.6-3.2v-1.8
			c0-1.2,0.2-2.3,0.6-3.2s1.1-1.6,1.9-2.1s1.9-0.7,3.2-0.7c0.4,0,0.8,0,1.3,0c0.4,0,0.8,0.1,1.1,0.1s0.8,0.1,1.3,0.2
			c0.5,0.1,0.9,0.2,1.2,0.3c0.3,0.1,0.4,0.1,0.5,0.2c0.1,0.1,0.1,0.2,0.1,0.4v12.4c0,1.1-0.2,2-0.6,2.7c-0.4,0.7-1,1.2-1.8,1.6
			c-0.8,0.3-1.8,0.5-3,0.5c-0.8,0-1.6-0.1-2.4-0.3c-0.8-0.2-1.5-0.4-2-0.7c-0.1-0.1-0.2-0.1-0.3-0.2c-0.1-0.1-0.1-0.1-0.2-0.2
			c0-0.1,0-0.2,0-0.3v-1.2c0-0.3,0.2-0.5,0.5-0.4c0.6,0.2,1.4,0.3,2.2,0.4S295.2,53.7,295.9,53.7z M298.2,48.9v-8.4
			c-0.3-0.1-0.6-0.1-1-0.2c-0.4,0-0.8-0.1-1.3-0.1c-1,0-1.6,0.3-2,0.9c-0.4,0.6-0.6,1.4-0.6,2.5v1.8c0,0.5,0,0.9,0.1,1.4
			c0.1,0.4,0.2,0.8,0.4,1.1c0.2,0.3,0.5,0.5,0.8,0.7c0.3,0.2,0.7,0.2,1.2,0.2c0.3,0,0.6,0,1.1-0.1C297.5,49,297.8,49,298.2,48.9z"/>
		<path fill="#0E62AF" d="M317.9,51.1c0,0.2-0.2,0.4-0.5,0.4c-0.7,0.1-1.3,0.2-1.9,0.2c-0.9,0-1.7-0.1-2.2-0.3
			c-0.5-0.2-0.9-0.6-1.2-1.1c-0.3-0.5-0.4-1.3-0.4-2.4v-7.6l-2-0.3c-0.3-0.1-0.5-0.2-0.5-0.5v-1.1c0-0.1,0-0.2,0.1-0.3
			c0.1-0.1,0.2-0.1,0.3-0.1h2v-2c0-0.3,0.2-0.4,0.5-0.5l2.2-0.4h0.1c0.2,0,0.4,0.1,0.4,0.4V38h2.4c0.1,0,0.3,0,0.3,0.1
			c0.1,0.1,0.1,0.2,0.1,0.3v1.4c0,0.1,0,0.2-0.1,0.3c-0.1,0.1-0.2,0.1-0.3,0.1h-2.4v7.6c0,0.6,0.1,1,0.2,1.1
			c0.1,0.1,0.4,0.2,0.8,0.2h1.5c0.3,0,0.5,0.1,0.5,0.4v1.6H317.9z"/>
		<path fill="#0E62AF" d="M330.8,51c0,0.1,0,0.2-0.1,0.3c-0.1,0.1-0.2,0.2-0.3,0.2h-2.2c-0.1,0-0.2-0.1-0.3-0.2
			c-0.1-0.1-0.1-0.2-0.1-0.3v-8c0-0.7-0.1-1.3-0.2-1.6c-0.1-0.4-0.3-0.6-0.6-0.8c-0.3-0.1-0.7-0.2-1.2-0.2c-0.8,0-1.7,0.3-2.8,0.8
			v9.7c0,0.1,0,0.3-0.1,0.4s-0.2,0.1-0.3,0.1h-2.2c-0.1,0-0.3-0.1-0.3-0.2c-0.1-0.1-0.1-0.2-0.1-0.3V33.6c0-0.1,0-0.2,0.1-0.3
			s0.2-0.2,0.3-0.2h2.2c0.1,0,0.2,0,0.3,0.1c0.1,0.1,0.1,0.2,0.1,0.3v4.9c1-0.6,2.2-0.9,3.6-0.9c2.9,0,4.3,1.8,4.3,5.3V51H330.8z"/>
		<path fill="#0E62AF" d="M338.4,40.4c-1.3,0-2.5,0.2-3.8,0.6c-0.3,0.1-0.5,0-0.5-0.4v-1.5c0-0.1,0-0.3,0.1-0.4
			c0.1-0.1,0.2-0.2,0.4-0.3c0.5-0.2,1.1-0.4,1.8-0.5c0.7-0.2,1.5-0.2,2.4-0.2c1,0,1.9,0.2,2.6,0.5c0.7,0.3,1.3,0.8,1.7,1.5
			s0.6,1.5,0.6,2.5v8.2c0,0.2,0,0.3-0.1,0.4c0,0.1-0.1,0.1-0.3,0.2c-0.7,0.2-1.4,0.3-2.1,0.4c-0.7,0.1-1.5,0.2-2.4,0.2
			c-1.3,0-2.4-0.1-3.2-0.4c-0.8-0.3-1.4-0.7-1.8-1.3s-0.6-1.4-0.6-2.3v-0.1c0-0.7,0.1-1.3,0.3-1.8c0.2-0.5,0.5-0.9,1-1.3
			c0.4-0.3,1-0.6,1.7-0.8c0.7-0.2,1.6-0.3,2.6-0.3h1.7v-1c0-0.7-0.2-1.3-0.5-1.5C339.7,40.5,339.1,40.4,338.4,40.4z M340.5,49.1
			v-3.5h-1.7c-0.7,0-1.3,0.1-1.6,0.2c-0.3,0.1-0.6,0.3-0.7,0.6c-0.1,0.3-0.2,0.6-0.2,1.1v0.1c0,0.5,0.1,0.8,0.2,1
			c0.1,0.2,0.4,0.4,0.7,0.5c0.3,0.1,0.8,0.1,1.5,0.1C339.5,49.3,340,49.2,340.5,49.1z"/>
		<path fill="#0E62AF" d="M357.4,51c0,0.1,0,0.2-0.1,0.3c-0.1,0.1-0.2,0.2-0.3,0.2h-2.2c-0.1,0-0.2-0.1-0.3-0.2
			c-0.1-0.1-0.1-0.2-0.1-0.3v-8c0-0.6-0.1-1.1-0.2-1.5s-0.4-0.6-0.7-0.8c-0.3-0.2-0.8-0.3-1.4-0.3c-0.7,0-1.5,0.1-2.3,0.3V51
			c0,0.1,0,0.3-0.1,0.4c-0.1,0.1-0.2,0.1-0.3,0.1h-2.5c-0.1,0-0.3-0.1-0.3-0.2c-0.1-0.1-0.1-0.2-0.1-0.3V39c0-0.2,0.2-0.4,0.5-0.5
			c0.8-0.2,1.6-0.4,2.6-0.5c0.9-0.1,1.8-0.2,2.5-0.2c1.9,0,3.2,0.4,4.1,1.2c0.9,0.8,1.3,2.2,1.3,4v8H357.4z"/>
		<path fill="#0E62AF" d="M371.3,51c0,0.1,0,0.2-0.1,0.3c-0.1,0.1-0.2,0.2-0.3,0.2h-2.2c-0.1,0-0.2-0.1-0.3-0.2
			c-0.1-0.1-0.1-0.2-0.1-0.3v-8c0-0.7-0.1-1.3-0.2-1.6c-0.1-0.4-0.3-0.6-0.6-0.8c-0.3-0.1-0.7-0.2-1.2-0.2c-0.8,0-1.7,0.3-2.8,0.8
			v9.7c0,0.1,0,0.3-0.1,0.4s-0.2,0.1-0.3,0.1h-2.2c-0.1,0-0.3-0.1-0.3-0.2c-0.1-0.1-0.1-0.2-0.1-0.3V33.6c0-0.1,0-0.2,0.1-0.3
			s0.2-0.2,0.3-0.2h2.2c0.1,0,0.2,0,0.3,0.1c0.1,0.1,0.1,0.2,0.1,0.3v4.9c1-0.6,2.2-0.9,3.6-0.9c2.9,0,4.3,1.8,4.3,5.3V51H371.3z"/>
		<path fill="#0E62AF" d="M387.8,51.1c0,0.2-0.2,0.4-0.5,0.4c-0.7,0.1-1.3,0.2-1.9,0.2c-0.9,0-1.7-0.1-2.2-0.3
			c-0.5-0.2-0.9-0.6-1.2-1.1s-0.4-1.3-0.4-2.4v-7.6l-2-0.3c-0.3-0.1-0.5-0.2-0.5-0.5v-1.1c0-0.1,0-0.2,0.1-0.3
			c0.1-0.1,0.2-0.1,0.3-0.1h2v-2c0-0.3,0.2-0.4,0.5-0.5l2.2-0.4h0.1c0.2,0,0.4,0.1,0.4,0.4V38h2.4c0.1,0,0.3,0,0.3,0.1
			c0.1,0.1,0.1,0.2,0.1,0.3v1.4c0,0.1,0,0.2-0.1,0.3c-0.1,0.1-0.2,0.1-0.3,0.1h-2.4v7.6c0,0.6,0.1,1,0.2,1.1
			c0.1,0.1,0.4,0.2,0.8,0.2h1.5c0.3,0,0.5,0.1,0.5,0.4v1.6H387.8z"/>
		<path fill="#0E62AF" d="M400.7,45.6c0,1.1-0.2,2.2-0.7,3.1c-0.4,0.9-1.1,1.6-1.9,2.1c-0.9,0.5-1.9,0.8-3.1,0.8s-2.2-0.3-3.1-0.8
			c-0.9-0.5-1.5-1.2-1.9-2.1c-0.4-0.9-0.7-1.9-0.7-3.1v-1.9c0-1.1,0.2-2.2,0.7-3.1c0.4-0.9,1.1-1.6,1.9-2.1c0.9-0.5,1.9-0.8,3.1-0.8
			s2.3,0.3,3.1,0.8c0.9,0.5,1.5,1.2,1.9,2.1c0.4,0.9,0.7,1.9,0.7,3.1V45.6z M397.6,45.6v-1.9c0-1-0.2-1.8-0.7-2.4
			c-0.4-0.6-1.1-0.9-1.9-0.9s-1.5,0.3-1.9,0.9c-0.4,0.6-0.7,1.4-0.7,2.4v1.9c0,1,0.2,1.8,0.7,2.4c0.4,0.6,1.1,0.9,1.9,0.9
			s1.5-0.3,1.9-0.9C397.4,47.5,397.6,46.7,397.6,45.6z"/>
		<path fill="#0E62AF" d="M407.9,40.4c-1.3,0-2.5,0.2-3.8,0.6c-0.3,0.1-0.5,0-0.5-0.4v-1.5c0-0.1,0-0.3,0.1-0.4
			c0.1-0.1,0.2-0.2,0.4-0.3c0.5-0.2,1.1-0.4,1.8-0.5c0.7-0.2,1.5-0.2,2.4-0.2c1,0,1.9,0.2,2.6,0.5c0.7,0.3,1.3,0.8,1.7,1.5
			s0.6,1.5,0.6,2.5v8.2c0,0.2,0,0.3-0.1,0.4c0,0.1-0.1,0.1-0.3,0.2c-0.7,0.2-1.4,0.3-2.1,0.4c-0.7,0.1-1.5,0.2-2.4,0.2
			c-1.3,0-2.4-0.1-3.2-0.4c-0.8-0.3-1.4-0.7-1.8-1.3c-0.4-0.6-0.6-1.4-0.6-2.3v-0.1c0-0.7,0.1-1.3,0.3-1.8c0.2-0.5,0.5-0.9,1-1.3
			c0.4-0.3,1-0.6,1.7-0.8c0.7-0.2,1.6-0.3,2.6-0.3h1.7v-1c0-0.7-0.2-1.3-0.5-1.5C409.2,40.5,408.7,40.4,407.9,40.4z M410,49.1v-3.5
			h-1.6c-0.7,0-1.3,0.1-1.6,0.2c-0.3,0.1-0.6,0.3-0.7,0.6c-0.1,0.3-0.2,0.6-0.2,1.1v0.1c0,0.5,0.1,0.8,0.2,1
			c0.1,0.2,0.4,0.4,0.7,0.5c0.3,0.1,0.8,0.1,1.5,0.1C409,49.3,409.6,49.2,410,49.1z M412.1,32.9c0,0.1,0,0.1-0.1,0.2l-2.8,3
			c-0.1,0.1-0.2,0.2-0.3,0.2c-0.1,0.1-0.2,0.1-0.3,0.1h-2c-0.1,0-0.2-0.1-0.2-0.2s0-0.2,0.1-0.2l2.3-2.9c0.1-0.1,0.2-0.2,0.3-0.3
			c0.1,0,0.2-0.1,0.3-0.1h2.5C412.1,32.7,412.1,32.8,412.1,32.9z"/>
		<path fill="#0E62AF" d="M427,51c0,0.1,0,0.2-0.1,0.3c-0.1,0.1-0.2,0.2-0.3,0.2h-2.2c-0.1,0-0.2-0.1-0.3-0.2
			c-0.1-0.1-0.1-0.2-0.1-0.3v-8c0-0.6-0.1-1.1-0.2-1.5s-0.4-0.6-0.7-0.8c-0.3-0.2-0.8-0.3-1.4-0.3c-0.7,0-1.5,0.1-2.3,0.3V51
			c0,0.1,0,0.3-0.1,0.4c-0.1,0.1-0.2,0.1-0.3,0.1h-2.5c-0.1,0-0.3-0.1-0.3-0.2c-0.1-0.1-0.1-0.2-0.1-0.3V39c0-0.2,0.2-0.4,0.5-0.5
			c0.8-0.2,1.6-0.4,2.6-0.5c0.9-0.1,1.8-0.2,2.5-0.2c1.9,0,3.2,0.4,4.1,1.2c0.9,0.8,1.3,2.2,1.3,4v8H427z"/>
	</g>
	<rect x="235.2" y="0" fill="#0E62AF" width="1.1" height="56.6"/>
</g>
</svg>
