<svg xmlns="http://www.w3.org/2000/svg" xmlns:xlink="http://www.w3.org/1999/xlink" width="500" zoomAndPan="magnify" viewBox="0 0 375 374.999991" height="500" preserveAspectRatio="xMidYMid meet" version="1.0"><defs><clipPath id="768c606409"><path d="M 28.433594 4.667969 L 348.683594 4.667969 L 348.683594 370.667969 L 28.433594 370.667969 Z M 28.433594 4.667969 " clip-rule="nonzero"/></clipPath><clipPath id="7e535fe000"><path d="M 25 132.757812 L 92 132.757812 L 92 207.757812 L 25 207.757812 Z M 25 132.757812 " clip-rule="nonzero"/></clipPath><clipPath id="8f01c66e05"><path d="M 111.109375 132.757812 L 178 132.757812 L 178 207.757812 L 111.109375 207.757812 Z M 111.109375 132.757812 " clip-rule="nonzero"/></clipPath><clipPath id="67572e35d6"><path d="M 197.386719 133.113281 L 264 133.113281 L 264 208 L 197.386719 208 Z M 197.386719 133.113281 " clip-rule="nonzero"/></clipPath><clipPath id="e555c3aa14"><path d="M 197.386719 216.953125 L 264.207031 216.953125 L 264.207031 230.195312 L 197.386719 230.195312 Z M 197.386719 216.953125 " clip-rule="nonzero"/></clipPath><clipPath id="312c9ecad0"><path d="M 111.425781 216.953125 L 178.242188 216.953125 L 178.242188 230.195312 L 111.425781 230.195312 Z M 111.425781 216.953125 " clip-rule="nonzero"/></clipPath><clipPath id="d27335e72d"><path d="M 25.304688 216.953125 L 92.121094 216.953125 L 92.121094 230.195312 L 25.304688 230.195312 Z M 25.304688 216.953125 " clip-rule="nonzero"/></clipPath><clipPath id="8ab459647d"><path d="M 283.195312 216.953125 L 350.011719 216.953125 L 350.011719 230.195312 L 283.195312 230.195312 Z M 283.195312 216.953125 " clip-rule="nonzero"/></clipPath><clipPath id="526d870659"><path d="M 297 132.757812 L 336 132.757812 L 336 164 L 297 164 Z M 297 132.757812 " clip-rule="nonzero"/></clipPath><clipPath id="61dc996eae"><path d="M 287.957031 160.375 L 344.945312 160.375 L 344.945312 207.757812 L 287.957031 207.757812 Z M 287.957031 160.375 " clip-rule="nonzero"/></clipPath></defs><g clip-path="url(#768c606409)"><path fill="#ffffff" d="M 268.386719 32.867188 C 229.28125 32.105469 198.8125 11.789062 188.398438 4.679688 C 177.988281 11.789062 147.519531 32.105469 108.414062 32.867188 C 65.5 33.882812 38.582031 23.472656 28.425781 16.617188 L 28.425781 130.375 L 45.695312 130.375 L 45.695312 42.515625 C 64.230469 47.847656 83.527344 50.386719 102.828125 50.132812 L 108.921875 50.132812 C 135.582031 49.371094 162.753906 40.738281 188.398438 24.996094 C 214.046875 40.738281 241.214844 49.371094 267.878906 49.878906 L 273.972656 49.878906 C 293.269531 50.132812 312.570312 47.59375 331.105469 42.261719 L 331.105469 130.121094 L 348.371094 130.121094 L 348.371094 16.617188 C 338.214844 23.472656 311.300781 33.882812 268.386719 32.867188 Z M 288.699219 276.636719 C 261.785156 313.707031 226.234375 340.371094 188.398438 352.558594 C 150.3125 340.625 115.015625 313.707031 88.097656 276.890625 C 80.734375 266.730469 74.132812 256.066406 68.546875 244.894531 L 49.25 244.894531 C 76.164062 302.535156 127.203125 353.066406 188.398438 370.332031 C 234.105469 357.382812 273.972656 325.898438 302.667969 286.792969 C 312.316406 273.589844 320.695312 259.367188 327.550781 244.640625 L 308.507812 244.640625 C 302.667969 255.8125 296.066406 266.476562 288.699219 276.636719 Z M 288.699219 276.636719 " fill-opacity="1" fill-rule="nonzero"/></g><g clip-path="url(#7e535fe000)"><path fill="#ffffff" d="M 58.550781 132.757812 C 61.824219 132.757812 64.476562 135.410156 64.476562 138.683594 L 64.476562 160.019531 L 82.953125 149.351562 C 85.789062 147.714844 89.410156 148.6875 91.046875 151.519531 C 92.683594 154.355469 91.710938 157.976562 88.878906 159.613281 L 70.398438 170.28125 L 88.878906 180.949219 C 91.710938 182.585938 92.683594 186.210938 91.046875 189.042969 C 89.410156 191.878906 85.785156 192.847656 82.953125 191.210938 L 64.476562 180.542969 L 64.476562 201.882812 C 64.476562 205.152344 61.824219 207.804688 58.550781 207.804688 C 55.277344 207.804688 52.625 205.152344 52.625 201.882812 L 52.625 180.542969 L 34.148438 191.210938 C 31.3125 192.847656 27.691406 191.878906 26.054688 189.042969 C 24.417969 186.210938 25.390625 182.585938 28.222656 180.949219 L 46.699219 170.28125 L 28.222656 159.613281 C 25.390625 157.976562 24.417969 154.355469 26.054688 151.519531 C 27.691406 148.6875 31.3125 147.714844 34.148438 149.351562 L 52.625 160.019531 L 52.625 138.683594 C 52.625 135.410156 55.277344 132.757812 58.550781 132.757812 Z M 58.550781 132.757812 " fill-opacity="1" fill-rule="nonzero"/></g><g clip-path="url(#8f01c66e05)"><path fill="#ffffff" d="M 144.671875 132.757812 C 147.945312 132.757812 150.597656 135.410156 150.597656 138.683594 L 150.597656 160.019531 L 169.074219 149.351562 C 171.910156 147.714844 175.53125 148.6875 177.167969 151.519531 C 178.804688 154.355469 177.832031 157.976562 175 159.613281 L 156.519531 170.28125 L 175 180.949219 C 177.832031 182.585938 178.804688 186.210938 177.167969 189.042969 C 175.53125 191.878906 171.90625 192.847656 169.074219 191.210938 L 150.597656 180.542969 L 150.597656 201.882812 C 150.597656 205.152344 147.945312 207.804688 144.671875 207.804688 C 141.398438 207.804688 138.746094 205.152344 138.746094 201.882812 L 138.746094 180.542969 L 120.269531 191.210938 C 117.433594 192.847656 113.8125 191.878906 112.175781 189.042969 C 110.539062 186.210938 111.511719 182.585938 114.34375 180.949219 L 132.820312 170.28125 L 114.34375 159.613281 C 111.511719 157.976562 110.539062 154.355469 112.175781 151.519531 C 113.8125 148.6875 117.433594 147.714844 120.269531 149.351562 L 138.746094 160.019531 L 138.746094 138.683594 C 138.746094 135.410156 141.398438 132.757812 144.671875 132.757812 Z M 144.671875 132.757812 " fill-opacity="1" fill-rule="nonzero"/></g><g clip-path="url(#67572e35d6)"><path fill="#ffffff" d="M 230.792969 133.113281 C 234.050781 133.113281 236.6875 135.75 236.6875 139.007812 L 236.6875 160.246094 L 255.082031 149.628906 C 257.902344 148 261.507812 148.964844 263.136719 151.785156 C 264.765625 154.605469 263.796875 158.210938 260.976562 159.839844 L 242.585938 170.460938 L 260.976562 181.078125 C 263.796875 182.707031 264.765625 186.3125 263.136719 189.132812 C 261.507812 191.953125 257.902344 192.921875 255.082031 191.292969 L 236.6875 180.671875 L 236.6875 201.910156 C 236.6875 205.167969 234.050781 207.808594 230.792969 207.808594 C 227.535156 207.808594 224.894531 205.167969 224.894531 201.910156 L 224.894531 180.671875 L 206.503906 191.292969 C 203.683594 192.921875 200.078125 191.953125 198.449219 189.132812 C 196.820312 186.3125 197.785156 182.707031 200.605469 181.078125 L 219 170.460938 L 200.605469 159.839844 C 197.785156 158.210938 196.820312 154.605469 198.449219 151.785156 C 200.078125 148.964844 203.683594 148 206.503906 149.628906 L 224.894531 160.246094 L 224.894531 139.007812 C 224.894531 135.75 227.535156 133.113281 230.792969 133.113281 Z M 230.792969 133.113281 " fill-opacity="1" fill-rule="nonzero"/></g><g clip-path="url(#e555c3aa14)"><path fill="#ffffff" d="M 197.386719 216.953125 L 264.230469 216.953125 L 264.230469 230.195312 L 197.386719 230.195312 Z M 197.386719 216.953125 " fill-opacity="1" fill-rule="nonzero"/></g><g clip-path="url(#312c9ecad0)"><path fill="#ffffff" d="M 111.425781 216.953125 L 178.269531 216.953125 L 178.269531 230.195312 L 111.425781 230.195312 Z M 111.425781 216.953125 " fill-opacity="1" fill-rule="nonzero"/></g><g clip-path="url(#d27335e72d)"><path fill="#ffffff" d="M 25.304688 216.953125 L 92.148438 216.953125 L 92.148438 230.195312 L 25.304688 230.195312 Z M 25.304688 216.953125 " fill-opacity="1" fill-rule="nonzero"/></g><g clip-path="url(#8ab459647d)"><path fill="#ffffff" d="M 283.195312 216.953125 L 350.039062 216.953125 L 350.039062 230.195312 L 283.195312 230.195312 Z M 283.195312 216.953125 " fill-opacity="1" fill-rule="nonzero"/></g><g clip-path="url(#526d870659)"><path fill="#ffffff" d="M 316.601562 132.757812 C 306.101562 132.757812 297.558594 141.300781 297.558594 151.800781 L 297.558594 163.347656 C 297.714844 163.335938 297.871094 163.328125 298.03125 163.328125 L 304.511719 163.328125 L 304.511719 151.800781 C 304.511719 145.132812 309.933594 139.710938 316.601562 139.710938 C 323.269531 139.710938 328.695312 145.132812 328.695312 151.800781 L 328.695312 163.328125 L 335.175781 163.328125 C 335.332031 163.328125 335.488281 163.335938 335.644531 163.347656 L 335.644531 151.800781 C 335.644531 141.300781 327.101562 132.757812 316.601562 132.757812 " fill-opacity="1" fill-rule="nonzero"/></g><g clip-path="url(#61dc996eae)"><path fill="#ffffff" d="M 297.550781 166.011719 C 297.453125 166.011719 297.347656 166.015625 297.21875 166.023438 C 295.027344 166.140625 293.445312 168.117188 293.445312 169.386719 L 293.445312 198.941406 C 293.445312 200.269531 295.207031 202.320312 297.550781 202.320312 L 335.65625 202.320312 C 337.996094 202.320312 339.761719 200.269531 339.761719 198.941406 L 339.761719 169.386719 C 339.761719 168.117188 338.175781 166.140625 335.988281 166.023438 C 335.855469 166.015625 335.75 166.011719 335.65625 166.011719 Z M 335.65625 207.804688 L 297.550781 207.804688 C 295.074219 207.804688 292.6875 206.847656 290.828125 205.105469 C 289.003906 203.390625 287.957031 201.144531 287.957031 198.941406 L 287.957031 169.386719 C 287.957031 167.285156 288.921875 165.109375 290.605469 163.417969 C 292.324219 161.691406 294.566406 160.671875 296.917969 160.542969 C 297.152344 160.53125 297.351562 160.523438 297.550781 160.523438 L 335.65625 160.523438 C 335.851562 160.523438 336.054688 160.53125 336.289062 160.542969 C 338.636719 160.671875 340.878906 161.691406 342.597656 163.417969 C 344.28125 165.109375 345.25 167.285156 345.25 169.386719 L 345.25 198.941406 C 345.25 201.144531 344.199219 203.390625 342.375 205.105469 C 340.519531 206.847656 338.132812 207.804688 335.65625 207.804688 " fill-opacity="1" fill-rule="nonzero"/></g><path fill="#ffffff" d="M 321.523438 179.855469 C 321.523438 181.8125 320.382812 183.5 318.730469 184.292969 L 318.730469 190.753906 C 318.730469 191.34375 318.492188 191.875 318.109375 192.261719 C 317.722656 192.644531 317.1875 192.882812 316.601562 192.882812 C 316.5625 192.882812 316.519531 192.882812 316.476562 192.878906 C 315.882812 192.84375 315.351562 192.566406 314.988281 192.140625 C 314.667969 191.769531 314.476562 191.285156 314.476562 190.753906 L 314.476562 184.292969 C 312.820312 183.5 311.679688 181.8125 311.679688 179.855469 C 311.679688 177.136719 313.882812 174.933594 316.601562 174.933594 C 317.546875 174.933594 318.429688 175.199219 319.179688 175.660156 C 320.585938 176.527344 321.523438 178.082031 321.523438 179.855469 " fill-opacity="1" fill-rule="nonzero"/></svg>